<?xml version="1.0" encoding="utf-8"?>
<!-- Generator: Adobe Illustrator 24.3.0, SVG Export Plug-In . SVG Version: 6.00 Build 0)  -->
<svg version="1.1" id="Layer_1" xmlns="http://www.w3.org/2000/svg" xmlns:xlink="http://www.w3.org/1999/xlink" x="0px" y="0px"
	 viewBox="0 0 3000 3000" style="enable-background:new 0 0 3000 3000;" xml:space="preserve">
<style type="text/css">
	.st0{fill:#1D1D1B;}
	.st1{fill:#FFED00;}
	.st2{fill:#FFFFFF;}
	.st3{fill:#312783;}
</style>
<g>
	<path class="st0" d="M1318.02,2431.43c44.16-59.71,77.31-125.44,103.67-194.76c12.86-33.81,9.95-68.23,4.66-102.58
		c-3.98-25.88-10.35-51.38-14.88-77.18c-2.06-11.73-3.05-23.79-3.09-35.71c-0.15-50.1,31.28-81.92,81.46-83.14
		c3.47-0.08,6.94-0.01,11.55-0.01c-1.04-7.24-1.88-13.15-2.72-18.99c-30.69,0.55-35.74-3.46-45.04-35.41
		c-26.39,3.9-52.73,8.48-79.24,11.53c-38.25,4.4-76.69,8.45-114.81-0.99c-35.71-8.84-49.64-30.51-41.53-66.24
		c5.08-22.36,13.33-44,18.33-66.37c3.93-17.59,5.31-35.78,7.24-53.77c0.35-3.29-1.06-7.89-3.36-10.16
		c-8.49-8.36-18.48-15.29-26.4-24.11c-7.69-8.56-13.55-18.78-20.72-28.99c-15.36,7.4-32.16,11.44-49.94,9.01
		c-5.39-0.73-10.9-1.89-15.84-4.05c-2.5-1.09-3.85-4.84-5.72-7.39c3.19-1.11,6.92-3.89,9.47-3.05c17.9,5.88,35.09,4.03,52.04-3.23
		c1.74-0.75,3.31-1.9,4.89-2.83c0.16-7.7-3.95-9.93-10.6-11.26c-65.59-13.18-124.07-40.52-171.61-88.56
		c-9.97-10.07-18.15-21.9-27.46-32.65c-6.06-7-4.75-11.7,2.22-17.58c27.67-23.37,55.58-46.55,81.98-71.3
		c25.83-24.22,25.38-26.28,10.54-58.15c-13.24-28.43-27.05-56.61-39.95-85.2c-8.56-18.97-14.37-38.84-13.89-60
		c0.41-18.07,2.84-21.3,20.59-23.79c47.36-6.63,94.77-12.87,142.16-19.23c16.82-2.26,29-10.58,34.81-26.89
		c10.32-28.95,19.71-58.25,30.88-86.86c7.49-19.21,16.56-37.94,26.44-56.05c8.27-15.16,15.79-18.04,31.25-10.42
		c34.45,17,68.14,35.55,102.07,53.61c7.41,3.94,14.57,8.37,21.75,12.73c15.9,9.65,32.12,10.01,47.61,0.02
		c15.47-9.98,30.37-20.89,45.14-31.9c24.89-18.58,49.15-38.03,74.38-56.12c8.68-6.22,19.08-11.07,29.42-13.74
		c16.6-4.28,28.81,2.96,35.93,18.74c17.16,38.02,34.3,76.06,51.31,114.15c13.61,30.48,31.53,38.46,66.56,33.59
		c42.22-5.87,84.66-11.62,127.18-13.48c31.81-1.39,32.15-2.18,29.46,32.11c-3.69,47-10.1,93.8-15.7,140.64
		c-0.93,7.8,1.03,13.58,6.33,19.17c22.05,23.28,49.67,35.23,80.53,41.7c15.43,3.23,30.89,7.4,45.5,13.24
		c16.43,6.57,18.99,13.65,14.39,30.37c-13.08,47.56-35.44,90.02-69.29,126.25c-2.21,2.37-3.57,7.97-2.33,10.71
		c6.1,13.47,12.62,26.83,20.13,39.56c8.04,13.63,17.5,26.41,26.06,39.74c8.93,13.9,7.75,22.49-4.96,32.9
		c-24.02,19.67-50.73,34.55-80.45,43.86c-3.08,0.96-6.03,2.32-9.06,3.44c-12.66,4.65-18.85,12.58-17.79,27.16
		c1.96,27.09,2.07,54.3,3.44,81.44c0.68,13.44-0.76,16.69-13.73,21.58c-23.72,8.95-47.77,6.79-71.66,1.13
		c-13.76-3.26-27.22-7.79-42.97-12.37c1.57,22.22,3.07,43.41,4.55,64.31c12.75,1.67,24.77,2.14,36.2,4.95
		c40.33,9.92,65.92,36.62,81.05,74.19c15.73,39.05,22.94,80.28,26.3,121.8c4.67,57.68,8.62,115.58,9.02,173.41
		c0.56,80.61-6.45,160.84-20.75,240.4 M1119.76,2464.72c25.66-21.72,55.42-32.37,89.32-20.29c19.02,6.78,34.16,19.46,47.76,34.06
		 M1229.04,2469.43c-1.7-1.57-4.67-2.25-7.12-2.46 M1256.4,1708.57c-0.14,0.58-0.64,1.74-0.7,2.93
		c-1.76,33.55-9.14,65.89-20.21,97.54c-3.29,9.41-5.78,19.29-7.06,29.16c-2.86,22.01,5.29,36.61,26.86,41.78
		c20.21,4.84,41.55,8.39,62.16,7.47c82.38-3.68,163.08-17.13,240.3-47.67c53.41-21.13,102.7-48.89,144.74-88.5
		c6.25-5.89,11.89-12.43,19.01-19.93c-7.05-3-12.55-4.82-17.46-7.65c-2.28-1.32-4.53-4.56-4.66-7.03c-0.08-1.61,3.55-4.66,5.77-4.93
		c16.38-1.95,42.39,24.51,40.66,41.4c-0.26,2.5-3.29,4.72-5.05,7.07c-2.33-1.82-5.52-3.17-6.8-5.56c-1.91-3.53-2.47-7.78-3.87-12.62
		c-2.12,1.74-3.44,2.57-4.44,3.69c-33.61,37.43-74.8,64.53-119.37,86.79c-41.81,20.88-85.92,35.42-131.26,46.49
		c-2.95,0.72-7.4,4-7.51,6.26c-0.69,14.5,11.38,24.27,25.64,21.06c6.25-1.41,12.13-4.54,18.39-5.88c2.54-0.54,6.83,0.81,8.12,2.76
		c1.04,1.56-0.53,7.18-2.17,7.8c-7.18,2.74-5.78,7.73-5.41,13.35c0.6,9.11,4.23,13.53,13.12,18.05
		c15.53,7.9,29.09,19.67,43.66,29.95c6.39-11.21,17.56-19.04,32.29-22.26c14.85-3.25,27.91,0.35,39.43,9.74
		c19.85-20.65,42.19-21.94,66.62-11.03c12.33-24.83,32.35-29.95,55.04-23.02c6.21-7.01,10.68-14.07,16.97-18.59
		c6.29-4.51,14.42-6.46,22.62-9.9c-0.25-3.09-0.33-6.93-0.89-10.7c-8.01-54.93-11.53-110-5.44-165.38c0.54-4.9,0.23-8.22-5.38-10.57
		c-3.05-1.27-4.56-6.24-6.77-9.53c3.95-0.63,7.97-2.04,11.85-1.74c10.47,0.79,21.33,4.82,31.23,3.06
		c31.43-5.61,48.76-43.08,35.69-74.31c-11.59-27.7-35.32-38.11-63.24-27.34c-6.89,2.66-13.11,7.07-20.01,9.72
		c-2.51,0.97-6.08-0.83-9.17-1.37c0.64-2.85,0.33-6.65,2.08-8.41c23.51-23.64,66.16-22.69,89.31,1.7
		c33.82,35.64,18.98,98.06-26.89,112c-7.87,2.39-16.42,2.57-26.43,4.03c-0.51,19.2-1.26,38.83-1.27,58.46c0,2.37,3.62,6.11,6.25,6.9
		c17.58,5.26,35.11,11.67,53.14,14.17c14.67,2.03,30.06-0.44,45.05-1.81c6.74-0.61,9.83-4.8,9.29-12.79
		c-1.56-23.23-2.28-46.52-2.73-69.81c-0.7-35.91,3.91-42.18,37.94-54.03c4.58-1.59,9.59-2.42,13.69-4.81
		c20.28-11.84,40.41-23.95,60.4-36.29c5.98-3.69,6.44-8.76,2.22-14.81c-8.31-11.94-16.87-23.8-23.95-36.47
		c-9.39-16.81-17.43-34.38-26.09-51.59c-2.93-5.83-1.13-10.17,3.3-14.61c31.48-31.54,52.81-69.27,66.21-111.48
		c7.45-23.46,12.98-23.92-18.1-33.81c-18.72-5.96-38.31-9.19-57.04-15.12c-25.85-8.19-47.76-22.86-64.2-44.8
		c-2.54-3.39-5.23-8.24-4.78-12.04c4.24-35.89,9.58-71.66,13.69-107.56c2.26-19.74,2.79-39.68,4.16-60.32
		c-6.58-0.36-11.08-1.18-15.46-0.75c-42.06,4.18-84.23,7.56-126.09,13.21c-40.67,5.49-63.68-3.1-78.68-34.92
		c-18.2-38.59-35.52-77.59-52.84-116.58c-7.06-15.88-17.08-20.4-33.1-13.27c-3.81,1.7-7.5,3.88-10.85,6.37
		c-19.5,14.44-38.77,29.19-58.34,43.54c-22.68,16.62-45.03,33.78-68.57,49.09c-17.89,11.64-37.46,10.83-56.19,0.19
		c-10.41-5.91-20.46-12.47-31.02-18.08c-31.09-16.5-62.36-32.66-93.57-48.95c-6.61-3.45-11.98-2.14-15.25,4.7
		c-9.19,19.22-19.27,38.11-27.03,57.9c-10.62,27.07-19.51,54.84-29.01,82.35c-7.55,21.84-22.9,33.48-45.66,36.49
		c-47.07,6.22-94.06,13.13-141.17,18.95c-9.33,1.15-12.26,5.73-10.78,13.06c3.75,18.56,6.33,37.83,13.46,55.13
		c13.65,33.15,29.55,65.42,45.68,97.46c8.16,16.21,6.63,29.88-5.31,42.62c-12.82,13.67-25.54,27.54-39.4,40.11
		c-18.41,16.7-37.89,32.23-57.79,49c48.13,65.63,114.36,100.38,191.25,116.7c0.83-17.69,1.6-34.23,2.41-51.59
		c-18.24-6.18-32.87-18.92-44.06-35.84c-2.9-4.39-5.01-9.64,1.44-11.88c2.39-0.83,7.61,2.51,9.65,5.33
		c10.08,13.96,21.99,25.19,39.65,30.51c11.98-25.37,30.39-44.81,53.15-59.61c-8.41-16.6-16.58-32.04-23.93-47.85
		c-1.36-2.92-0.82-9.11,1.25-10.77c4.97-3.98,7.82,0.58,10.03,4.93c7.98,15.74,16.05,31.43,24.27,47.5
		c23.88-11.56,47.79-15.71,71.12-14.12c1.81-18.46,3.5-36.03,5.29-53.59c0.54-5.25,3.42-9.39,8.75-7.17
		c2.3,0.96,3.85,6.61,3.69,10.04c-0.58,12.56-2.13,25.08-3.1,37.63c-0.79,10.2,1.96,17.73,14,18.84c4.06,0.37,8.17,2.19,11.88,4.08
		c14,7.15,27.84,14.61,40.37,21.23c8.18-17.67,16.64-35.92,25.78-55.66c-0.91-0.69-3.36-1.94-4.97-3.88
		c-8.84-10.7-17.81-21.33-25.89-32.58c-1.7-2.37,0.1-7.26,0.29-10.99c3.41,1.33,7.07,2.27,10.15,4.16c1.74,1.06,2.34,3.82,3.77,5.56
		c8.32,10.09,16.73,20.1,25.64,30.78c21.61-22.75,46.05-36.64,72.08-43.62c-0.53-16.97-1.2-32.7-1.41-48.44
		c-0.07-5.01-0.23-11.66,7.29-11.25c7.84,0.42,5.72,6.71,5.51,11.85c-0.36,8.72-0.77,17.5-0.19,26.19
		c1.16,17.38,2.11,17.96,19.13,17.07c1.29-0.07,2.59-0.02,3.88-0.06c27.77-0.66,53.77,6.05,78.36,19.5
		c10.92-10.66,15.94-23.77,20.47-37.36c1.12-3.38,5.95-8.31,8.37-7.94c6.55,0.99,5.75,6.95,3.76,11.61
		c-6.02,14.05-12.43,27.93-19.07,42.72c22.08,15.58,38.57,37.9,49.95,65.31c14.11-12.75,27.38-24.34,34.5-41.44
		c1.22-2.94,5.78-4.48,8.79-6.67c1.01,3.85,2.36,7.66,2.85,11.58c0.21,1.65-1.03,3.84-2.22,5.27c-10.71,12.83-20.93,26.16-32.66,38
		c-5.17,5.21-7.07,9.03-5.72,16.26c4.55,24.28,2.91,48.33-5.59,71.67c-31.71,87.02-139.11,122.83-217.72,71.35
		c-14.26-9.34-23.41-11.84-38.99-2.83c-26.81,15.49-57.62,20.87-88.05,25.62c-14.09,2.2-24.1,8.59-29.61,21.8
		c-13.88,33.29,8.62,66.71,44.58,66.8c32.17,0.08,59.83-12,85.43-30.13c4.11-2.91,8.39-6.66,12.44-1.14
		c4.16,5.67-1.11,8.84-4.98,11.59c-27.73,19.73-57.6,32.9-92.65,32.12c-32.08-0.72-51.35-15.08-59.9-46.05
		c-0.67-2.43-2.46-5.84-4.42-6.4C1281.77,1714.6,1269.24,1711.75,1256.4,1708.57z M1948.69,2277c2.4-61.41,0.74-122.87-5.13-184.19
		c-4.19-43.77-9.28-87.31-21.72-129.63c-9.28-31.57-24.35-59.43-54.05-76.42c-16.98-9.71-35.47-14.59-55.88-13.41
		c0.85,6.27,1.59,11.35,2.23,16.44c0.83,6.56,2.91,11.17,9.77,14.81c16.02,8.51,25.98,33.68,21.98,51.3
		c-4.07,17.91-19.5,31.67-38.04,33.93c-5.77,0.7-24.28,9.73-28.93,13.78c-2.42,2.1-5.12,3.98-7.94,5.5
		c-15.69,8.44-31.61,7.51-48.13,0.42c-14.3,28.67-47.06,34.89-71.69,18.74c-14.46,7.29-27.67,13.95-41.49,20.92
		c1.88,4.97,5.2,12.06,7.06,19.51c0.79,3.18-1.48,7.12-2.36,10.71c-3.06-1.93-7.08-3.2-8.97-5.94c-2.68-3.89-3.8-8.86-5.6-13.37
		c-10.44-26.25-22.93-51.38-40.24-73.91c-19.1-24.86-42.19-39.35-75.58-35.83c-35,3.69-59.16,23.81-62.72,58.8
		c-1.52,14.92-0.53,30.49,1.93,45.33c7.83,47.28,26.18,91.3,43.99,135.45 M1783.16,2468.84c9.74-3.91,21.22-5.17,31.82-4.81
		c11.83,0.41,23.5,4.33,35.33,6.09c9.55,1.42,16.08-3.67,20.42-11.75c4.89-9.09,3.7-17.98-3.15-26.09
		c-6.1-7.23-13.51-9.93-22.49-6.16c-9.53,4.01-18.66,9.17-28.45,12.33c-12.13,3.92-24.63,8-37.2,8.9
		c-14.92,1.07-27.35-11.47-29.98-26.6c-2.33-13.37,3.8-24.7,18.45-30.38c9.51-3.69,19.89-5.16,29.92-7.43
		c5.65-1.28,11.63-1.48,17.02-3.41c9.1-3.27,11.46-10.46,8.12-21.65c-3-10.08-7.95-12.99-17.65-12.07
		c-12.22,1.16-24.51,1.71-36.78,2.09c-22.23,0.69-38.37-9.55-49.4-28.44c-5.7-9.77-12.08-19.25-16.74-29.51
		c-18.42-40.64-36.22-81.55-54.38-122.31c-6.45-14.47-13.56-28.66-19.69-43.26c-1.29-3.07,0.37-7.37,0.68-11.11
		c3.34,1.37,6.71,2.66,10,4.14c2.43,1.09,4.68,3.32,7.14,3.51c30.42,2.44,60.81,1.95,90.77-4.14c28.12-5.71,54.84-14.72,75.76-36.18
		c9.17-9.41,13.19-19.43,9.74-32.25c-0.75-2.78-1.63-5.94-0.97-8.55c0.58-2.27,3.06-5.32,5.05-5.61c2.02-0.29,5.09,1.92,6.54,3.88
		c1.41,1.91,1.63,4.87,1.88,7.42c2.03,20.91,4.95,41.79,5.7,62.74c2.62,73.94-3.21,147.32-16.16,220.17
		c-0.59,3.31,0.11,8.07,2.17,10.44c10.06,11.52,13.82,24.52,8.1,38.59c-5.78,14.21-19.19,16.55-32.89,18.17
		c-9.55,1.13-19.14,3.23-28.25,6.28c-6.33,2.12-12.46,6.3-11.61,14.72c0.92,9.21,7.89,17.04,16.43,18c4.4,0.49,9.29,0.47,13.4-0.95
		c10.66-3.68,21-8.29,31.49-12.48c7.19-2.87,14.24-6.36,21.68-8.31c14.05-3.7,25.56,1.23,34.07,12.73
		c9.18,12.4,9.51,25.85,2.8,39.34c-6.15,12.36-16.2,19.49-30.42,18.19c-9.93-0.91-19.69-3.55-29.61-4.69
		c-8.28-0.95-16.83-1.98-25-0.94 M1549.35,1658.05c70.69,1.11,132.24-56.56,134.48-123.86c2.45-73.67-57.93-133.98-132.21-134.96
		c-73.78-0.98-134.42,56.44-135.68,128.82C1414.71,1598.43,1474.69,1656.88,1549.35,1658.05z M1442.13,1626.74
		c-1.07-3.58-1.08-3.94-1.26-4.16c-1.39-1.78-2.8-3.55-4.24-5.28c-19.46-23.42-32.33-50.5-31.33-80.68
		c0.7-20.99-9.29-30.36-24.69-38.62c-3.99-2.14-7.94-4.38-12.01-6.36c-62.42-30.28-138.51-3.72-168.12,58.99
		c-18.16,38.46-7.11,73.49,15.01,106.1c19.33,28.5,46.88,44.59,81.66,48.97c0.73-2.95,1.39-5.39,1.95-7.86
		c5.65-24.9,18.88-36.52,44.28-40.77c15.91-2.66,31.87-5.91,47.24-10.71C1408.04,1640.92,1424.81,1633.44,1442.13,1626.74z
		 M1448.93,2186.81c1.08-6.32-2.52-13.45-3.95-20.2c-0.91,0.17-1.81,0.34-2.72,0.51c1.84,24.46,0.4,48.44-8.38,71.65
		 M1713.04,1990.25c0.44-16.24-6.02-27.93-18.41-33.31c-13.79-6-31.82-2.67-41.86,8.57c-2.1,2.36-2.57,7.08-2.21,10.56
		c0.98,9.52,4.33,19.03,3.84,28.39c-0.48,8.94,3.24,13.1,10.06,16.46C1688.07,2032.53,1712.31,2017.23,1713.04,1990.25z
		 M1643.35,1999.76c0.09-18.04-9.88-33.93-23.56-37.57c-14.96-3.97-33.85,3.85-40.55,17.66c-1.61,3.32-1.55,8.8,0.1,12.11
		c6.2,12.42,13.12,24.51,20.39,36.34c1.64,2.67,5.71,5.36,8.72,5.43C1627.4,2034.18,1643.26,2018.39,1643.35,1999.76z
		 M1780.59,1968.75c-0.16-23.68-24.89-40.18-46.76-31.19c-12.31,5.06-17.41,18.14-13.08,30.5c2.4,6.87,2.37,14.56,4.15,21.7
		c0.8,3.21,2.61,7.29,5.21,8.75C1753.79,2011.83,1780.78,1995.75,1780.59,1968.75z M1792.24,1976.58
		c16.5,3.09,30.23-2.2,37.68-13.73c6.76-10.46,5.32-27.22-3.37-39.2c-10.73-14.81-32.33-16.78-44.57-3.25
		c-3.07,3.4-5.78,12.16-3.97,14.13C1789.08,1946.55,1793.45,1960.31,1792.24,1976.58z"/>
	<path class="st1" d="M1256.4,1708.57c12.85,3.18,25.37,6.03,37.7,9.57c1.96,0.56,3.75,3.98,4.42,6.4
		c8.55,30.97,27.82,45.34,59.9,46.05c35.05,0.78,64.92-12.39,92.65-32.12c3.87-2.75,9.14-5.93,4.98-11.59
		c-4.05-5.51-8.33-1.77-12.44,1.14c-25.6,18.14-53.27,30.22-85.43,30.13c-35.96-0.09-58.46-33.51-44.58-66.8
		c5.51-13.21,15.52-19.6,29.61-21.8c30.43-4.74,61.24-10.13,88.05-25.62c15.59-9,24.73-6.51,38.99,2.83
		c78.6,51.48,186.01,15.66,217.72-71.35c8.5-23.34,10.14-47.38,5.59-71.67c-1.35-7.23,0.55-11.05,5.72-16.26
		c11.73-11.83,21.95-25.17,32.66-38c1.19-1.43,2.43-3.61,2.22-5.27c-0.49-3.92-1.85-7.73-2.85-11.58c-3.02,2.19-7.57,3.74-8.79,6.67
		c-7.12,17.1-20.39,28.69-34.5,41.44c-11.38-27.41-27.87-49.72-49.95-65.31c6.64-14.79,13.05-28.67,19.07-42.72
		c2-4.66,2.79-10.62-3.76-11.61c-2.43-0.37-7.25,4.56-8.37,7.94c-4.53,13.6-9.54,26.7-20.47,37.36
		c-24.59-13.46-50.59-20.17-78.36-19.5c-1.29,0.03-2.59-0.01-3.88,0.06c-17.02,0.88-17.97,0.31-19.13-17.07
		c-0.58-8.69-0.17-17.47,0.19-26.19c0.21-5.13,2.33-11.42-5.51-11.85c-7.52-0.41-7.35,6.24-7.29,11.25
		c0.2,15.74,0.88,31.47,1.41,48.44c-26.02,6.98-50.47,20.87-72.08,43.62c-8.91-10.67-17.32-20.69-25.64-30.78
		c-1.43-1.73-2.03-4.5-3.77-5.56c-3.08-1.88-6.73-2.82-10.15-4.16c-0.19,3.73-1.99,8.62-0.29,10.99
		c8.08,11.25,17.05,21.88,25.89,32.58c1.61,1.95,4.06,3.19,4.97,3.88c-9.14,19.74-17.6,37.99-25.78,55.66
		c-12.53-6.62-26.37-14.08-40.37-21.23c-3.71-1.9-7.82-3.71-11.88-4.08c-12.04-1.11-14.79-8.64-14-18.84
		c0.97-12.55,2.52-25.06,3.1-37.63c0.16-3.42-1.39-9.07-3.69-10.04c-5.33-2.23-8.22,1.91-8.75,7.17
		c-1.79,17.56-3.48,35.12-5.29,53.59c-23.33-1.6-47.24,2.56-71.12,14.12c-8.22-16.07-16.29-31.76-24.27-47.5
		c-2.21-4.35-5.06-8.91-10.03-4.93c-2.08,1.66-2.61,7.85-1.25,10.77c7.35,15.81,15.52,31.24,23.93,47.85
		c-22.76,14.8-41.18,34.24-53.15,59.61c-17.66-5.32-29.57-16.55-39.65-30.51c-2.03-2.81-7.26-6.16-9.65-5.33
		c-6.45,2.25-4.34,7.5-1.44,11.88c11.19,16.92,25.82,29.66,44.06,35.84c-0.81,17.36-1.58,33.89-2.41,51.59
		c-76.89-16.31-143.12-51.07-191.25-116.7c19.9-16.77,39.38-32.3,57.79-49c13.86-12.57,26.58-26.44,39.4-40.11
		c11.94-12.73,13.47-26.4,5.31-42.62c-16.14-32.04-32.03-64.32-45.68-97.46c-7.13-17.31-9.7-36.57-13.46-55.13
		c-1.48-7.33,1.45-11.91,10.78-13.06c47.12-5.82,94.1-12.73,141.17-18.95c22.76-3.01,38.11-14.65,45.66-36.49
		c9.51-27.51,18.39-55.27,29.01-82.35c7.76-19.79,17.84-38.68,27.03-57.9c3.27-6.84,8.63-8.15,15.25-4.7
		c31.21,16.29,62.47,32.45,93.57,48.95c10.56,5.6,20.61,12.17,31.02,18.08c18.73,10.64,38.29,11.45,56.19-0.19
		c23.54-15.31,45.89-32.47,68.57-49.09c19.57-14.34,38.84-29.1,58.34-43.54c3.35-2.48,7.04-4.67,10.85-6.37
		c16.03-7.13,26.05-2.61,33.1,13.27c17.32,38.99,34.65,77.99,52.84,116.58c15,31.82,38.01,40.41,78.68,34.92
		c41.86-5.66,84.03-9.03,126.09-13.21c4.38-0.44,8.88,0.39,15.46,0.75c-1.36,20.64-1.89,40.58-4.16,60.32
		c-4.12,35.91-9.45,71.67-13.69,107.56c-0.45,3.81,2.24,8.66,4.78,12.04c16.44,21.94,38.35,36.6,64.2,44.8
		c18.73,5.94,38.32,9.16,57.04,15.12c31.07,9.89,25.55,10.35,18.1,33.81c-13.4,42.2-34.73,79.94-66.21,111.48
		c-4.43,4.44-6.23,8.78-3.3,14.61c8.66,17.22,16.7,34.78,26.09,51.59c7.07,12.67,15.63,24.54,23.95,36.47
		c4.22,6.05,3.76,11.12-2.22,14.81c-19.99,12.34-40.12,24.44-60.4,36.29c-4.1,2.39-9.12,3.22-13.69,4.81
		c-34.02,11.85-38.63,18.12-37.94,54.03c0.45,23.28,1.18,46.58,2.73,69.81c0.54,7.98-2.55,12.17-9.29,12.79
		c-14.99,1.37-30.38,3.84-45.05,1.81c-18.03-2.49-35.56-8.91-53.14-14.17c-2.63-0.79-6.25-4.53-6.25-6.9
		c0-19.63,0.75-39.26,1.27-58.46c10.01-1.46,18.56-1.63,26.43-4.03c45.87-13.95,60.71-76.36,26.89-112
		c-23.15-24.4-65.81-25.34-89.31-1.7c-1.75,1.76-1.43,5.56-2.08,8.41c3.09,0.54,6.66,2.34,9.17,1.37c6.9-2.66,13.11-7.06,20.01-9.72
		c27.92-10.77,51.65-0.36,63.24,27.34c13.06,31.22-4.26,68.7-35.69,74.31c-9.9,1.77-20.76-2.27-31.23-3.06
		c-3.89-0.29-7.9,1.11-11.85,1.74c2.2,3.3,3.71,8.26,6.77,9.53c5.61,2.35,5.92,5.67,5.38,10.57c-6.08,55.38-2.57,110.45,5.44,165.38
		c0.55,3.77,0.64,7.61,0.89,10.7c-8.21,3.44-16.33,5.39-22.62,9.9c-6.3,4.51-10.77,11.58-16.97,18.59
		c-22.7-6.94-42.71-1.82-55.04,23.02c-24.43-10.91-46.77-9.61-66.62,11.03c-11.52-9.39-24.58-12.99-39.43-9.74
		c-14.73,3.22-25.89,11.05-32.29,22.26c-14.57-10.28-28.13-22.05-43.66-29.95c-8.9-4.52-12.52-8.94-13.12-18.05
		c-0.37-5.62-1.78-10.61,5.41-13.35c1.63-0.62,3.21-6.24,2.17-7.8c-1.3-1.95-5.59-3.3-8.12-2.76c-6.26,1.34-12.13,4.47-18.39,5.88
		c-14.26,3.21-26.34-6.56-25.64-21.06c0.11-2.26,4.56-5.54,7.51-6.26c45.34-11.07,89.45-25.61,131.26-46.49
		c44.58-22.27,85.76-49.36,119.37-86.79c1-1.12,2.33-1.95,4.44-3.69c1.4,4.84,1.96,9.09,3.87,12.62c1.29,2.38,4.47,3.74,6.8,5.56
		c1.75-2.35,4.79-4.56,5.05-7.07c1.74-16.89-24.28-43.35-40.66-41.4c-2.22,0.26-5.85,3.32-5.77,4.93c0.12,2.47,2.38,5.72,4.66,7.03
		c4.91,2.84,10.41,4.66,17.46,7.65c-7.12,7.5-12.76,14.04-19.01,19.93c-42.04,39.62-91.33,67.37-144.74,88.5
		c-77.22,30.55-157.92,43.99-240.3,47.67c-20.62,0.92-41.96-2.63-62.16-7.47c-21.57-5.17-29.72-19.77-26.86-41.78
		c1.28-9.87,3.77-19.76,7.06-29.16c11.07-31.66,18.46-63.99,20.21-97.54C1255.75,1710.31,1256.25,1709.15,1256.4,1708.57z
		 M1832.02,1623.15c3.17,1.75,5.24,3.55,7.58,4.04c3.52,0.73,8.74,2.14,10.58,0.42c4.71-4.41,0.29-7.9-3.34-10.81
		c-16.66-13.37-39.61-7.76-51.48,13.13c-1.52,2.68,0.18,7.2,0.38,10.86c3.25-1.12,7.11-1.48,9.61-3.52
		c4.25-3.48,7.64-8.02,11.39-12.12c1.32,0.51,2.64,1.01,3.96,1.52c-0.88,8.56-2.09,17.11-2.44,25.69c-0.11,2.64,1.47,6.26,3.51,7.74
		c1.32,0.96,6.14-0.36,7.16-2.02c2.25-3.69,4.04-8.19,4.27-12.45C1833.56,1638.68,1832.54,1631.66,1832.02,1623.15z"/>
	<path class="st1" d="M1467.19,2189.94c-17.81-44.15-36.16-88.17-43.99-135.45c-2.46-14.84-3.45-30.42-1.93-45.33
		c3.56-34.99,27.73-55.11,62.72-58.8c33.39-3.52,56.48,10.98,75.58,35.83c17.31,22.53,29.8,47.66,40.24,73.91
		c1.79,4.51,2.91,9.48,5.6,13.37c1.89,2.74,5.9,4.01,8.97,5.94c0.88-3.59,3.15-7.54,2.36-10.71c-1.86-7.45-5.18-14.53-7.06-19.51
		c13.82-6.97,27.03-13.63,41.49-20.92c24.63,16.15,57.39,9.93,71.69-18.74c16.52,7.09,32.43,8.01,48.13-0.42
		c2.82-1.52,5.52-3.39,7.94-5.5c4.65-4.05,23.16-13.08,28.93-13.78c18.54-2.26,33.97-16.02,38.04-33.93
		c4-17.62-5.96-42.79-21.98-51.3c-6.86-3.64-8.94-8.25-9.77-14.81c-0.64-5.09-1.38-10.18-2.23-16.44
		c20.41-1.17,38.91,3.7,55.88,13.41c29.7,16.98,44.77,44.85,54.05,76.42c12.44,42.32,17.53,85.86,21.72,129.63
		c5.87,61.31,7.53,122.78,5.13,184.19"/>
	<path class="st1" d="M1796.81,2477.48c8.17-1.04,16.72-0.02,25,0.94c9.92,1.14,19.68,3.78,29.61,4.69
		c14.22,1.3,24.27-5.83,30.42-18.19c6.7-13.48,6.38-26.94-2.8-39.34c-8.51-11.49-20.02-16.42-34.07-12.73
		c-7.44,1.96-14.49,5.44-21.68,8.31c-10.49,4.19-20.83,8.8-31.49,12.48c-4.11,1.42-8.99,1.44-13.4,0.95
		c-8.54-0.95-15.51-8.79-16.43-18c-0.85-8.42,5.28-12.6,11.61-14.72c9.11-3.05,18.7-5.16,28.25-6.28
		c13.7-1.62,27.11-3.96,32.89-18.17c5.72-14.07,1.96-27.07-8.1-38.59c-2.07-2.37-2.76-7.12-2.17-10.44
		c12.95-72.85,18.78-146.23,16.16-220.17c-0.74-20.96-3.67-41.84-5.7-62.74c-0.25-2.55-0.47-5.51-1.88-7.42
		c-1.45-1.97-4.52-4.18-6.54-3.88c-1.99,0.29-4.47,3.34-5.05,5.61c-0.66,2.61,0.22,5.77,0.97,8.55c3.46,12.83-0.57,22.85-9.74,32.25
		c-20.92,21.46-47.64,30.47-75.76,36.18c-29.95,6.08-60.35,6.57-90.77,4.14c-2.45-0.2-4.7-2.42-7.14-3.51
		c-3.29-1.48-6.67-2.77-10-4.14c-0.3,3.74-1.97,8.04-0.68,11.11c6.13,14.6,13.24,28.79,19.69,43.26
		c18.16,40.75,35.96,81.67,54.38,122.31c4.65,10.26,11.03,19.74,16.74,29.51c11.02,18.89,27.17,29.13,49.4,28.44
		c12.27-0.38,24.57-0.93,36.78-2.09c9.69-0.92,14.64,2,17.65,12.07c3.34,11.19,0.98,18.38-8.12,21.65
		c-5.39,1.93-11.37,2.13-17.02,3.41c-10.03,2.28-20.41,3.74-29.92,7.43c-14.65,5.68-20.77,17.01-18.45,30.38
		c2.63,15.13,15.06,27.67,29.98,26.6c12.57-0.9,25.07-4.98,37.2-8.9c9.79-3.16,18.91-8.32,28.45-12.33
		c8.98-3.77,16.39-1.07,22.49,6.16c6.84,8.11,8.03,17,3.15,26.09c-4.34,8.08-10.88,13.17-20.42,11.75
		c-11.83-1.76-23.5-5.68-35.33-6.09c-10.6-0.36-22.08,0.9-31.82,4.81"/>
	<path class="st2" d="M1549.35,1658.05c-74.66-1.18-134.64-59.62-133.41-130c1.26-72.38,61.9-129.8,135.68-128.82
		c74.28,0.99,134.66,61.29,132.21,134.96C1681.59,1601.5,1620.04,1659.17,1549.35,1658.05z M1586.76,1434.85
		c-14.02-0.28-24.95,9.9-25.34,23.6c-0.38,13,10.25,24.17,23.42,24.61c14.42,0.49,25.04-9.16,25.47-23.14
		C1610.75,1445.64,1600.88,1435.13,1586.76,1434.85z"/>
	<path class="st1" d="M1221.92,2466.97c2.46,0.22,5.42,0.89,7.12,2.46"/>
	<path class="st2" d="M1442.13,1626.74c-17.32,6.7-34.09,14.18-51.51,19.62c-15.37,4.81-31.33,8.05-47.24,10.71
		c-25.39,4.25-38.63,15.87-44.28,40.77c-0.56,2.47-1.22,4.91-1.95,7.86c-34.78-4.39-62.33-20.48-81.66-48.97
		c-22.12-32.61-33.17-67.64-15.01-106.1c29.6-62.71,105.7-89.27,168.12-58.99c4.07,1.98,8.02,4.22,12.01,6.36
		c15.4,8.26,25.38,17.63,24.69,38.62c-1,30.19,11.87,57.26,31.33,80.68c1.44,1.74,2.84,3.51,4.24,5.28
		C1441.05,1622.8,1441.06,1623.16,1442.13,1626.74z M1329.1,1556.87c-0.18-12.78-10.11-22.4-22.99-22.27
		c-12.89,0.13-22.67,10.23-22.22,22.96c0.44,12.47,10.12,21.96,22.45,22.02C1318.95,1579.65,1329.27,1569.35,1329.1,1556.87z"/>
	<path class="st0" d="M1434.1,2238.77c8.78-23.22,10.22-47.2,8.38-71.65c0.91-0.17,1.81-0.34,2.72-0.51
		c1.42,6.75,5.03,13.88,3.95,20.2"/>
	<path class="st3" d="M1713.04,1990.25c-0.73,26.98-24.98,42.28-48.59,30.66c-6.82-3.36-10.53-7.52-10.06-16.46
		c0.5-9.36-2.86-18.87-3.84-28.39c-0.36-3.47,0.11-8.2,2.21-10.56c10.03-11.24,28.06-14.57,41.86-8.57
		C1707.02,1962.32,1713.48,1974.01,1713.04,1990.25z"/>
	<path class="st3" d="M1643.35,1999.76c-0.09,18.64-15.95,34.42-34.9,33.97c-3.01-0.07-7.08-2.76-8.72-5.43
		c-7.26-11.84-14.19-23.92-20.39-36.34c-1.65-3.31-1.71-8.79-0.1-12.11c6.69-13.82,25.59-21.64,40.55-17.66
		C1633.47,1965.82,1643.44,1981.72,1643.35,1999.76z"/>
	<path class="st3" d="M1780.59,1968.75c0.18,27.01-26.8,43.09-50.49,29.77c-2.6-1.46-4.41-5.54-5.21-8.75
		c-1.78-7.14-1.75-14.83-4.15-21.7c-4.32-12.36,0.77-25.44,13.08-30.5C1755.7,1928.56,1780.43,1945.06,1780.59,1968.75z"/>
	<path class="st3" d="M1792.24,1976.58c1.21-16.27-3.16-30.04-14.22-42.05c-1.82-1.97,0.89-10.73,3.97-14.13
		c12.24-13.53,33.84-11.56,44.57,3.25c8.68,11.98,10.12,28.75,3.37,39.2C1822.47,1974.39,1808.74,1979.68,1792.24,1976.58z"/>
	<path d="M1832.02,1623.15c0.53,8.52,1.55,15.54,1.17,22.48c-0.23,4.26-2.03,8.76-4.27,12.45c-1.01,1.66-5.84,2.98-7.16,2.02
		c-2.04-1.48-3.61-5.11-3.51-7.74c0.35-8.58,1.56-17.13,2.44-25.69c-1.32-0.51-2.64-1.01-3.96-1.52c-3.75,4.1-7.14,8.63-11.39,12.12
		c-2.49,2.04-6.36,2.4-9.61,3.52c-0.21-3.66-1.91-8.18-0.38-10.86c11.87-20.89,34.82-26.5,51.48-13.13
		c3.63,2.91,8.05,6.39,3.34,10.81c-1.83,1.72-7.05,0.31-10.58-0.42C1837.26,1626.7,1835.19,1624.9,1832.02,1623.15z"/>
	<path d="M1586.76,1434.85c14.12,0.28,23.99,10.79,23.55,25.08c-0.43,13.98-11.05,23.62-25.47,23.14
		c-13.17-0.45-23.8-11.62-23.42-24.61C1561.81,1444.75,1572.74,1434.57,1586.76,1434.85z"/>
	<path d="M1329.1,1556.87c0.17,12.47-10.15,22.77-22.75,22.71c-12.34-0.06-22.01-9.55-22.45-22.02
		c-0.45-12.73,9.33-22.84,22.22-22.96C1318.98,1534.48,1328.92,1544.1,1329.1,1556.87z"/>
</g>
<path d="M2789.68,2733.2h-648.55v-272.14c-160.25,198.4-399.32,335.73-737.57,335.73c-679.08,0-1192.83-557-1192.83-1297.09
	c0-740.12,513.76-1297.11,1192.83-1297.11c338.25,0,574.8,137.36,737.57,338.28V268.71h648.55V2733.2z M889.81,1499.69
	c0,376.4,246.71,679.05,635.84,679.05c378.95,0,635.82-289.94,635.82-679.05c0-389.13-256.87-679.08-635.82-679.08
	C1136.52,820.62,889.81,1123.27,889.81,1499.69z"/>
</svg>
