<?xml version="1.0" encoding="utf-8"?>
<!-- Generator: Adobe Illustrator 24.3.0, SVG Export Plug-In . SVG Version: 6.00 Build 0)  -->
<svg version="1.1" id="Layer_1" xmlns="http://www.w3.org/2000/svg" xmlns:xlink="http://www.w3.org/1999/xlink" x="0px" y="0px"
	 viewBox="0 0 3000 3000" style="enable-background:new 0 0 3000 3000;" xml:space="preserve">
<style type="text/css">
	.st0{fill:#FFFFFF;}
	.st1{fill:#CC3A4B;}
	.st2{fill:#EDFF00;}
	.st3{fill:#B17F4A;}
</style>
<g>
	<path d="M1193.65,2643.47c-16.04-13.06-16.92-28.81-14.37-46.2c12.14-82.91,46.03-152.76,120.12-198.19
		c1.71-1.05,3.39-2.17,0.72-0.46c-32.04,1.2-67.65,6.06-102.58,3.08c-65.23-5.57-103.77-51.08-104.21-116.76
		c-0.29-43.9,15.35-82.13,40.62-117.41c5.68-7.93,8.18-18.8,9.99-28.71c3.85-21,4.78-42.6,9.62-63.33
		c8.45-36.21,33.01-55.58,69.64-59.75c9.23-1.05,18.56-1.22,27.85-1.68c40.69-2.02,51.04,5.72,63.81,44.71
		c2.58,7.89,10.46,13.9,14.1,21.63c4.9,10.42,11.59,21.77,11.25,32.52c-0.77,24.44-14.07,44.72-35.47,55.32
		c-24.5,12.13-27.11,31.87-26.66,55.88c12.46-34.75,41-26.04,66.32-26.97c7.51-0.28,20.13-2.49,21.48-6.69
		c9.69-30.08,31.85-41.58,62.13-43.16c1.14-2.38,2.27-4.76,3.41-7.14c-4.49-2.05-9.38-3.5-13.4-6.23
		c-24.26-16.47-24.31-17.09-9.75-43.41c6.38-11.54-3.1-28.62-16.61-32.37c-17.75-4.92-36.07-9.31-52.4-17.45
		c-22.98-11.46-24.75-25.81-8.36-45.57c13.9-16.76,31.08-31.56,41.48-50.21c6.59-11.82,7.95-30.59,3.63-43.58
		c-8.18-24.62-10.47-46.86,2.57-69.99c2.42-4.29,1.07-10.55,2.35-15.68c1.99-7.97,2.39-19.97,7.58-22.87
		c19.68-10.97,24.03-30.93,32.91-48.31c18.75-36.73,42.11-68.11,85.34-78.48c5.56-1.33,10.57-6.77,14.88-11.23
		c27.23-28.23,62.32-34.27,97.92-16.82c6.3,3.09,13.06,5.78,19.9,7.1c37.25,7.2,54.9,29.12,55.92,67.15
		c0.37,13.71,3.48,27.79,7.84,40.86c12.05,36.13,12.32,71.57-2.92,106.65c-10.41,23.95-21.41,47.63-34.23,76.05
		c10.88-8.94,17.67-14.53,24.47-20.11c2.35,0.9,4.71,1.79,7.06,2.69c-5.18,22.02-10.35,44.05-15.53,66.07
		c-2.2-0.46-4.4-0.92-6.61-1.39c4.11-17.4,8.21-34.81,12.32-52.21c-0.93-0.86-1.85-1.73-2.78-2.59
		c-8.91,9.32-18.86,17.91-26.21,28.33c-2.8,3.97-1.68,13.4,1.2,18.22c16.61,27.81,10.69,53.48-17.01,71.04
		c-3.54,2.24-7.66,6.95-7.77,10.63c-0.65,20.72-0.27,41.47,0.07,62.21c0.06,3.46,0.72,9.22,2.67,10
		c30.47,12.16,26.13,44.73,39.72,66.66c0.36,0.58,1.08,0.92,0.77-3.92c36.96-6.25,73.88-12.81,110.93-18.46
		c6.69-1.02,16.69-0.86,20.48,3.17c17.26,18.32,40.96,17.64,62.28,24.01c57.57,17.2,88.14,56.97,84.24,111.09
		c-3.05,42.26-29.16,68.88-64.53,87.03c-48.62,24.96-101.12,28.93-154.74,25.52c-8.74-0.56-17.65,1.56-30.9,2.88
		c5.86,10.17,8.62,17.26,13.28,22.72c56.48,66.13,70.99,144.02,59.59,227.09L1193.65,2643.47z M1392.71,2165.3
		c-12.43,21.47-24.86,42.95-39.51,68.26c35.18-3.26,35.67-33.42,53.92-45.86c-5.83-8.94-10.39-15.93-14.89-22.87
		c8.86,6.86,17.71,13.71,28.15,21.79c2.88-9.92,5.68-19.58,9.9-34.15C1414.66,2157.81,1403.68,2161.55,1392.71,2165.3z
		 M1278.33,2172.62c27.75-13.83,52.34-30.15,51.7-66.16c-0.35-19.75-18.28-30.7-33.48-18.7c-8.17,6.45-13.83,18.08-16.7,28.46
		c-1.57,5.67,3.68,17.98,8.33,19.44c6.33,1.99,15.62-2.42,22.47-6.21c4.7-2.6,7.41-8.82,11-13.42c1.32,19.59-7.21,34.53-25.48,34.23
		c-19.08-0.31-29.9,8.01-41.04,20.83c-13.36,15.37-34.41,16.91-47.65,4.11c-6.85-6.63-12.13-14.88-19.14-23.67
		c12.29,5.55,26.64-11.75,43.54,6.7c-9.59,1.25-14.62,1.9-20.71,2.69c18.56,14.37,34.23,10.82,41.08-8.1
		c8.54-23.58-4.98-45.16-31.48-50.22c-6.12-1.17-12.26-2.28-18.39-3.41c0.82-3.19,1.64-6.38,2.46-9.56
		c14.1,3.93,30.76,4.5,41.59,12.73c11.08,8.43,16.45,24.38,22.14,33.52c0.33-7.4-1.12-19.56,1.78-30.58
		c5.89-22.35-1-37.52-23.53-42.97c-10.82-2.62-22.21-2.89-34.4-4.35c24.07-16.16,44.36-9.79,74.44,22.44
		c6.22-2.89,12.57-5.85,18.75-8.72c-6.72-42.97-18.13-52.26-59.32-48.91c-7.84,0.64-15.69,1.32-23.54,1.8
		c-29.83,1.81-51.05,16.33-57.36,45.66c-7.57,35.2-11.8,71.12-17.42,106.38c-0.16-0.12-3.13-2.36-6.1-4.59
		c-27.01,36.67-40.32,75.77-39.27,115.28c1.36,50.98,29.11,88.68,77.03,101.19c41.07,10.73,82.31,7.85,122.63-5.05
		c5.1-1.63,11.25-6.6,12.9-11.4c13.6-39.63,13.09-79.39,1.53-119.78c-4.57-15.96-13.12-19.55-27.65-18.97
		c-15.99,0.63-11.93,12.91-14.04,21.74c-3.2,13.38-6.29,26.78-9.43,40.18c-3.12-0.74-6.24-1.47-9.36-2.21
		c7.52-40.36,15.03-80.73,22.55-121.09L1278.33,2172.62z M1531.01,2200.87c-10.48-11.41-15.65-1.1-21.76,5.32
		c-18.97,19.97-37.92,39.95-60,63.21c-14.91-27.65-27.26-50.57-41.29-76.59c-35.7,61.35-74.18,118.2-82.84,188.69
		c-0.72,5.85-4.25,13.77-8.9,16.35c-69.14,38.34-108.97,98.04-123.5,174.04c-11.29,59.08-14.36,54.79,40.07,88.42
		c10.89,6.73,22.55,12.37,34.3,17.49c116.96,51.06,239.76,57.11,364.05,43.07c42.15-4.76,83.33-18.81,124.57-30.01
		c6.3-1.71,15.11-11.18,14.97-16.86c-1.02-39.76-1.1-79.95-7.32-119.07c-6.49-40.82-30.06-74.48-55.06-107.54
		c-13.19-17.43-21.55-18.77-38.73-9.09c-32.18,18.14-64.59,2.07-73.98-34.14c-1.47-5.67-8.77-13.57-13.82-13.92
		c-23.55-1.64-34.58-15.28-38.38-36.27c-5.42-29.92,3.47-49.32,23.77-60.83c21.67-12.29,42.33-26.36,63.43-39.65
		c-18.56,3.85-36.45,9.79-54.45,15.36c-16.29,5.03-26.64,2.48-29.85-17.79c-2.75-17.37-10.42-33.97-15.9-50.93
		c4.9,5.92,11.57,11.13,14.33,17.92c6.03,14.8,10.08,30.42,15.57,47.69c22.27-7.14,44.45-10.42,62.23-21.05
		c17.52-10.48,39.7-26.56,43.17-43.57c3.82-18.76-11.33-41.38-17.97-61.58c-7.45,10.28-10.68,19.86-16.72,22.22
		c-27.7,10.81-56.27,19.38-84.33,29.32C1540.99,2193.07,1536.2,2197.54,1531.01,2200.87z M1273.59,2755.33L1273.59,2755.33z
		 M1619.76,2033.84c25.23,3.9,36.12-2.15,38.04-26.91c0.62-7.96-0.82-20.5-5.8-23.51c-8.65-5.23-20.79-4.66-35.03-7.14
		c9.25-5.86,16.54-10.49,23.08-14.63c1.79-14.07,3.48-27.43,5.7-44.93c-13.59,16.74-24.8,30.55-36.01,44.36
		c-2.3-2.02-4.59-4.04-6.89-6.07c15.54-20.35,31.08-40.7,46.62-61.05c2.24,1.25,4.48,2.5,6.73,3.75c0,9.7,0,19.41,0,35.24
		c13.72-30.62,25.27-55.16,35.76-80.15c12.06-28.74,13-58.56,4.19-88.24c-1.81-6.09-8.87-10.61-16.1-18.79
		c6.79-17.48-11.71-25.42-24.5-37.45c-2.87,6.86-5.34,12.74-8.1,19.32c-6.19-13.24-8.17-27.88-16.27-33.2
		c-75.76-49.72-164.39-23.57-203.45,57.52c-7.71,16-20.66,29.42-30.65,44.39c-3.51,5.26-5.43,11.58-9.5,20.58
		c49.94-21.86,67.96-18.59,107.83,17.04c5.21-3.59,10.26-7.62,15.8-10.78c34.5-19.66,79.45-10.73,99.8,19.64
		c20.26,30.25,13.59,76.59-14.32,99.4c-28.26,23.1-74.43,20.52-99.01-9c-18.59-22.32-44.48-22.92-68.27-28.8
		c-7.2-1.78-23.22,8.5-25.28,15.99c-2.13,7.77,5.31,22.95,12.96,27.5c11.6,6.9,26.85,8.6,40.82,10.35
		c19.82,2.48,40.08,1.71,59.82,4.59c50.9,7.43,87.27,44.16,93.39,92.55c5.89,46.64-22.44,92.59-68.53,112.54
		c-36.75,15.91-70.86,9.1-101.16-10.21c-27.72,35.4-12.24,64.6,11.71,95.65c9.93-10.8,19.5-19.58,27.11-29.82
		c20.75-27.93,47.37-43.89,82.64-45.73c10.49-0.55,21.09-4.01,31.13-7.58c36.59-13.02,36.31-13.23,31.95-51.9
		c-1.2-10.63-0.51-21.46-1.34-32.14C1623.24,2068.4,1621.34,2050.63,1619.76,2033.84z M1667.75,2404.71
		c7.45,21.07,21.88,18.12,37.19,15.22c14.48-2.75,29.37-5.7,43.95-5.16c49.46,1.82,97.43-4.67,141.42-27.58
		c34.9-18.17,58.11-46.34,56.13-88.85c-1.95-41.86-24.34-70.44-62.52-83.79c-24.51-8.57-51.25-13.04-77.26-14.46
		c-33.04-1.8-39.5,6.97-39.53,41.01c0,3.49,0.63,6.98,0.93,10.1c19.55-5.33,38.53-10.5,57.51-15.67c0.65,2.15,1.3,4.3,1.95,6.45
		c-39.95,15.39-82.22,26.26-116.35,54.88c-51.34-51.69-61.39-38.63-105.98-19.44c-19.04,8.19-29.66,23.63-24.03,46.06
		c15.02-9.28,29.59-18.28,44.16-27.28c0.91,1.58,1.82,3.17,2.73,4.75c-58.46,44.36-49.54,54.42-30.57,81.54
		c25.07-27.33,33.38-32.43,50.11-30.77c-42.61,31.87-50.3,46.69-35.07,67.65c12.59,17.33,33.42,20.15,58.64,3.83
		c-14.23,0.7-23.02,1.13-31.82,1.56c-0.64-1.57-1.28-3.15-1.92-4.72C1647.29,2415.07,1657.15,2410.08,1667.75,2404.71z
		 M1406.39,2099.62c3.65,8.83,5.38,16.86,9.88,22.8c4.54,6,12.37,9.4,17.82,14.87c29.08,29.17,70.34,36.76,108.66,19.58
		c37.55-16.84,59.98-55.13,56.83-97.05c-3.06-40.77-28.19-72.11-69.63-82.23c-18.41-4.5-38.41-2.12-57.24-5.41
		c-22.68-3.96-46.79-6.99-66.62-17.39c-13.34-7-22.36-8.94-31.46,0.33c-13.77,14.04-25.52,30.06-38.15,45.22
		c-11.77,14.13-10.51,25.72,6.28,34.11c13.22,6.61,27.76,11.77,42.29,14.35c55.04,9.76,109.24,5.46,162.97-10.59
		c9.5-2.84,27.88,0.09,31.35,6.34c5.88,10.62,7.4,27.76,2.8,38.86c-4.1,9.88-18.28,20.24-29.22,21.79
		c-36.41,5.14-73.34,7.4-110.14,8.48C1432.84,2113.97,1422.65,2106.2,1406.39,2099.62z M1613.42,1883.31
		c-0.3-38.98-25.04-61.82-66.34-61.27c-35.89,0.48-62.57,27.21-62.38,62.51c0.19,34.62,32.88,64.54,70.02,64.08
		C1589.56,1948.19,1613.72,1921.3,1613.42,1883.31z M1477.33,1908.91c1.93-18.13,0.85-35.1,6.11-49.81
		c5.14-14.37,1.32-23-8.06-31.76c-21.84-20.4-63.44-19.46-84.2,1.41c-18.72,18.81-18.92,61.23-0.32,75.18
		c18.04-3.43,32.25-9,45.94-7.95C1450.93,1897.06,1464.57,1904.58,1477.33,1908.91z M1644.07,2249.46
		c16.05,5.1,34.85,5.48,43.97,15.08c21.91,23.05,40.41,10.69,59.85,0c4.14-2.28,7.71-9.88,7.58-14.93
		c-0.65-25.16,4.89-47.84,23.76-66.86C1712.9,2180.4,1658.33,2208.48,1644.07,2249.46z M1370.1,2240.47
		c-44.59,5.99-8.28-23.01-15.15-33.98c-17.89,0-35.89,0-57.53,0c30.82,26.7,31.89,61.88,39.59,97.43
		C1348.98,2280.97,1359.36,2261.07,1370.1,2240.47z M1497.06,2108.24c18.28-2.95,34.04-5.49,51.86-8.37
		c-2.47-17.75-4.67-33.52-7.03-50.49c-10.41,2.24-19.25,4.15-28.1,6.04c-8.73,1.87-17.46,3.71-27.62,5.87
		C1489.8,2076.93,1493.11,2091.21,1497.06,2108.24z M1435.72,2062.66c6.26,45.83,20.42,56.54,53.31,40.86
		c-3.68-13.85-7.44-27.98-10.87-40.86C1462.76,2062.66,1450,2062.66,1435.72,2062.66z M1632.07,1654.93
		c17.57,24.96,32.58,46.29,50.5,71.75C1691.66,1683.63,1673,1656.93,1632.07,1654.93z M1610.83,1642.91
		c-34.55-13.58-68.29-5.22-80.74,19.26C1558.63,1665.43,1587.22,1667.48,1610.83,1642.91z M1575.47,2377.15
		c-2.78-25.9-5.37-49.98-8.18-76.17C1542.07,2331.26,1546.19,2364.68,1575.47,2377.15z M1556.39,2095.67
		c22.15-11.29,30.14-30.91,18.7-45.35c-3.49-4.4-11.7-6.17-17.95-6.71c-2.37-0.21-7.91,6.69-7.59,9.91
		C1550.9,2067.45,1553.89,2081.22,1556.39,2095.67z M1638.49,1684.43c-8.08-37.4-18.01-40.7-47.83-16.94
		C1606.38,1673.07,1621.35,1678.36,1638.49,1684.43z M1429.52,2105.13c2.39-1.15,4.77-2.3,7.16-3.46
		c-5.38-13.77-1.29-32.74-18.43-40.04c-2.05,1.07-4.1,2.14-6.15,3.2C1417.91,2078.27,1423.71,2091.7,1429.52,2105.13z"/>
	<path class="st0" d="M1273.59,2755.33L1273.59,2755.33z"/>
	<path class="st1" d="M1530.36,2200.14c5.49,16.94,13.15,33.54,15.91,50.91c3.21,20.27,13.56,22.83,29.85,17.79
		c18.01-5.56,35.9-11.51,54.45-15.36c-21.1,13.29-41.76,27.36-63.43,39.65c-20.3,11.51-29.19,30.91-23.77,60.83
		c3.8,20.99,14.83,34.63,38.38,36.27c5.06,0.35,12.35,8.26,13.82,13.92c9.39,36.2,41.8,52.28,73.98,34.14
		c17.18-9.69,25.55-8.34,38.73,9.09c25.01,33.05,48.58,66.72,55.06,107.54c6.22,39.12,6.3,79.31,7.32,119.07
		c0.15,5.68-8.67,15.15-14.97,16.86c-41.24,11.21-82.43,25.25-124.57,30.01c-124.29,14.04-247.09,7.99-364.05-43.07
		c-11.75-5.13-23.42-10.77-34.3-17.49c-54.42-33.63-51.36-29.34-40.07-88.42c14.53-75.99,54.35-135.7,123.5-174.04
		c4.65-2.58,8.19-10.5,8.9-16.35c8.66-70.49,47.15-127.34,82.84-188.69c14.03,26.02,26.38,48.94,41.29,76.59
		c22.08-23.26,41.04-43.24,60-63.21c6.1-6.43,11.28-16.74,21.76-5.32L1530.36,2200.14z"/>
	<path class="st2" d="M1619.76,2033.84c1.59,16.79,3.49,34.57,4.86,52.38c0.83,10.69,0.14,21.51,1.34,32.14
		c4.37,38.67,4.64,38.88-31.95,51.9c-10.04,3.57-20.63,7.03-31.13,7.58c-35.28,1.84-61.89,17.8-82.64,45.73
		c-7.61,10.24-17.18,19.02-27.11,29.82c-23.94-31.05-39.43-60.25-11.71-95.65c30.31,19.31,64.41,26.12,101.16,10.21
		c46.09-19.95,74.42-65.9,68.53-112.54c-6.11-48.39-42.48-85.12-93.39-92.55c-19.74-2.88-40-2.11-59.82-4.59
		c-13.97-1.75-29.22-3.45-40.82-10.35c-7.65-4.55-15.09-19.74-12.96-27.5c2.06-7.48,18.07-17.77,25.28-15.99
		c23.79,5.88,49.68,6.48,68.27,28.8c24.58,29.52,70.75,32.09,99.01,9c27.9-22.81,34.58-69.16,14.32-99.4
		c-20.35-30.37-65.3-39.3-99.8-19.64c-5.54,3.16-10.59,7.19-15.8,10.78c-39.87-35.64-57.89-38.91-107.83-17.04
		c4.08-9,5.99-15.33,9.5-20.58c10-14.97,22.95-28.39,30.65-44.39c39.07-81.09,127.69-107.23,203.45-57.52
		c8.1,5.32,10.09,19.96,16.27,33.2c2.76-6.58,5.22-12.46,8.1-19.32c12.79,12.03,31.29,19.97,24.5,37.45
		c7.23,8.18,14.3,12.7,16.1,18.79c8.81,29.68,7.87,59.5-4.19,88.24c-10.49,24.99-22.04,49.53-35.76,80.15c0-15.83,0-25.53,0-35.24
		c-2.24-1.25-4.48-2.5-6.73-3.75c-15.54,20.35-31.08,40.7-46.62,61.05c2.3,2.02,4.59,4.04,6.89,6.07
		c11.21-13.81,22.43-27.62,36.01-44.36c-2.22,17.5-3.92,30.87-5.7,44.93c-6.54,4.14-13.83,8.77-23.08,14.63
		c14.24,2.48,26.39,1.92,35.03,7.14c4.99,3.01,6.42,15.55,5.8,23.51C1655.87,2031.69,1644.98,2037.74,1619.76,2033.84z
		 M1652.35,1995.55c-18.11-7.65-28.22-1.42-32.58,16.94c3.89-1.96,7.78-3.91,12.13-6.1c2.41,4.42,4.84,8.86,8.68,15.89
		C1644.95,2012.34,1648.1,2005.2,1652.35,1995.55z"/>
	<path class="st2" d="M1278.78,2171.93c-7.52,40.36-15.03,80.73-22.55,121.09c3.12,0.74,6.24,1.47,9.36,2.21
		c3.14-13.39,6.23-26.8,9.43-40.18c2.11-8.82-1.95-21.1,14.04-21.74c14.52-0.58,23.08,3.01,27.65,18.97
		c11.57,40.4,12.07,80.16-1.53,119.78c-1.65,4.8-7.8,9.77-12.9,11.4c-40.32,12.9-81.57,15.77-122.63,5.05
		c-47.92-12.52-75.67-50.21-77.03-101.19c-1.06-39.51,12.26-78.61,39.27-115.28c2.97,2.23,5.94,4.47,6.1,4.59
		c5.62-35.27,9.85-71.19,17.42-106.38c6.31-29.32,27.52-43.84,57.36-45.66c7.85-0.48,15.7-1.16,23.54-1.8
		c41.18-3.35,52.6,5.94,59.32,48.91c-6.18,2.88-12.53,5.83-18.75,8.72c-30.08-32.23-50.37-38.6-74.44-22.44
		c12.18,1.46,23.57,1.74,34.4,4.35c22.54,5.45,29.42,20.61,23.53,42.97c-2.9,11.02-1.45,23.18-1.78,30.58
		c-5.68-9.14-11.05-25.09-22.14-33.52c-10.83-8.24-27.49-8.8-41.59-12.73c-0.82,3.19-1.64,6.38-2.46,9.56
		c6.13,1.14,12.26,2.24,18.39,3.41c26.5,5.06,40.01,26.64,31.48,50.22c-6.85,18.91-22.52,22.47-41.08,8.1
		c6.09-0.79,11.11-1.44,20.71-2.69c-16.9-18.45-31.25-1.16-43.54-6.7c7.01,8.79,12.29,17.04,19.14,23.67
		c13.24,12.8,34.29,11.26,47.65-4.11c11.14-12.82,21.96-21.14,41.04-20.83c18.27,0.3,26.81-14.63,25.48-34.23
		c-3.6,4.6-6.3,10.81-11,13.42c-6.85,3.79-16.14,8.19-22.47,6.21c-4.64-1.46-9.89-13.77-8.33-19.44
		c2.87-10.38,8.53-22.01,16.7-28.46c15.19-12,33.13-1.05,33.48,18.7c0.63,36.01-23.95,52.33-51.74,66.22
		c-1.97-3.11-3.9-6.28-5.83-9.45c-3.88,28.79-29.17,34.02-48.06,45.77C1254.04,2212.22,1268.09,2194.41,1278.78,2171.93z"/>
	<path class="st2" d="M1667.75,2404.71c-10.61,5.37-20.47,10.35-30.32,15.34c0.64,1.57,1.28,3.15,1.92,4.72
		c8.79-0.43,17.58-0.86,31.82-1.56c-25.22,16.32-46.05,13.49-58.64-3.83c-15.23-20.96-7.55-35.78,35.07-67.65
		c-16.73-1.66-25.04,3.44-50.11,30.77c-18.97-27.13-27.89-37.19,30.57-81.54c-0.91-1.58-1.82-3.17-2.73-4.75
		c-14.57,9-29.14,18-44.16,27.28c-5.63-22.44,4.99-37.87,24.03-46.06c44.6-19.19,54.64-32.25,105.98,19.44
		c34.13-28.63,76.39-39.5,116.35-54.88c-0.65-2.15-1.3-4.3-1.95-6.45c-18.98,5.17-37.95,10.34-57.51,15.67
		c-0.3-3.13-0.93-6.61-0.93-10.1c0.04-34.03,6.49-42.81,39.53-41.01c26.01,1.42,52.75,5.89,77.26,14.46
		c38.18,13.35,60.57,41.93,62.52,83.79c1.98,42.51-21.23,70.67-56.13,88.85c-43.99,22.91-91.97,29.4-141.42,27.58
		c-14.58-0.54-29.47,2.41-43.95,5.16C1689.64,2422.83,1675.2,2425.79,1667.75,2404.71z"/>
	<path class="st3" d="M1406.39,2099.62c16.27,6.57,26.45,14.35,36.41,14.06c36.8-1.08,73.73-3.35,110.14-8.48
		c10.94-1.54,25.12-11.9,29.22-21.79c4.6-11.1,3.09-28.24-2.8-38.86c-3.47-6.26-21.84-9.18-31.35-6.34
		c-53.73,16.05-107.93,20.36-162.97,10.59c-14.53-2.58-29.07-7.74-42.29-14.35c-16.79-8.39-18.05-19.98-6.28-34.11
		c12.63-15.16,24.38-31.18,38.15-45.22c9.09-9.27,18.12-7.33,31.46-0.33c19.83,10.4,43.94,13.43,66.62,17.39
		c18.83,3.29,38.83,0.91,57.24,5.41c41.44,10.12,66.57,41.46,69.63,82.23c3.15,41.91-19.28,80.2-56.83,97.05
		c-38.32,17.18-79.58,9.59-108.66-19.58c-5.45-5.47-13.27-8.86-17.82-14.87C1411.77,2116.48,1410.04,2108.45,1406.39,2099.62z"/>
	<path class="st0" d="M1613.42,1883.31c0.3,37.99-23.87,64.87-58.7,65.31c-37.14,0.47-69.83-29.45-70.02-64.08
		c-0.19-35.3,26.49-62.03,62.38-62.51C1588.39,1821.49,1613.12,1844.33,1613.42,1883.31z"/>
	<path class="st1" d="M1531.01,2200.87c5.19-3.33,9.98-7.79,15.64-9.8c28.06-9.94,56.63-18.5,84.33-29.32
		c6.05-2.36,9.28-11.93,16.72-22.22c6.64,20.2,21.8,42.83,17.97,61.58c-3.47,17.02-25.65,33.09-43.17,43.57
		c-17.78,10.63-39.96,13.91-62.23,21.05c-5.49-17.28-9.54-32.89-15.57-47.69c-2.77-6.79-9.43-12-14.34-17.92
		C1530.36,2200.14,1531.01,2200.87,1531.01,2200.87z"/>
	<path class="st0" d="M1477.33,1908.91c-12.75-4.33-26.4-11.85-40.54-12.93c-13.7-1.05-27.9,4.52-45.94,7.95
		c-18.59-13.95-18.39-56.37,0.32-75.18c20.76-20.87,62.36-21.81,84.2-1.41c9.38,8.77,13.2,17.39,8.06,31.76
		C1478.18,1873.8,1479.25,1890.78,1477.33,1908.91z"/>
	<path class="st1" d="M1644.07,2249.46c14.25-40.98,68.83-69.06,135.16-66.71c-18.88,19.02-24.42,41.7-23.76,66.86
		c0.13,5.05-3.44,12.65-7.58,14.93c-19.43,10.69-37.93,23.05-59.85,0C1678.93,2254.94,1660.13,2254.55,1644.07,2249.46z"/>
	<path class="st1" d="M1370.1,2240.47c-10.74,20.6-21.12,40.5-33.08,63.45c-7.7-35.55-8.78-70.73-39.59-97.43
		c21.63,0,39.64,0,57.53,0C1361.81,2217.46,1325.51,2246.46,1370.1,2240.47z"/>
	<path class="st0" d="M1497.06,2108.24c-3.95-17.02-7.26-31.31-10.89-46.95c10.16-2.16,18.89-4,27.62-5.87
		c8.85-1.89,17.7-3.81,28.1-6.04c2.36,16.97,4.56,32.74,7.03,50.49C1531.1,2102.74,1515.35,2105.29,1497.06,2108.24z"/>
	<path class="st0" d="M1435.72,2062.66c14.28,0,27.04,0,42.44,0c3.43,12.88,7.18,27.01,10.87,40.86
		C1456.14,2119.2,1441.98,2108.49,1435.72,2062.66z"/>
	<path class="st0" d="M1632.07,1654.93c40.93,2,59.59,28.7,50.5,71.75C1664.65,1701.22,1649.64,1679.89,1632.07,1654.93z"/>
	<path class="st0" d="M1610.83,1642.91c-23.61,24.57-52.2,22.52-80.74,19.26C1542.54,1637.69,1576.28,1629.33,1610.83,1642.91z"/>
	<path class="st1" d="M1392.18,2164.78c4.56,6.99,9.12,13.98,14.95,22.92c-18.25,12.44-18.74,42.6-53.92,45.86
		c14.65-25.31,27.08-46.79,39.51-68.26L1392.18,2164.78z"/>
	<path class="st2" d="M1575.47,2377.15c-29.28-12.47-33.39-45.89-8.18-76.17C1570.1,2327.16,1572.69,2351.25,1575.47,2377.15z"/>
	<path class="st0" d="M1556.39,2095.67c-2.5-14.45-5.49-28.22-6.84-42.15c-0.31-3.23,5.22-10.12,7.59-9.91
		c6.26,0.54,14.47,2.31,17.95,6.71C1586.53,2064.76,1578.54,2084.38,1556.39,2095.67z"/>
	<path class="st0" d="M1638.49,1684.43c-17.14-6.07-32.1-11.37-47.83-16.94C1620.48,1643.73,1630.4,1647.03,1638.49,1684.43z"/>
	<path class="st1" d="M1392.71,2165.3c10.97-3.74,21.95-7.49,37.58-12.82c-4.22,14.56-7.03,24.23-9.9,34.15
		c-10.44-8.08-19.3-14.94-28.18-21.82C1392.18,2164.78,1392.71,2165.3,1392.71,2165.3z"/>
	<path class="st0" d="M1429.52,2105.13c-5.81-13.43-11.61-26.86-17.42-40.29c2.05-1.07,4.1-2.14,6.15-3.2
		c17.14,7.3,13.05,26.28,18.43,40.04C1434.29,2102.83,1431.9,2103.98,1429.52,2105.13z"/>
	<path d="M1652.35,1995.55c-4.25,9.65-7.4,16.79-11.78,26.73c-3.84-7.03-6.26-11.47-8.68-15.89c-4.35,2.19-8.24,4.14-12.13,6.1
		C1624.13,1994.13,1634.24,1987.9,1652.35,1995.55z"/>
	<path d="M1278.78,2171.93c-10.69,22.48-24.74,40.29-54.38,37.06c18.89-11.74,44.18-16.98,48.06-45.77
		c1.93,3.17,3.86,6.34,5.83,9.45C1278.33,2172.62,1278.78,2171.93,1278.78,2171.93z"/>
	<circle cx="1550.68" cy="1885.33" r="15.72"/>
	<circle cx="1446.02" cy="1869.61" r="15.72"/>
</g>
<path d="M1960.75,1258.32V191.79h484.79v2684.96h-475.48v-199.51c-117.47,145.45-292.73,246.13-540.71,246.13
	c-497.84,0-874.49-408.34-874.49-950.92c0-542.59,376.64-950.94,874.49-950.94C1671.74,1021.51,1843.29,1116.61,1960.75,1258.32z
	 M1052.72,1972.45c0,275.95,180.86,497.83,466.14,497.83c277.81,0,466.14-212.56,466.14-497.83
	c0-285.28-188.33-497.84-466.14-497.84C1233.58,1474.61,1052.72,1696.49,1052.72,1972.45z"/>
</svg>
