<?xml version="1.0" encoding="utf-8"?>
<!-- Generator: Adobe Illustrator 24.3.0, SVG Export Plug-In . SVG Version: 6.00 Build 0)  -->
<svg version="1.1" id="Layer_1" xmlns="http://www.w3.org/2000/svg" xmlns:xlink="http://www.w3.org/1999/xlink" x="0px" y="0px"
	 viewBox="0 0 3000 3000" style="enable-background:new 0 0 3000 3000;" xml:space="preserve">
<style type="text/css">
	.st0{fill:#185ADB;stroke:#000000;stroke-width:41.9598;stroke-miterlimit:10;}
	.st1{fill:#FFED00;}
	.st2{fill:#FFFFFF;}
	.st3{fill:none;stroke:#000000;stroke-width:9.3663;stroke-miterlimit:10;}
	.st4{fill:none;stroke:#000000;stroke-width:10.191;stroke-miterlimit:10;}
</style>
<g>
	<path class="st0" d="M2328.16,1500.01c0,457.37-370.78,828.15-828.16,828.15c-42.98,0-85.2-3.27-126.41-9.59
		c-182.77-28-345.85-115.74-468.7-242.65c-144.26-149.04-233.03-352.11-233.03-575.91c0-457.38,370.78-828.16,828.15-828.16
		C1957.38,671.84,2328.16,1042.62,2328.16,1500.01z"/>
	<g>
		<g>
			<path class="st1" d="M948.36,1753.52c0.32,14.57,2.74,37.33,11.48,41.74c18.66,9.35,42.02,9.18,62.79,12.78
				c-15.65,20.38-25.19,170.81-10.78,191.57c3.33,4.75,8.55,8.95,13.88,11.48c68.36,32.84,138.01,41.16,216.71,11.82
				c-33.46-66.1,26.31-77.51,66.69-103.83c-74.93-7.53-140.33-13.95-205.64-20.48c-0.36-4.58-0.62-9.18-0.98-13.76
				c12.79-2.46,25.84-7.89,38.17-6.52c22.05,2.55,43.54,12.45,65.57,13.8c114.86,6.75,227.76-2.66,334.85-49.75
				c0.98-1.3,2.15-2.61,3.32-3.84c-12.66-46.16-25.31-92.22-36.36-132.44c-37.16,9.28-67.1,16.74-97.04,24.21
				c-1.31-4.86-2.62-9.81-3.93-14.67c19.72-5.26,43.46-5.28,58.11-16.97c17.48-14,27.25-37.78,40.29-57.35
				c-20.78-7.48-41.26-19.42-62.5-21.13c-22.07-1.72-45.69,4.2-67.18,11.21c-16.65,5.42-35.27,14.36-45.71,27.58
				c-46.3,58.31-124.24,74.73-188.2,36.75c-65.24-38.78-89.37-119.01-56.39-186.83c32.3-66.27,108.47-97.95,177.36-72.83
				c16.59,6.13,32.32,14.94,47.42,21.96c66.54-59.19,109.95-67.79,156.03-32.21c0.45-0.14,0.91-0.18,1.36-0.23l0.6,0.49
				c34.01-13.04,5.66-25.22-1.82-37.42c-8.15-13.34-22.26-25.35-24.57-39.54c-13.67-82.83-24.8-166.18-36.37-249.31
				c-3.04-21.6-4.45-43.45-7.22-71.73c-17.78,20.31-29.18,33.17-41.31,47.01c-12.55-19.65-22.48-35.12-34.48-53.9
				c-13.62,22.22-23.4,38.33-35.83,58.58c-13.24-21.98-23.6-39.08-36.17-59.83c-10.69,22.85-18.72,39.9-28.57,61.01
				c-18.08-19.48-32.02-34.46-48.24-51.9c-10.79,20-19.61,36.48-28.68,53.26c-16.86-12.67-30.53-23.06-46.3-34.91
				c-8.4,22.63-15.05,40.56-22.72,61.27c-17.57-15.18-31.61-27.39-47.86-41.41c-9.43,24.48-16.95,43.88-25.64,66.45
				c-16.56-14.36-30.4-26.4-45.85-39.85c-4.84,23.2-8.53,41.12-12.99,62.53c-20.61-14.24-35.17-24.18-51.11-35.08
				c-3.65,22.16-6.72,40.76-9.98,60.29c-16.97-5.36-29.85-9.45-43-13.61c35.6,125.58,67.91,247.79,105.24,368.39
				c18.8,60.71,4.34,133.73,66.87,181.64C978.91,1713.66,947.53,1709.25,948.36,1753.52z"/>
			<path class="st2" d="M1466.33,1425.82c0.29,0.16,0.59,0.4,0.9,0.65c0.36-0.13,0.71-0.25,1.07-0.38l-0.6-0.49
				C1467.23,1425.64,1466.77,1425.68,1466.33,1425.82z"/>
			<path d="M1467.69,1425.59l-0.47,0.87c0.35-0.13,0.71-0.25,1.07-0.38L1467.69,1425.59z M1280.95,1949.28
				c54.96-47.24,120.97-44.94,182.28-64.16c27.71-8.63,52.03-28.11,77.85-42.75c-107.08,47.09-219.98,56.5-334.84,49.75
				c-22.03-1.35-43.52-11.25-65.57-13.8c-12.33-1.38-25.38,4.06-38.17,6.51c0.36,4.59,0.63,9.18,0.98,13.77
				c65.32,6.53,130.72,12.95,205.65,20.48c-40.38,26.32-100.15,37.73-66.69,103.83c-78.71,29.34-148.35,21.02-216.71-11.82
				c-5.33-2.53-10.55-6.73-13.88-11.48c-14.41-20.76-4.87-171.19,10.78-191.57c-20.77-3.6-44.13-3.44-62.79-12.79
				c-8.74-4.4-11.16-27.17-11.48-41.74c-0.83-44.27,30.55-39.86,63.31-35.5c-62.53-47.91-48.07-120.94-66.87-181.64
				c-37.33-120.61-69.64-242.82-105.24-368.4c13.16,4.16,26.03,8.26,43,13.62c3.26-19.54,6.33-38.13,9.98-60.3
				c15.95,10.91,30.5,20.85,51.12,35.09c4.46-21.41,8.15-39.33,12.99-62.53c15.45,13.45,29.29,25.49,45.85,39.85
				c8.69-22.57,16.21-41.97,25.64-66.45c16.25,14.02,30.29,26.23,47.85,41.41c7.67-20.71,14.32-38.64,22.73-61.27
				c15.76,11.85,29.44,22.25,46.29,34.91c9.07-16.78,17.9-33.26,28.69-53.26c16.21,17.45,30.16,32.43,48.24,51.91
				c9.84-21.11,17.87-38.16,28.57-61.01c12.57,20.76,22.93,37.85,36.17,59.83c12.43-20.25,22.21-36.36,35.83-58.58
				c12.01,18.78,21.93,34.25,34.48,53.9c12.13-13.84,23.53-26.69,41.31-47.01c2.77,28.28,4.18,50.13,7.22,71.73
				c11.57,83.13,22.7,166.48,36.37,249.31c2.32,14.19,16.43,26.2,24.58,39.54c7.47,12.2,35.83,24.38,1.82,37.42
				c16.18,13.38,32.28,26.77,48.38,40.16c-91.88-140.76-89.27-304.46-111.08-471.21c-18,20.89-31.19,36.13-46.13,53.4
				c-12.65-16.87-25.07-33.3-39.1-51.97c-11.9,17.15-22.18,31.92-34.25,49.28c-12.67-17.15-24.62-33.44-40.18-54.55
				c-11.23,22.08-20.54,40.18-30.22,59.23c-14.87-15.91-28.28-30.21-46.15-49.43c-10.69,19.16-19.79,35.57-30.56,54.83
				c-15.62-12.23-30.73-24.05-49.74-38.91c-7,20.92-13.16,39.17-20.38,60.66c-16.29-12.53-32.09-24.84-49.59-38.37
				c-8.18,22.05-15.42,41.52-23.67,63.85c-18.52-14.53-34.44-27.02-53.87-42.39c-4.27,25.18-7.41,44.06-10.94,64.55
				c-17.75-10.46-33.13-19.39-51.96-30.48c-3.09,23.13-5.67,42.04-8.68,64.14c-18.78-7.76-35.81-14.69-58.72-24.08
				c27.1,88.81,54.2,171.06,77.16,254.46c24.68,89.6,46.86,180.09,66.94,270.89c3.69,16.91-3.77,39.73-13.32,55.35
				c-22.88,37.17-13.76,83.95,24.91,107.04c7.45,4.36,20.99,9.59,20.75,13.77c-3.16,54.45,16.17,108.36-14.06,163.71
				c-12.64,23.26-27.16,45.99-41.16,69c117.11,120.99,272.58,204.63,446.81,231.32c-2.25-5.83-4.45-11.69-6.6-17.56
				c-9.84-26.85-34.56-56.58-7.23-88.82c1.66-1.92-7.86-13.27-12.33-20.23c-5.79-9.04-11.67-18.16-17.64-27.19
				c-26.63-40.72-53.7-81.21-77.97-123.36C1240.56,1993.45,1251.47,1974.64,1280.95,1949.28z M1467.22,1426.47
				c0.35-0.13,0.71-0.25,1.07-0.38l-0.6-0.49L1467.22,1426.47z M1467.69,1425.59l-0.47,0.87c0.35-0.13,0.71-0.25,1.07-0.38
				L1467.69,1425.59z M1516.67,1466.25c0.22,0.35,0.43,0.69,0.65,1.04l0.25-0.3C1517.28,1466.74,1516.97,1466.5,1516.67,1466.25z"/>
			<path d="M1517.33,1467.29c0.2,0.17,0.31,0.34,0.51,0.5c-0.12-0.26-0.15-0.54-0.26-0.8L1517.33,1467.29z"/>
			<path d="M1467.69,1425.59c-0.46,0.04-0.92,0.09-1.36,0.23c0.29,0.16,0.59,0.4,0.9,0.65L1467.69,1425.59z"/>
			<path d="M1332.17,1509.65c-0.01-0.09-0.1-0.08-0.1-0.08c1.49,4.84,2.98,9.69,4.47,14.53
				C1335.15,1519.25,1333.65,1514.4,1332.17,1509.65z"/>
			<path d="M1141.89,1695.73c63.97,37.98,141.91,21.56,188.2-36.75c10.44-13.22,29.06-22.16,45.71-27.58
				c21.49-7,45.11-12.93,67.18-11.21c21.23,1.71,41.71,13.65,62.5,21.13c-13.05,19.57-22.82,43.35-40.29,57.35
				c-14.65,11.69-38.39,11.71-58.11,16.97c1.31,4.86,2.63,9.81,3.93,14.67c29.94-7.46,59.88-14.93,97.04-24.21
				c11.06,40.22,23.71,86.28,36.36,132.44c-0.19-19.85,5.07-41.61-1.36-59.09c-24.56-66.7-36-130.62-4.93-200.1
				c16.36-36.62,12.57-79.12-20.27-111.56c8.46,28.02,32.03,60.31,17.81,82.06c-17.81,27.23-18.97,45.95-53,58.41l-56.99,5.59
				c-34.8,3.41-67.18-18.18-77.42-51.62c-3.92-12.8-7.69-25.13-11.42-37.24c0.84,2.88,1.68,5.84,2.53,8.81
				c17.81,63.85-12.29,130-71.2,156.75c-58.55,26.62-130.31,4.28-164.12-51.17c-33.03-54.14-21.9-124.34,26.48-166.22
				c49.56-42.93,119.69-41.95,171.14,2.16c8.28,7.14,17.29,13.27,25.95,19.72l0.01,0.09l0.09-0.01l0.01,0.09
				c0.09-0.01,0.1,0.08,0.19,0.07c0.5,0.41,1.1,0.82,1.6,1.23c6.3-17.71,8.91-47.62,19.68-50.9c37.59-11.45,77.9-14.01,117.15-19.8
				c-46.08-35.58-89.49-26.98-156.03,32.21c-15.1-7.02-30.84-15.82-47.42-21.96c-68.89-25.12-145.06,6.56-177.36,72.83
				C1052.52,1576.72,1076.65,1656.95,1141.89,1695.73z"/>
			<path class="st2" d="M1327.7,1495.12l0.01,0.09c1.48,4.75,2.97,9.59,4.47,14.44c1.48,4.75,2.97,9.59,4.37,14.45
				c0.12,0.27,0.24,0.53,0.27,0.9c4.34,14.13,8.76,28.56,13.39,43.68c9.09,29.67,37.84,48.86,68.71,45.83l57.42-5.63
				c36.22-3.55,62.49-36.05,58.48-72.23c-2.46-22.17-9.93-45.53-16.98-68.86c-0.12-0.26-0.15-0.54-0.26-0.8
				c-0.3-0.25-0.6-0.5-0.91-0.74c-16.1-13.39-32.19-26.78-48.38-40.16l-0.6-0.49c-0.46,0.04-0.92,0.09-1.36,0.23
				c-39.25,5.79-67.45-21.09-117.15,19.8c-8.69,7.15-13.38,33.19-19.68,50.9c-0.5-0.41-1.1-0.82-1.6-1.23L1327.7,1495.12z"/>
			<path class="st2" d="M1329.47,1496.49c-9.29-7.02-18.99-13.56-27.81-21.12c-51.46-44.13-121.64-45.15-171.18-2.21
				c-48.34,41.9-59.5,112.08-26.44,166.26c33.8,55.4,105.54,77.78,164.11,51.18c58.91-26.75,89.04-92.94,71.22-156.79
				c-3.63-13-7.83-25.83-11.73-38.72C1327.68,1495.1,1329.47,1496.49,1329.47,1496.49z"/>
		</g>
		<circle cx="1182.1" cy="1585.99" r="25.35"/>
		<circle cx="1394.77" cy="1524.06" r="25.35"/>
	</g>
	<path class="st3" d="M1389.29,1418.49c52.72-22.39,117.47,13.22,139.86,65.94c22.39,52.72-2.2,113.6-54.91,135.99"/>
	<path class="st4" d="M1327.7,1486.3c14.5-60.61,70.79-83.28,131.4-68.78c60.61,14.5,92.83,75.39,78.33,136"/>
	<g>
		<path class="st2" d="M1714.95,1299.42c0.83,3.58,1.82,6.85,2.98,9.81l1.99,5.39c0.87,2.1,1.54,3.93,2.01,5.51
			c1.24,4.18,1.77,7.93,1.58,11.24c-0.22,3.15-1.14,5.63-2.78,7.42l-1.31,1.17l-1.31,1.17c-1.25,1.08-2.26,2.04-3.05,2.89
			c-0.57,0.66-2.14,1.16-4.72,1.53c-9.67,1.36-15.6-5.78-17.8-21.42c-1.21,0.17-2.86-5.76-4.96-17.79l-2.63-13.44
			c-1.02-4.3-2-6.91-2.95-7.84c-3.67-3.35-9.66-4.4-17.95-3.15c-23.78,6.22-37.45,10.11-41.01,11.67
			c-9.85,4.18-15.62,8.77-17.3,13.77c-1.46,4.23-1.36,10.51,0.3,18.82l1.06,4.91l0.94,4.92c0.77,3.76,1.12,6.83,1.05,9.22
			c0.05,3.28-0.73,5.9-2.35,7.85c-0.56,0.74-1.46,1.6-2.72,2.6l-1.52,1.45c-0.66,0.59-1.24,1.12-1.75,1.6
			c-0.58,0.57-2.16,1.04-4.73,1.4c-7.42,1.04-12.57-1.11-15.45-6.46c-2-3.74-3.18-10.03-3.51-18.86l-0.14-5.4l0-5.3
			c-0.15-4-0.44-7.21-0.86-9.62c-1.16-6.49-3.88-10.1-8.17-10.81c-2.69-0.44-5.86,0.74-9.49,3.55c-4.98,2.01-9.01,2.87-12.09,2.56
			c-4.07-0.33-7.26-2.56-9.56-6.67c-1.3-2.2-2.12-4.59-2.49-7.17c-0.98-7.01,3-12.01,11.95-14.99c2.84-0.23,5.21-0.94,7.1-2.11
			c9.52-5.94,13.24-17.76,11.17-35.47c-0.77-6.06-2.65-14.62-5.64-25.71c-2.99-11.08-5.01-17.99-6.05-20.72l-1.22-3.4l-1.22-3.4
			c-1.83-5.41-2.49-10.13-1.99-14.14c0.94-7.36,4.39-12.33,10.36-14.89c6.2-2.68,11.6-0.81,16.2,5.62c3.99,5.6,6.76,13.02,8.3,22.26
			c0.58,3.54,1.27,11.39,2.07,23.56c0.8,12.17,2.02,21.1,3.64,26.79c2.33,8.38,6.28,14.9,11.86,19.54
			c4.47,3.73,10.66,5.37,18.56,4.91c2.85-0.15,9.49-1.17,19.91-3.04c16.3-2.7,26.22-10.79,29.75-24.27
			c2.53-9.48,1.89-23.44-1.94-41.89c-0.56-2.8-1.37-6.51-2.42-11.12l-1.25-5.37l-1.13-5.39c-1.71-8.06-2.73-14.45-3.06-19.17
			c-0.79-12.63,3.24-19.64,12.08-21.05c13.9-2.28,23.13,9.94,27.71,36.67c1.43,8.43,2.45,18.89,3.05,31.38
			c0.11,1.96,0.29,5.69,0.53,11.21c0.24,5.51,0.43,9.08,0.58,10.7l2.23,19.41c0.87,7.36,1.69,13.78,2.46,19.25
			C1709.88,1275.6,1712.24,1288.38,1714.95,1299.42z"/>
		<path class="st2" d="M1862.13,1244.98c0.57,1.73,1.59,4.63,3.07,8.69l1.03,2.94l1.17,3.04c1.03,2.65,1.87,4.87,2.54,6.67
			c4.42,12.2,7.71,22.42,9.85,30.67c6.78,26.66,3.84,41.08-8.84,43.28c-7.77,0.84-12.54-2.72-14.32-10.69
			c-0.62-2.63-0.95-6.19-1.01-10.71l0.01-2.59l-0.01-2.71c0.04-2.06,0.03-3.62-0.04-4.68c-0.42-9.39-3.37-15.51-8.86-18.36
			c-4.16-2.13-11.18-2.62-21.04-1.48c-0.48,0.07-1.17,0.12-2.07,0.17l-1.09,0.15l-1.33,0.19c-2.19,0.23-4.13,0.46-5.82,0.69
			c-5.17,0.64-9.72,1.32-13.64,2.04c-11.42,2.34-18.39,5.38-20.91,9.1c-1.98,2.91-3.68,6.56-5.12,10.95l-1.67,5.66l-1.55,5.64
			c-2.77,8.94-7.5,15.39-14.17,19.37c-6.99,4.1-12.1,3.96-15.35-0.43c-2.86-3.95-3.65-9.92-2.39-17.91
			c1.78-11.92,4.67-26.75,8.67-44.48l5.13-22.29c2.05-8.83,3.69-16.17,4.92-22.02l0.54-2.29l0.51-2.54
			c0.44-2.12,0.84-3.98,1.19-5.59c1.06-4.75,2.1-9.05,3.12-12.89c2.92-10.84,6.2-19.93,9.85-27.27
			c10.41-20.69,23.98-27.32,40.72-19.89c10.86,4.8,20.92,16.42,30.16,34.84c3.44,6.91,6.76,14.79,9.97,23.62
			C1857.64,1230.29,1859.9,1237.32,1862.13,1244.98z M1823.55,1263.46c9.03-4.14,12.5-11.08,10.39-20.81
			c-0.74-3.51-2.26-7.9-4.56-13.17l-1.56-3.23l-1.56-3.23c-1.3-2.78-2.24-4.86-2.85-6.26c-0.34-0.69-0.72-1.62-1.13-2.8l-0.58-1.52
			l-0.6-1.64c-1.04-2.73-1.97-4.98-2.8-6.76c-2.71-5.29-5.83-8.14-9.34-8.55c-6.67-0.71-11.21,4.78-13.59,16.45
			c-0.85,3.9-1.47,8.59-1.85,14.07l-0.16,3.23c-0.06,0.75-0.09,1.7-0.09,2.85c-0.1,2.23-0.18,3.68-0.25,4.35
			c-1.12,13.06,0.47,21.79,4.79,26.2C1802.5,1267.49,1811.09,1267.76,1823.55,1263.46c0.77-0.35,0.73-0.39-0.14-0.1
			c-0.62,0.25-1.52,0.58-2.7,0.99c-1.1,0.4-1.52,0.58-1.28,0.55C1819.75,1264.78,1821.12,1264.3,1823.55,1263.46z"/>
		<path class="st2" d="M2006.57,1286.09c2.97,2.46,4.93,5.27,5.87,8.42c1.42,4.81,1.24,9.11-0.53,12.89
			c-1.91,3.97-5.26,6.41-10.07,7.33c-4.34,0.69-9.08-0.29-14.22-2.93c-1.86-0.97-4.06-2.27-6.59-3.88l-3.14-2.15l-3-2.04l-9.39-6.32
			l-9.5-6.19c-7.24-4.73-13.64-8.77-19.2-12.1c-10.04-5.99-15.46-4.49-16.26,4.5c-0.28,3.24,0.03,7.52,0.94,12.81
			c0.35,1.92,0.78,4.08,1.28,6.48l0.67,2.99l0.31,1.31l0.31,1.31c0.67,3.03,0.6,6.65-0.2,10.88c-0.79,4.3-2.17,7.95-4.14,10.94
			c-2.16,3.34-4.58,5.12-7.26,5.33c-3.25,0.29-6.55-1.59-9.91-5.63c-3.25-3.82-5.4-9.8-6.46-17.95l-0.59-5.09l-0.33-5.01
			c-0.36-4.3-0.67-7.38-0.93-9.24l-7.13-50.77c-3.56-25.39-1.36-46.85,6.61-64.41c9.56-20.9,26.42-33.05,50.6-36.44
			c7.09-1,14.03,0.17,20.83,3.49c6.25,2.99,11.82,7.54,16.71,13.68c4.68,5.84,8.09,12.3,10.24,19.39
			c2.26,7.33,2.91,14.26,1.93,20.81c-1.91,12.18-8.58,23.76-20.02,34.74c-1.3,1.25-2.93,2.55-4.88,3.89l-2.73,1.62l-2.71,1.74
			c-4.53,2.85-7.64,5.59-9.32,8.21c-3.05,4.62-2.68,8.43,1.11,11.43c1.3,1.05,3.31,2.21,6.03,3.47l3.43,1.61l3.41,1.49l6.52,3.4
			l6.5,3.28c5.23,2.72,9.63,4.81,13.21,6.28c2.53,1.04,4.59,1.99,6.19,2.83C2003.06,1283.63,2005,1284.83,2006.57,1286.09z
			 M1906.96,1216.62c0.23,6.3,2.26,11.44,6.11,15.41c4.35,4.65,11.3,4.13,20.86-1.57c3.4-2.12,7.01-4.76,10.84-7.93
			c1.46-1.27,2.88-2.58,4.26-3.93c1.16-1.07,2.25-2.12,3.25-3.17c6.11-6.2,10-12.5,11.65-18.89c2.03-7.76,0.41-14.64-4.87-20.64
			c-4.66-5.67-10.19-8.18-16.59-7.53c-5.77,0.48-11.52,3.39-17.27,8.71c-5.55,4.97-10.03,11.07-13.46,18.28
			C1908.19,1202.85,1906.6,1209.94,1906.96,1216.62z"/>
		<path class="st2" d="M2135.94,1138.99c20.19,12.7,31.82,30.83,34.88,54.4c1.83,14.21,0.16,27.8-5,40.76
			c-5.41,13.58-13.88,24.34-25.42,32.29c-21.52,14.69-50.3,24.56-86.32,29.62c-11.6,1.63-18.78-2.37-21.53-12.02
			c-0.95-3.24-1.61-7.95-1.99-14.14l-0.16-3.8l-0.16-3.8c-0.24-2.84-0.49-5.27-0.78-7.29c-0.48-3.38-0.99-7.34-1.54-11.86
			l-1.35-12.26c-1.23-10.51-2.31-18.78-3.24-24.82c-2.97-19.39-6.99-35.18-12.07-47.37c-6.89-16.29,0.38-27.13,21.81-32.52
			c7.46-1.87,16.47-3.01,27.01-3.42c4-0.15,8.11-0.19,12.31-0.13c3.13,0.05,6.23,0.15,9.29,0.3
			C2102.61,1124.03,2120.7,1129.38,2135.94,1138.99z M2080.75,1259.53c18.27-3.88,32.39-12.76,42.36-26.66
			c9.87-13.96,13.54-30.01,10.99-48.14c-1.53-12.03-8.1-20.8-19.72-26.32c-9.86-4.7-21.11-6.36-33.74-5
			c-14.09,1.48-22.89,7.57-26.41,18.25c-1.45,4.31-2.17,9.72-2.16,16.21c0.04,2.63,0.13,5.65,0.29,9.08l0.28,4.64l0.4,4.63
			c0.1,1.3,0.24,3.79,0.43,7.46l0.23,4.28l0.28,4.64c0.5,7.66,1.42,13.94,2.77,18.84
			C2060.7,1256.02,2068.69,1262.05,2080.75,1259.53z"/>
		<path class="st2" d="M1733.91,1458.19c0.98,2.33,1.41,5.1,1.29,8.32c-0.08,4.7-3,10.53-8.76,17.5l-3.48,4.19
			c-1.41,1.68-2.56,3.11-3.46,4.31c-2.43,3.22-4.11,6.12-5.06,8.72c-3.14,8.66-4.1,18.82-2.87,30.48c0.38,3.89,1.13,8.96,2.26,15.21
			l1.33,7.7l1.31,7.58c2.4,15.93,3.31,29.12,2.72,39.56c-0.95,14.92-4.73,27.46-11.36,37.59c-6.51,9.79-14.56,17.49-24.12,23.11
			c-10.48,6.15-21.17,8.72-32.08,7.71c-9.4-0.82-19.05-4.85-28.94-12.09c-11.25-8.12-16.26-16.62-15.04-25.5
			c0.9-7.03,5.24-12.12,13.02-15.26c7.63-3.04,14.51-2.9,20.65,0.43c2.22,1.17,4.74,3.03,7.57,5.59l3.38,2.98
			c1.32,1.21,2.44,2.17,3.36,2.86c5.34,4.1,10.76,4.94,16.26,2.53c6.57-2.97,11.53-9.75,14.9-20.33c2.77-8.93,3.74-17.54,2.91-25.8
			c-2.66-25.35-6.76-45.19-12.3-59.54c-2.15-5.37-6.11-9.29-11.88-11.77c-2.09-0.86-4.8-1.71-8.12-2.56l-4.33-0.99l-4.23-1.13
			c-6.91-1.82-12.48-4.86-16.69-9.12c-5.19-5.35-6.45-11.13-3.79-17.34c3.14-7.51,9.61-13.47,19.43-17.89
			c3.71-1.67,8.14-3.2,13.29-4.58c1.89-0.59,4.06-1.19,6.53-1.78l3.23-0.7l3.11-0.68c1.35-0.35,3.45-0.89,6.31-1.62l1.78-0.5l2-0.65
			l4.04-1.06c7.13-1.9,13.19-3.21,18.19-3.91C1721.38,1447.7,1730.61,1450.51,1733.91,1458.19z"/>
		<path class="st2" d="M1802.19,1475.72c15.79-2.22,31.63,4.48,47.5,20.08c15.87,15.61,25.41,34.81,28.61,57.62
			c2.82,18.92-6.3,36.76-27.37,53.52c-18.59,14.53-38.38,23.39-59.38,26.58c-13.22,1.86-24.3-4.23-33.26-18.26
			c-6.31-10.37-10.5-23.01-12.6-37.92c-3.2-22.81-0.64-43.75,7.7-62.84C1763.46,1491.96,1779.73,1479.04,1802.19,1475.72z
			 M1780.95,1571.15c-0.05,0.83-0.11,1.39-0.19,1.69c-0.08,0.3-0.89,2.04-2.41,5.21c-1.53,3.17-2.13,5.93-1.8,8.26
			c0.53,3.79,3.24,7.56,8.12,11.31l9.69,3.2c2.75,0.85,6.91,0.96,12.5,0.34l10.16-2.29c5.02-1.12,11.65-7.72,19.9-19.8
			c8.25-12.09,11.49-24.99,9.73-38.72c-1.45-10.31-5.77-19.41-12.95-27.27c-8.48-8.92-18.04-12.63-28.68-11.14l-4.2,0.84
			c-9.35,1.31-15.6,8.89-18.75,22.72C1779.35,1538.38,1778.98,1553.6,1780.95,1571.15z"/>
		<path class="st2" d="M2037.76,1541.63c2.55,11.15,2.22,21.67-0.99,31.57c-3.59,10.7-10.09,18.88-19.48,24.55
			c-16.28,9.93-33,16.38-50.16,19.37c-21.52,3.59-38.43,0.18-50.75-10.26c-6.99-5.92-11.94-15.13-14.85-27.62
			c-1.16-4.77-2.05-10.23-2.67-16.39c-0.26-2.43-0.51-5.06-0.74-7.91c-0.1-1.88-0.24-4.36-0.43-7.46
			c-1.5-27.07-0.35-50.49,3.45-70.25c2.39-12.25,5.97-20.68,10.75-25.3c4.76-4.69,13.25-8.06,25.45-10.11
			c14.92-2.59,29.22-1.1,42.91,4.45c10.27,4.07,16.08,11.8,17.43,23.19c1.25,9.52-0.54,19.55-5.39,30.09
			c13.17,4.23,22.97,9.06,29.4,14.49C2029.79,1520.81,2035.14,1530,2037.76,1541.63z M2006.59,1547.86
			c0.81-6.52-1.32-12.02-6.38-16.48c-4.87-4.25-11.99-6.41-21.37-6.49c-3.45-0.01-7.44,0.26-11.97,0.82
			c-1.62,0.15-3.52,0.41-5.68,0.8l-5.32,0.75c-0.73,0.1-1.74,0.2-3.04,0.3l-3.28,0.34c-2.84,0.24-5.05,0.59-6.63,1.05
			c-4.77,1.16-7.06,3.58-6.87,7.25c0.15,1.62,0.23,3.67,0.24,6.13l0.04,2.95l0.15,2.81c0.12,4.34,0.48,7.82,1.1,10.45
			c1.73,7.07,6.38,12.38,13.94,15.92c5.99,2.86,12.57,4.11,19.76,3.76c7.52-0.32,13.85-2.35,18.99-6.12
			c3.73-2.66,7.18-6.23,10.33-10.7C2004.02,1556.48,2006.01,1551.97,2006.59,1547.86z M1931.3,1470.79
			c-1.13,1.88-1.37,5.17-0.71,9.84c0.23,1.61,0.57,3.49,1.04,5.65l0.31,1.31l0.29,1.19c0.2,0.88,0.34,1.55,0.41,2.04
			c2.3,11.1,8.08,14.56,17.36,10.38c12.51-5.7,20.38-12.31,23.6-19.83c1.98-4.63,0.8-8.66-3.54-12.08
			c-3.52-2.79-7.9-4.44-13.14-4.93c-1.75-0.16-3.77-0.21-6.06-0.14c-2.7,0.05-5.26,0.29-7.67,0.71
			C1936.92,1466.05,1932.96,1468.01,1931.3,1470.79z"/>
	</g>
</g>
</svg>
