<?xml version="1.0" encoding="utf-8"?>
<!-- Generator: Adobe Illustrator 24.3.0, SVG Export Plug-In . SVG Version: 6.00 Build 0)  -->
<svg version="1.1" id="Layer_1" xmlns="http://www.w3.org/2000/svg" xmlns:xlink="http://www.w3.org/1999/xlink" x="0px" y="0px"
	 viewBox="0 0 3000 3000" style="enable-background:new 0 0 3000 3000;" xml:space="preserve">
<style type="text/css">
	.st0{fill:#009FE3;}
	.st1{fill:#FFED00;}
	.st2{fill:#FFFFFF;}
	.st3{fill:none;}
	.st4{fill:#1D1D1B;}
	.st5{fill:#E30613;}
</style>
<g>
	<path d="M894.06,1393.72h1212.29V379.27h501.82v2518.11h-501.82V1861.36H894.06v1036.02H392.24V379.27h501.82V1393.72z"/>
	<g>
		<path class="st0" d="M1892.32,960.69c3.98,0,6.85-0.36,9.57,0.13c1.8,0.33,3.39,1.88,5.07,2.88c-1.55,1.43-3.02,3.97-4.67,4.09
			c-8.55,0.63-17.17,1.14-25.74,0.81c-60.15-2.35-116.01-17.61-162.2-58.14c-13.93-12.22-25.02-27.71-37.09-41.97
			c-1.24-1.46-0.26-4.8-0.31-7.26c2.12,1,4.76,1.52,6.24,3.12c2.8,3.01,4.94,6.64,8.49,11.59c4.05-10.11,7.56-18.86,11.42-28.48
			c-19.17-3.98-37.34-6.75-55.72-1.64c-8.69,2.42-12.81,8.65-13.31,17.62c-0.87,15.31,2.23,29.79,8.63,43.63
			c0.55,1.2,1.58,2.34,1.68,3.56c0.18,2.31-0.15,4.66-0.27,7c-2.17-1.24-5.24-1.96-6.32-3.83c-2.61-4.54-4.92-9.46-6.21-14.52
			c-2.06-8.06-3.76-16.31-4.55-24.58c-0.53-5.58-1.76-7.66-7.86-6.95c-30.45,3.53-49.91,21.46-62.94,47.64
			c-3.91,7.85-6.24,16.46-9.75,24.53c-0.8,1.84-3.48,2.87-5.29,4.28c-0.6-2.09-2.06-4.37-1.63-6.22c1.32-5.71,3.37-11.26,5.32-17.47
			c-13.11-2.4-25.75-4.64-38.33-1.17c-3.39,0.93-7.02,4.67-8.54,8.03c-6.11,13.43-11.44,27.22-17.05,40.87
			c-1.15,2.8-1.94,6.87-5.97,4.88c-1.26-0.62-1.5-5.4-0.69-7.75c3.22-9.31,7.05-18.4,11.21-29.01c-7.36-1.59-13.85-3.72-20.47-4.3
			c-30.28-2.65-57.21,7.75-82.86,22.39c-29.1,16.61-48.91,41.94-65.51,70.26c-17.38,29.67-25.66,62.14-29.43,95.94
			c-3.61,32.3-2.05,64.23,7.66,95.51c6.14,19.78,15.35,37.95,27.93,54.41c0.94,1.23,2.44,2.32,2.73,3.67c0.44,2.07,0.04,4.32,0,6.49
			c-2.06-0.62-5.05-0.57-6.04-1.96c-6.78-9.47-13.87-18.83-19.48-28.99c-10.65-19.26-16.62-40.24-20.01-61.95
			c-0.15-0.99-0.37-1.97-0.56-2.96c-0.56-0.06-1.12-0.11-1.68-0.17c-2.1,10.87-4.53,21.69-6.25,32.62
			c-4.41,28.07-4.36,56.16,0.13,84.25c0.3,1.88-1.79,4.14-2.77,6.23c-1.6-1.73-4.23-3.24-4.63-5.21
			c-4.3-20.85-5.19-41.94-3.37-63.14c0.58-6.8,0.99-13.64,2.06-20.37c0.86-5.41-1.53-7.93-6.3-8.84
			c-11.66-2.22-23.27-5.17-35.04-6.21c-14.65-1.29-29.69-2.85-44.11-0.93c-29.77,3.96-48.16,23.35-54.57,51.46
			c-7.46,32.72-28.57,43.57-58.01,46.99c-21.17,2.46-42.42,5.09-63.23,9.55c-16.38,3.51-30.93,11.7-39.94,27.07
			c-11.52,19.65-8.21,39.89,8.38,55.7c22.31,21.27,47.83,26.59,77.49,18.91c27.26-7.06,54.91-12.72,82.56-18.12
			c45.93-8.97,90.17-2.63,133.36,15.03c22.59,9.24,45.56,18.12,69.11,24.28c41.42,10.85,82.29,4.48,122.03-9.63
			c14.08-5,27.53-11.75,41.31-17.62c3.92-1.67,5.96-4.26,5.32-8.67c-0.19-1.3-0.28-2.69-0.04-3.96c1.89-9.96-1.89-16.95-9.12-24.17
			c-15.28-15.27-13.35-36.21,4.92-49.79c8.88-6.6,11.55-13.4,12.68-24.16c5.54-52.56,12.3-104.99,19.03-157.41
			c4.35-33.88,10.08-67.54,20.09-100.3c10.96-35.86,25.07-70.21,49.92-99.04c4.85-5.63,10.71-10.44,16.39-15.28
			c1.02-0.87,3.47-0.05,5.25-0.01c-0.29,1.94,0.15,4.7-0.97,5.69c-32.8,28.85-48.98,67.31-62.01,107.45
			c-10.91,33.62-16.26,68.47-21.23,103.34c-4.35,30.5-9.47,60.93-12.5,91.56c-3.45,34.82-4.98,69.83-7.27,104.77
			c-0.14,2.17,0.19,4.4,0.52,6.58c0.47,3.2,1.06,6.93-3.43,6.75c-1.62-0.07-4.09-3.52-4.44-5.7c-0.95-5.85-0.94-11.84-1.35-17.78
			c-0.07-1.03-0.31-2.05-0.49-3.14c-15.85,5.61-21.92,24.21-12.44,37.22c9.3,12.76,22.18,20.86,36.6,26.19
			c24.81,9.16,50.01,9.41,75.19,1.06c1.88-0.62,3.72-1.4,5.51-2.25c15.09-7.18,18.74-16.01,13.12-33.09
			c-2.82,3.76-5.01,7.56-8.08,10.43c-1.83,1.72-5.02,1.98-7.6,2.9c0.53-2.44,0.55-5.14,1.67-7.27c8.17-15.58,17.2-30.74,24.75-46.6
			c14.3-30.02,25.57-61.71,42.15-90.38c23.98-41.48,44.14-84.31,58.89-129.75c5.77-17.79,10.52-35.92,15.74-53.89
			c0.67-2.32,1.08-4.79,2.17-6.9c0.56-1.08,2.7-2.38,3.5-2.05c1.29,0.52,2.77,2.24,2.91,3.58c0.22,2.1-0.45,4.36-1,6.48
			c-17.01,65.34-40.22,128.02-75.5,186.12c-12.95,21.33-21.64,45.25-32.17,68.03c-6.93,15-13.78,30.04-20.41,45.18
			c-0.92,2.09-0.73,4.86-0.47,7.25c0.9,8.06,2.48,16.07,2.92,24.14c0.18,3.25-1.11,7.26-3.13,9.82c-5.93,7.55-5.58,15.44-1.29,22.89
			c5.26,9.13,11.61,17.65,17.8,26.21c0.8,1.11,3.54,1.54,5.18,1.23c36.6-6.91,73.58-8.29,110.67-7.22
			c15.89,0.46,31.45,2.87,46.52,8.8c37.17,14.63,75,14.17,112.75,2.49c28.64-8.87,42.83-30.41,47.89-58.64
			c9.14-50.96-4.77-94.4-44.32-128.43c-14.99-12.9-31.34-24.22-47.13-36.19c-1.5-1.14-3.36-1.79-5.36-2.82
			c-0.75,5.79-1.07,11.05-2.27,16.11c-0.48,2.03-2.9,3.61-4.44,5.39c-0.91-2.12-2.56-4.22-2.6-6.35
			c-0.21-10.5,0.76-21.09-0.26-31.48c-0.51-5.15-4.42-9.96-6.79-14.92c-0.62,0.25-1.23,0.5-1.85,0.75
			c-1.61,10.99-2.81,22.05-4.91,32.95c-4.66,24.18-12.56,47.24-25.17,68.54c-0.9,1.52-1.52,3.44-2.83,4.41
			c-1.85,1.37-4.23,2.02-6.38,2.98c-0.03-2.3-0.97-5.19,0.06-6.82c12.05-19.05,19.99-39.8,25.01-61.6
			c7.25-31.49,10.11-63.12-0.58-94.57c-0.64-1.87-1.4-3.7-2.2-5.51c-0.34-0.77-0.92-1.44-1.71-2.64
			c-6.98,7.66-13.53,15.25-20.52,22.41c-6.46,6.62-13.21,13-20.25,19.01c-1.87,1.59-5.23,1.42-7.91,2.06
			c0.97-2.53,1.21-5.88,3.01-7.47c25.73-22.63,47.95-48.1,63.6-78.78c4.48-8.79,7.67-18.25,11.32-27.46
			c0.77-1.95,0.96-4.14,1.33-5.85c-9.46-1.83-18.33-3.3-27.05-5.36c-3.34-0.79-6.63-2.57-9.38-4.64c-1.22-0.92-1.06-3.69-1.52-5.62
			c1.8-0.19,4.04-1.17,5.32-0.44c12.5,7.04,25.93,7.95,39.76,6.55c34.5-3.5,53.91-36.59,40.01-68.36
			c-2.02-4.61-4.77-8.92-7.38-13.26c-1.22-2.03-2.91-3.78-5.1-6.57C1899.04,948.05,1895.92,953.92,1892.32,960.69z M1777.12,1400.66
			c0.01,0.26,0.03,0.51,0.04,0.77c3.53,0,7.1-0.37,10.57,0.07c12.44,1.55,24.89,3.19,37.24,5.3c2.03,0.35,3.63,3.25,5.42,4.97
			c-2.21,0.74-4.4,1.51-6.62,2.2c-0.38,0.12-0.87-0.08-1.3-0.16c-22.58-4.59-45.25-7.14-68.3-3.85c-1.91,0.27-4.15-1.79-6.24-2.77
			c1.84-1.49,3.53-4,5.54-4.29C1761.3,1401.77,1769.23,1401.34,1777.12,1400.66z"/>
		<path class="st1" d="M2126.08,471.45c7.4,12.71,14.46,24.82,21.84,37.5c17.51-5.95,33.42-15.39,44.9-31.54
			c1.39-1.95,4.5-2.68,6.81-3.97c-0.23,2.69,0.47,5.98-0.84,7.96c-10.57,16.09-25.88,26.12-43.55,32.93
			c-1.84,0.71-3.69,1.36-5.97,2.21c7.28,24.39,10.33,49,5.01,75.11c22-13.55,41.82-28.13,60.34-44.51
			c28.88-25.54,51.55-55.41,64.66-92.06c3.18-8.89,2.69-10.86-5.58-16.24c-23.17-15.09-49.36-23.12-75.08-32.24
			c-11.22-3.98-13.08-5.63-11.69-17.7c1.68-14.63,5.66-29.06,6.46-43.7c1.24-22.59,0.84-45.29,0.71-67.94
			c-0.05-8.57-1.79-17.13-1.78-25.69c0-6.45-3.24-9.07-8.63-9.25c-15.38-0.5-30.81-1.24-46.16-0.56
			c-17.8,0.79-35.52,3.39-53.33,4.44c-14.17,0.83-16.97-1.73-21.9-14.84c-9.14-24.3-17.24-49.09-28.15-72.57
			c-7.44-16.02-18.87-30.18-28.58-45.13c-2.62-4.04-5.76-4.72-9.95-1.71c-33.47,24.05-67.07,47.93-100.5,72.04
			c-4.25,3.07-7.67,7.28-11.65,10.75c-5.71,4.97-10.75,5.53-15.85,0.24c-37.31-38.65-86.97-56.74-133.22-80.51
			c-0.39-0.2-0.81-0.35-1.21-0.53c-12.85-5.68-14.13-6.17-19.21,7.24c-8.63,22.79-15.94,46.12-22.92,69.49
			c-6.3,21.09-10.65,42.63-11.99,64.74c-0.52,8.55-4.91,12-13.62,11.88c-9.68-0.14-19.35-1.33-29.03-1.38
			c-16.95-0.1-33.93-0.19-50.85,0.65c-23.76,1.18-47.52,2.8-71.21,5.03c-16.05,1.51-17.97,0.6-15.28,17.28
			c4.58,28.44,8.74,56.98,14.48,85.2c4.22,20.69,10.81,40.87,22.66,58.82c1.2,1.82,2.07,3.9,2.85,5.95
			c2.77,7.32,1.32,11.43-5.12,15.7c-38.52,25.51-70.96,57.33-96.93,95.46c-7.24,10.63-12.02,22.94-17.93,34.47
			c-2.22,4.33-1.38,7.46,2.52,10.8c19.45,16.62,42.35,26.85,65.86,35.8c15.82,6.02,32.04,10.98,48.08,16.41
			c1.46,0.49,2.93,0.95,4.38,1.47c13.1,4.76,13.86,9.49,7.14,21.77c-14.47,26.43-28.64,53.09-41.53,80.31
			c-9.27,19.59-6.76,23.44,13.79,30.74c29.95,10.63,60.92,15.46,92.61,16.06c3.97,0.07,7.95,0.15,11.91-0.04
			c5.45-0.27,6.97,2.03,5.9,7.27c-2.45,12.06-4.71,24.17-6.71,36.32c-0.96,5.82-1.15,11.77-1.91,20.02c2.99-1.94,5.65-2.7,5.97-4.03
			c3.9-16.33,16.65-20.58,30.62-21c15.5-0.47,31.07,1.14,47.64,1.9c1.72-6.71,3.83-14.92,6.25-24.32
			c-13.18,4.67-24.85,2.89-35.07-4.79c-14.59-10.97-25.48-25.01-31.09-42.56c-4.57-14.28-2.57-27.92,6.27-40.22
			c13.09-18.23,37.35-23.73,53.42-12.15c8.32,5.99,13.75,14.26,17.22,23.72c0.65,1.78-1,4.41-1.58,6.64
			c-1.73-1.3-3.96-2.28-5.09-3.98c-2.31-3.46-3.71-7.52-6.05-10.95c-10.91-15.97-27.95-18.68-43.53-7.12
			c-14.27,10.58-19.28,28.39-12.27,45.51c5.26,12.84,13.59,23.62,24.05,32.73c9.99,8.71,21.14,9.92,33.33,5.38
			c2.29-0.85,4.94-0.73,7.43-1.06c0.15,2.71,0.9,5.54,0.37,8.11c-4.63,22.45-10.38,44.54-20.45,65.33
			c-0.87,1.81,0.05,5.55,1.49,7.25c18.74,22,41.73,38.44,67.8,50.65c35.05,16.41,72.19,23.69,110.68,24.73
			c2.19,0.06,5.49-1.07,6.49-2.73c8.24-13.55,16.06-27.36,23.98-41.1c0.3-0.52,0.3-1.23,0.54-2.31
			c-15.12-1.32-28.77-6.51-41.16-14.79c-2.02-1.35-2.79-4.58-4.14-6.95c2.7,0.28,5.86-0.25,8.03,0.97
			c10.92,6.18,22.12,11.34,34.01,13.12c-6.48-12.28-12.93-24.46-19.31-36.67c-0.81-1.55-1.84-3.28-1.79-4.9
			c0.05-1.65,1.31-3.27,2.04-4.9c1.58,0.83,3.91,1.26,4.6,2.56c2.69,5.04,4.18,10.81,7.35,15.48c7.63,11.22,14.74,23.19,24.27,32.64
			c15.47,15.34,40.59,14.73,55.02,1.12c-5.15-6.59-11.06-12.64-15.17-19.73c-7.93-13.69-7.34-28.84-2.16-42.94
			c16.2-44.13,41.55-80.52,87.62-98.32c21.3-8.23,38.02-8.94,58.61-1.46c18.19-30.89,14.69-63.17,6.54-96.6
			c-1.86,1.09-3.22,1.98-4.67,2.72c-11.76,5.93-23.58,11.74-35.26,17.82c-1.84,0.96-3.93,2.84-4.44,4.7
			c-3.24,11.92-11.02,20.09-22.3,23.36c-9.99,2.89-20.72,3.38-31.18,4.3c-1.83,0.16-3.93-2.83-5.91-4.37c2.13-1,4.18-2.63,6.39-2.9
			c6.74-0.82,13.7-0.34,20.28-1.75c21.6-4.62,29.69-17.74,25.01-39.38c-3.24-14.98-12.16-23.71-27.46-25.2
			c-12.25-1.19-24.62-1.36-36.94-1.53c-16.85-0.24-22.63-1.22-37.39-7.59c-10.23,21.35-24.85,38.88-45.39,51.1
			c-44.08,26.23-104.01,18.32-140.3-18.05c-24.91-24.95-37.8-54.98-38.52-89.96c-0.48-23.57,5.64-45.77,17.73-66.18
			c0.88-1.49,1.72-3,2.8-4.88c-12.2-9.51-26.15-13.59-40.97-15.31c-3.49-0.41-7.16,0.29-10.54-0.46c-2.25-0.5-4.14-2.65-6.19-4.06
			c2.02-1.22,4.05-3.5,6.06-3.49c14.9,0.06,29.39,2.54,42.89,9.21c4.51,2.23,8.8,4.89,13.52,7.53
			c14.21-18.24,31.78-32.17,54.97-41.1c-3.11-4.59-5.12-9.47-8.71-12.47c-8.4-7.04-17.54-13.21-26.42-19.66
			c-1.41-1.03-3.47-1.36-4.54-2.61c-1.22-1.43-1.66-3.53-2.44-5.33c1.9-0.46,4.33-1.91,5.62-1.22c17.41,9.29,34.19,19.4,43.19,38.17
			c9.7-1.42,19.39-3.62,29.16-4.07c9.81-0.45,19.71,0.84,30.06,1.39c1.89-11.06-0.47-21.94-4.11-32.58
			c-1.84-5.4-4.76-10.43-6.63-15.82c-0.7-2.01,0.21-4.58,0.39-6.89c2.01,1.12,4.82,1.74,5.89,3.45
			c8.98,14.4,13.97,37.04,12.19,54.62c33.35,10.69,56.81,32.87,71.65,65.45c19.63-48.69,55.88-70.4,107.45-68.94
			c2.7-14.42-0.84-27.68-7.93-40.27c-1.49-2.64-4.43-5.62-0.36-7.66c1.31-0.65,5.41,1.89,6.68,3.93
			c8.65,13.97,11.35,29.38,9.83,43.87c14.97,7.99,29.18,15.57,44.42,23.7c8.78-7.83,13.12-19.9,16.27-32.55
			c1.22-4.9,1.61-10.01,2.88-14.88c0.45-1.72,2.42-3.04,3.7-4.54c1.12,1.77,3.36,3.65,3.2,5.28
			C2145.52,438.44,2140.3,457.1,2126.08,471.45z M1943.52,356.16c-9.65,3.88-17.66,8.2-26.23,10.28
			c-13.21,3.21-26.81,4.8-40.21,7.25c-16.29,2.98-20.69,0.44-28.08-14.41c-8.91-17.9-10.93-37.16-11.11-56.52
			c-0.14-14.65,1.67-29.38,3.49-43.97c0.94-7.51,5.57-10.87,13.21-11.53c3.7-0.32,7.64-0.51,11.17,0.42
			c14.45,3.78,28.94,7.53,43.11,12.21c15.23,5.04,27.41,14.68,37.13,27.52c1.29,1.7,4.16,3.09,6.3,3.1
			c7.47,0.03,14.94-0.75,22.42-0.96c6.63-0.18,12.05,1.77,13.26,9.64c4.28-3.21,8.35-5.87,11.96-9.04
			c20.68-18.14,45.45-21.9,71.66-20.55c9.97,0.51,13.63,4.51,13.78,14.52c0.12,7.93,0.27,15.87,0.25,23.8
			c-0.05,18.13-1.67,36.03-7.84,53.27c-7.63,21.31-20.95,28.57-42.58,22.6c-19.76-5.45-37.71-14.24-51.48-30.39
			C1978.84,366.06,1953.6,364.17,1943.52,356.16z M1676.39,737.84c-2.47,1.48-4.34,2.91-6.44,3.76c-1.94,0.79-4.12,0.96-6.2,1.4
			c0.38-2.3-0.02-5.25,1.26-6.79c5.44-6.49,14.53-7.15,22.72-2.01c10.97,6.88,17.97,17.31,24.32,28.15
			c1.14,1.94,1.45,6.43,0.33,7.24c-3.54,2.55-5.08-0.91-6.77-3.6c-5.71-9.1-11.36-18.28-20.89-24.64
			c-3.55,7.55-6.23,14.7-3.23,22.94c0.58,1.58-0.99,3.94-1.57,5.94c-1.81-1.17-4.39-1.94-5.25-3.6c-1.25-2.41-1.95-5.54-1.67-8.23
			C1673.69,751.95,1675.07,745.58,1676.39,737.84z"/>
		<path class="st2" d="M1966.85,561.09c-3.2-34.2-14.55-64.07-40.3-87.11c-39.21-35.09-98.35-35.48-140.53-0.03
			c-36.36,30.56-50.1,70.63-40.18,116.81c10.12,47.12,39.71,78.02,86.84,89.8c56.9,14.21,111.33-19.5,127.62-78.56
			C1963.95,588.75,1964.74,574.74,1966.85,561.09z M1798.18,572.61c0.14-12.58,9.44-22.53,21.14-22.63
			c11.88-0.1,22.21,12.12,21.94,25.93c-0.25,12.77-9.51,22.37-21.41,22.2C1808,597.94,1798.03,586.21,1798.18,572.61z"/>
		<path class="st2" d="M2070.46,667.41c42.71-12.95,79.55-48.1,79.61-99.45c0.03-24.89-5-48.63-16.57-70.64
			c-27.31-51.96-89.71-64.48-135.33-27.45c-16.31,13.24-26.98,30-31.11,50.69c-0.53,2.66-0.45,5.67,0.2,8.31
			c6.82,27.63,6.4,55.04-2.82,82.01c-1.93,5.65-0.02,8.17,4.58,9.14c8.77,1.84,17.65,3.58,26.57,4.28
			c12.94,1.01,26.03,0.28,38.91,1.68c20.79,2.26,32.29,14.47,34.86,35.17C2069.6,663.07,2070.03,664.96,2070.46,667.41z
			 M2016.15,566.56c0.08-12.83,8.77-22.89,19.79-22.9c12.19-0.01,21.96,11.61,21.78,25.9c-0.15,11.85-9.99,22.16-21.03,22.03
			C2025.85,591.49,2016.07,579.56,2016.15,566.56z"/>
		<path class="st1" d="M1619.65,1391.01c-37.7,15.59-74.1,13.57-111.1-6.29c0,6.08-0.38,11.08,0.08,16.01
			c0.8,8.54-2.36,15.2-7.79,21.6c-4.05,4.77-7.33,10.38-9.98,16.07c-2.3,4.93,0.29,11.87,4.15,13.08c5.27,1.65,7.97-1.72,10.56-5.71
			c1.84-2.85,3.25-8.55,7.82-5.96c5.55,3.15-0.05,6.81-1.5,9.87c-3.71,7.84-7.06,15.57-5.2,24.6c1.6,7.77,6.57,12.28,13.7,14.62
			c7.16,2.35,12.73-1.19,16.79-6.39c7.65-9.78,14.8-19.89,10.65-33.69c-0.58-1.92,1.6-4.67,2.5-7.04c1.61,1.93,4.07,3.61,4.7,5.82
			c3.12,10.94,4.44,22.61,8.98,32.87c3.59,8.12,10.47,15.03,16.77,21.62c4.67,4.89,10.46,3.71,12.4-2.78
			c2.15-7.18,2.43-15.02,2.78-22.6c0.46-9.86,0-19.76,0.39-29.63c0.07-1.84,2.26-3.6,3.47-5.39c1.21,1.94,3.5,3.92,3.42,5.81
			c-0.17,4.22,1.4,6.93,5.07,8.16c11.17,3.74,22.25,8.06,33.72,10.55c8.59,1.86,12.43-2.53,9.1-10.52
			c-5.02-12.06-11.12-23.85-18.26-34.79C1626.86,1411.61,1620.13,1403.03,1619.65,1391.01z"/>
		<path class="st0" d="M1909.3,1221.95c-8.76-64.64-8.27-128.09-9.28-191.54c-7.31,2.22-14.23,4.13-20.99,6.53
			c-1.46,0.52-2.9,2.63-3.35,4.28c-6.19,22.83-17.03,43.34-30.37,62.72c-1.22,1.77-1.81,5.16-0.95,6.97
			c7.41,15.63,10.52,32.16,10.97,49.27c0.11,4.24,1.03,7.31,4.86,9.96c7.88,5.46,10.89,13.94,13.05,22.98
			c0.71,2.97,3.04,6.16,5.56,7.99C1888.35,1208.06,1898.27,1214.49,1909.3,1221.95z"/>
		<path class="st1" d="M1957.53,1421.28c4.33,4.51,7.99,8.39,11.72,12.19c2.91,2.98,5.63,6.26,8.94,8.71
			c4.87,3.62,10.03,4.01,15.07-0.31c5.14-4.41,6.42-10.05,2.98-15.32c-4.02-6.17-9.65-11.27-14.24-17.1
			c-1.49-1.89-1.91-4.62-2.82-6.96c2.5,0.42,5.56,0.06,7.41,1.39c6.06,4.34,11.67,9.3,18.52,14.88c7.34-2.54,9.89-8.8,3.84-17.38
			c-3.25-4.62-7.53-8.58-11.68-12.48c-2.87-2.7-6.42-4.65-9.47-7.17c-2.85-2.36-5.45-5.02-8.86-8.21
			C1975.59,1392,1969.29,1408.39,1957.53,1421.28z"/>
		<path class="st2" d="M2063.95,912.78c21.41,4.94,39.96-0.27,55.45-15.64c11.76-11.66,15.26-27.62,9.09-44.39
			C2115.81,883.43,2094.24,902.86,2063.95,912.78z"/>
		<path d="M1777.12,1400.66c-7.89,0.69-15.82,1.11-23.65,2.24c-2.01,0.29-3.7,2.8-5.54,4.29c2.09,0.98,4.33,3.04,6.24,2.77
			c23.05-3.3,45.72-0.75,68.3,3.85c0.43,0.09,0.92,0.28,1.3,0.16c2.22-0.69,4.42-1.46,6.62-2.2c-1.8-1.72-3.39-4.62-5.42-4.97
			c-12.36-2.11-24.8-3.74-37.24-5.3c-3.47-0.43-7.04-0.07-10.57-0.07C1777.15,1401.17,1777.14,1400.91,1777.12,1400.66z"/>
		<path d="M1943.52,356.16c10.08,8.02,35.32,9.9,40.22-2.75c13.78,16.15,31.73,24.95,51.48,30.39c21.64,5.96,34.95-1.29,42.58-22.6
			c6.17-17.24,7.79-35.14,7.84-53.27c0.02-7.93-0.13-15.87-0.25-23.8c-0.15-10.01-3.82-14.01-13.78-14.52
			c-26.21-1.34-50.98,2.41-71.66,20.55c-3.61,3.17-7.68,5.83-11.96,9.04c-1.21-7.87-6.63-9.82-13.26-9.64
			c-7.48,0.21-14.95,0.99-22.42,0.96c-2.14-0.01-5.01-1.4-6.3-3.1c-9.72-12.83-21.9-22.48-37.13-27.52
			c-14.17-4.69-28.66-8.43-43.11-12.21c-3.53-0.92-7.47-0.74-11.17-0.42c-7.63,0.67-12.27,4.02-13.21,11.53
			c-1.82,14.59-3.63,29.32-3.49,43.97c0.19,19.35,2.2,38.62,11.11,56.52c7.39,14.84,11.79,17.39,28.08,14.41
			c13.4-2.46,27-4.04,40.21-7.25C1925.85,364.36,1933.87,360.03,1943.52,356.16z M1844.91,297c0.76-10.32,1.29-20.66,2.34-30.95
			c1-9.84,5.44-13.49,15.16-11.14c15.58,3.76,31.14,7.91,46.3,13.08c12.76,4.35,23.11,12.79,30.84,23.99
			c1.37,1.99,2.43,4.82,2.26,7.16c-0.94,12.68-3.35,25.35-3.21,38c0.12,10.22-4.16,15.67-12.83,18.94
			c-3.7,1.39-7.47,2.78-11.33,3.51c-12.99,2.42-26.07,4.37-39.05,6.83c-11.66,2.21-13.53,1.43-18.8-8.88
			C1846.84,338.46,1845.29,317.92,1844.91,297z M2078.14,302.12c0.23,0.01,0.47,0.02,0.7,0.03c-0.66,9.89-0.34,19.96-2.24,29.61
			c-2.35,11.97-5.63,23.94-10.22,35.22c-3.61,8.86-11.97,13.29-21.76,11.22c-20.13-4.26-38.81-11.85-53.01-27.55
			c-2.5-2.76-4.87-6.78-5-10.31c-0.31-8.76,0.44-17.6,1.34-26.35c0.28-2.72,1.72-6.15,3.79-7.73c9.25-7.09,18.71-13.97,28.5-20.3
			c15.72-10.17,33.64-9,51.24-8.84c4.69,0.04,6.98,2.8,6.73,7.81C2077.92,290.65,2078.14,296.39,2078.14,302.12z M1946.09,328.53
			c-0.22-0.02-0.45-0.04-0.67-0.07c0.84-7.84,1.33-15.74,2.73-23.48c0.46-2.54,3.02-6.34,5.06-6.65c7.34-1.11,14.87-1.24,22.32-1.1
			c1.59,0.03,4.54,2.77,4.49,4.17c-0.56,15.32-1.35,30.64-2.75,45.91c-0.23,2.49-3.54,6.45-5.72,6.66
			c-5.77,0.55-11.79-0.08-17.54-1.18c-5.62-1.07-8.41-5-7.99-11.07C1946.33,337.34,1946.09,332.92,1946.09,328.53z"/>
		<path d="M1676.39,737.84c-1.32,7.74-2.7,14.11-3.37,20.55c-0.28,2.69,0.42,5.82,1.67,8.23c0.86,1.66,3.44,2.43,5.25,3.6
			c0.58-2,2.14-4.36,1.57-5.94c-3-8.24-0.32-15.39,3.23-22.94c9.53,6.36,15.18,15.55,20.89,24.64c1.69,2.69,3.23,6.16,6.77,3.6
			c1.12-0.8,0.8-5.3-0.33-7.24c-6.35-10.85-13.35-21.27-24.32-28.15c-8.19-5.14-17.29-4.48-22.72,2.01
			c-1.29,1.54-0.89,4.49-1.26,6.79c2.08-0.44,4.26-0.61,6.2-1.4C1672.05,740.74,1673.92,739.31,1676.39,737.84z"/>
		<path d="M1798.18,572.61c-0.15,13.59,9.82,25.33,21.68,25.5c11.9,0.17,21.16-9.43,21.41-22.2c0.27-13.81-10.06-26.03-21.94-25.93
			C1807.62,550.08,1798.32,560.04,1798.18,572.61z"/>
		<path d="M2016.15,566.56c-0.08,13,9.7,24.92,20.54,25.04c11.04,0.12,20.88-10.18,21.03-22.03c0.18-14.29-9.59-25.91-21.78-25.9
			C2024.92,543.68,2016.23,553.74,2016.15,566.56z"/>
		<path class="st0" d="M1844.91,297c0.38,20.92,1.93,41.47,11.68,60.53c5.27,10.31,7.14,11.09,18.8,8.88
			c12.98-2.46,26.06-4.41,39.05-6.83c3.86-0.72,7.63-2.11,11.33-3.51c8.67-3.27,12.95-8.72,12.83-18.94
			c-0.14-12.65,2.27-25.31,3.21-38c0.17-2.34-0.88-5.17-2.26-7.16c-7.73-11.2-18.08-19.64-30.84-23.99
			c-15.16-5.17-30.72-9.31-46.3-13.08c-9.72-2.35-14.16,1.3-15.16,11.14C1846.2,276.34,1845.67,286.68,1844.91,297z"/>
		<path class="st0" d="M2078.14,302.12c0-5.73-0.22-11.47,0.07-17.19c0.25-5.01-2.04-7.76-6.73-7.81
			c-17.6-0.15-35.52-1.33-51.24,8.84c-9.79,6.33-19.25,13.21-28.5,20.3c-2.07,1.59-3.51,5.01-3.79,7.73
			c-0.9,8.75-1.65,17.58-1.34,26.35c0.13,3.52,2.5,7.55,5,10.31c14.2,15.69,32.88,23.29,53.01,27.55
			c9.79,2.07,18.15-2.36,21.76-11.22c4.59-11.27,7.87-23.25,10.22-35.22c1.89-9.64,1.57-19.72,2.24-29.61
			C2078.61,302.15,2078.38,302.14,2078.14,302.12z"/>
		<path class="st0" d="M1946.09,328.53c0,4.4,0.24,8.81-0.06,13.18c-0.42,6.08,2.38,10,7.99,11.07c5.74,1.1,11.77,1.73,17.54,1.18
			c2.18-0.21,5.49-4.17,5.72-6.66c1.4-15.26,2.19-30.59,2.75-45.91c0.05-1.4-2.9-4.14-4.49-4.17c-7.45-0.14-14.98-0.01-22.32,1.1
			c-2.04,0.31-4.61,4.11-5.06,6.65c-1.4,7.74-1.89,15.64-2.73,23.48C1945.64,328.48,1945.87,328.5,1946.09,328.53z"/>
		<g>
			<path class="st3" d="M1960.3,601.98c-16.29,59.06-70.72,92.78-127.62,78.56c-47.13-11.77-76.73-42.67-86.84-89.8
				c-9.92-46.18,3.82-86.25,40.18-116.81c42.18-35.45,101.32-35.06,140.53,0.03c25.75,23.04,37.1,52.91,40.3,87.11
				C1964.74,574.74,1963.95,588.75,1960.3,601.98z"/>
			<path class="st3" d="M2070.46,667.41c-0.44-2.45-0.86-4.34-1.1-6.26c-2.57-20.7-14.07-32.92-34.86-35.17
				c-12.88-1.4-25.97-0.67-38.91-1.68c-8.92-0.7-17.79-2.43-26.57-4.28c-4.6-0.97-6.51-3.49-4.58-9.14
				c9.22-26.97,9.64-54.39,2.82-82.01c-0.65-2.64-0.74-5.65-0.2-8.31c4.13-20.69,14.79-37.45,31.11-50.69
				c45.62-37.03,108.02-24.51,135.33,27.45c11.57,22.01,16.6,45.75,16.57,70.64C2150.01,619.31,2113.17,654.46,2070.46,667.41z"/>
			<path class="st3" d="M2048.75,751.71c-46.07,17.8-71.42,54.19-87.62,98.32c-5.18,14.1-5.77,29.25,2.16,42.94
				c4.11,7.09,10.02,13.14,15.17,19.73c-14.43,13.61-39.55,14.22-55.02-1.12c-9.52-9.45-16.64-21.42-24.27-32.64
				c-3.17-4.66-4.67-10.44-7.35-15.48c-0.69-1.3-3.02-1.73-4.6-2.56c-0.73,1.63-1.99,3.25-2.04,4.9c-0.05,1.62,0.98,3.35,1.79,4.9
				c6.39,12.21,12.84,24.39,19.31,36.67c-11.89-1.78-23.09-6.94-34.01-13.12c-2.17-1.23-5.32-0.69-8.03-0.97
				c1.35,2.36,2.11,5.6,4.14,6.95c12.39,8.27,26.04,13.47,41.16,14.79c-0.24,1.08-0.24,1.79-0.54,2.31
				c-7.92,13.75-15.74,27.55-23.98,41.1c-1.01,1.66-4.3,2.79-6.49,2.73c-38.48-1.04-75.63-8.32-110.68-24.73
				c-26.07-12.21-49.06-28.65-67.8-50.65c-1.44-1.69-2.36-5.44-1.49-7.25c10.07-20.78,15.82-42.88,20.45-65.33
				c0.53-2.57-0.21-5.4-0.37-8.11c-2.49,0.33-5.14,0.21-7.43,1.06c-12.19,4.54-23.34,3.32-33.33-5.38
				c-10.46-9.11-18.79-19.89-24.05-32.73c-7.01-17.13-2-34.93,12.27-45.51c15.59-11.56,32.63-8.84,43.53,7.12
				c2.34,3.43,3.74,7.5,6.05,10.95c1.14,1.7,3.36,2.68,5.09,3.98c0.59-2.24,2.24-4.86,1.58-6.64c-3.47-9.46-8.9-17.72-17.22-23.72
				c-16.06-11.58-40.32-6.08-53.42,12.15c-8.84,12.31-10.83,25.94-6.27,40.22c5.61,17.54,16.5,31.58,31.09,42.56
				c10.22,7.68,21.88,9.47,35.07,4.79c-2.41,9.39-4.52,17.61-6.25,24.32c-16.57-0.75-32.14-2.37-47.64-1.9
				c-13.97,0.42-26.72,4.67-30.62,21c-0.32,1.32-2.98,2.09-5.97,4.03c0.75-8.25,0.95-14.2,1.91-20.02c2-12.15,4.26-24.26,6.71-36.32
				c1.07-5.24-0.45-7.54-5.9-7.27c-3.96,0.2-7.94,0.12-11.91,0.04c-31.69-0.6-62.66-5.43-92.61-16.06
				c-20.56-7.3-23.07-11.15-13.79-30.74c12.89-27.23,27.06-53.88,41.53-80.31c6.72-12.29,5.96-17.01-7.14-21.77
				c-1.45-0.53-2.92-0.98-4.38-1.47c-16.04-5.43-32.26-10.39-48.08-16.41c-23.51-8.96-46.42-19.18-65.86-35.8
				c-3.9-3.33-4.74-6.47-2.52-10.8c5.92-11.53,10.69-23.84,17.93-34.47c25.97-38.13,58.41-69.95,96.93-95.46
				c6.44-4.27,7.9-8.38,5.12-15.7c-0.78-2.05-1.65-4.13-2.85-5.95c-11.85-17.96-18.45-38.13-22.66-58.82
				c-5.75-28.21-9.9-56.75-14.48-85.2c-2.69-16.68-0.77-15.77,15.28-17.28c23.69-2.23,47.45-3.85,71.21-5.03
				c16.92-0.84,33.9-0.75,50.85-0.65c9.68,0.05,19.35,1.24,29.03,1.38c8.71,0.13,13.11-3.32,13.62-11.88
				c1.33-22.11,5.68-43.66,11.99-64.74c6.99-23.37,14.29-46.7,22.92-69.49c5.08-13.4,6.36-12.92,19.21-7.24
				c0.4,0.18,0.82,0.33,1.21,0.53c46.25,23.76,95.91,41.86,133.22,80.51c5.1,5.29,10.14,4.73,15.85-0.24
				c3.99-3.47,7.4-7.68,11.65-10.75c33.43-24.11,67.03-47.99,100.5-72.04c4.19-3.01,7.33-2.33,9.95,1.71
				c9.71,14.95,21.14,29.12,28.58,45.13c10.91,23.48,19.01,48.28,28.15,72.57c4.93,13.11,7.73,15.67,21.9,14.84
				c17.8-1.05,35.52-3.65,53.33-4.44c15.35-0.68,30.78,0.05,46.16,0.56c5.39,0.18,8.63,2.8,8.63,9.25
				c-0.01,8.56,1.73,17.13,1.78,25.69c0.13,22.65,0.53,45.35-0.71,67.94c-0.8,14.64-4.78,29.07-6.46,43.7
				c-1.39,12.07,0.47,13.72,11.69,17.7c25.72,9.11,51.91,17.15,75.08,32.24c8.26,5.38,8.76,7.35,5.58,16.24
				c-13.11,36.65-35.78,66.51-64.66,92.06c-18.52,16.38-38.34,30.95-60.34,44.51c5.32-26.11,2.28-50.71-5.01-75.11
				c2.28-0.84,4.14-1.5,5.97-2.21c17.67-6.81,32.98-16.84,43.55-32.93c1.3-1.98,0.61-5.27,0.84-7.96c-2.31,1.29-5.42,2.02-6.81,3.97
				c-11.48,16.14-27.39,25.59-44.9,31.54c-7.38-12.67-14.44-24.79-21.84-37.5c14.22-14.35,19.44-33.01,21.46-52.87
				c0.17-1.64-2.07-3.52-3.2-5.28c-1.28,1.5-3.25,2.82-3.7,4.54c-1.28,4.88-1.67,9.99-2.88,14.88
				c-3.14,12.65-7.48,24.72-16.27,32.55c-15.24-8.13-29.45-15.71-44.42-23.7c1.52-14.49-1.18-29.9-9.83-43.87
				c-1.27-2.04-5.37-4.58-6.68-3.93c-4.08,2.04-1.13,5.02,0.36,7.66c7.08,12.59,10.63,25.85,7.93,40.27
				c-51.56-1.45-87.82,20.25-107.45,68.94c-14.84-32.58-38.3-54.77-71.65-65.45c1.78-17.57-3.21-40.22-12.19-54.62
				c-1.07-1.71-3.88-2.33-5.89-3.45c-0.18,2.31-1.08,4.88-0.39,6.89c1.87,5.39,4.79,10.42,6.63,15.82
				c3.63,10.64,5.99,21.51,4.11,32.58c-10.35-0.55-20.24-1.84-30.06-1.39c-9.77,0.45-19.45,2.64-29.16,4.07
				c-9-18.77-25.79-28.88-43.19-38.17c-1.29-0.69-3.72,0.77-5.62,1.22c0.78,1.81,1.22,3.9,2.44,5.33c1.06,1.25,3.13,1.59,4.54,2.61
				c8.89,6.45,18.02,12.62,26.42,19.66c3.58,3,5.59,7.87,8.71,12.47c-23.19,8.94-40.76,22.87-54.97,41.1
				c-4.72-2.64-9.02-5.3-13.52-7.53c-13.5-6.68-27.99-9.16-42.89-9.21c-2.02-0.01-4.04,2.27-6.06,3.49
				c2.05,1.41,3.94,3.56,6.19,4.06c3.38,0.74,7.05,0.05,10.54,0.46c14.81,1.72,28.77,5.8,40.97,15.31c-1.08,1.88-1.92,3.39-2.8,4.88
				c-12.09,20.41-18.22,42.61-17.73,66.18c0.72,34.98,13.61,65.01,38.52,89.96c36.3,36.36,96.23,44.27,140.3,18.05
				c20.54-12.22,35.16-29.75,45.39-51.1c14.77,6.38,20.54,7.35,37.39,7.59c12.32,0.18,24.69,0.34,36.94,1.53
				c15.29,1.49,24.22,10.22,27.46,25.2c4.68,21.63-3.42,34.75-25.01,39.38c-6.58,1.41-13.55,0.93-20.28,1.75
				c-2.22,0.27-4.27,1.89-6.39,2.9c1.98,1.54,4.08,4.53,5.91,4.37c10.46-0.91,21.2-1.4,31.18-4.3c11.27-3.27,19.06-11.44,22.3-23.36
				c0.5-1.86,2.6-3.74,4.44-4.7c11.68-6.08,23.5-11.89,35.26-17.82c1.45-0.73,2.81-1.63,4.67-2.72c8.15,33.43,11.66,65.72-6.54,96.6
				C2086.78,742.77,2070.06,743.48,2048.75,751.71z"/>
			<path class="st3" d="M1873.25,1193.13c-2.16-9.03-5.16-17.52-13.05-22.98c-3.83-2.66-4.75-5.72-4.86-9.96
				c-0.45-17.11-3.56-33.64-10.97-49.27c-0.86-1.81-0.26-5.2,0.95-6.97c13.33-19.37,24.18-39.89,30.37-62.72
				c0.45-1.65,1.88-3.76,3.35-4.28c6.75-2.4,13.67-4.31,20.99-6.53c1,63.44,0.52,126.9,9.28,191.54
				c-11.03-7.46-20.95-13.89-30.5-20.83C1876.29,1199.29,1873.96,1196.1,1873.25,1193.13z"/>
			<path class="st3" d="M2128.49,852.75c6.17,16.77,2.67,32.73-9.09,44.39c-15.49,15.37-34.05,20.57-55.45,15.64
				C2094.24,902.86,2115.81,883.43,2128.49,852.75z"/>
			<path class="st3" d="M1001.67,1311.09c20.81-4.46,42.06-7.08,63.23-9.55c29.44-3.42,50.55-14.27,58.01-46.99
				c6.41-28.11,24.8-47.5,54.57-51.46c14.42-1.92,29.46-0.36,44.11,0.93c11.77,1.04,23.38,3.99,35.04,6.21
				c4.77,0.91,7.16,3.43,6.3,8.84c-1.07,6.73-1.48,13.57-2.06,20.37c-1.82,21.2-0.93,42.28,3.37,63.14
				c0.41,1.97,3.04,3.48,4.64,5.21c0.98-2.08,3.07-4.35,2.77-6.23c-4.5-28.1-4.54-56.19-0.13-84.25
				c1.72-10.93,4.15-21.75,6.25-32.62c0.56,0.06,1.12,0.11,1.68,0.17c0.19,0.99,0.4,1.97,0.56,2.96
				c3.39,21.71,9.36,42.69,20.01,61.95c5.61,10.16,12.7,19.52,19.48,28.99c0.99,1.39,3.98,1.34,6.04,1.96
				c0.04-2.17,0.44-4.42,0-6.49c-0.29-1.36-1.79-2.45-2.73-3.67c-12.58-16.46-21.79-34.63-27.93-54.41
				c-9.71-31.28-11.26-63.22-7.66-95.51c3.78-33.8,12.05-66.27,29.43-95.94c16.6-28.32,36.41-53.65,65.51-70.26
				c25.65-14.64,52.58-25.04,82.86-22.39c6.63,0.58,13.12,2.71,20.47,4.3c-4.17,10.61-7.99,19.7-11.21,29.01
				c-0.81,2.35-0.57,7.13,0.69,7.75c4.03,1.99,4.82-2.08,5.97-4.88c5.61-13.66,10.94-27.44,17.05-40.87
				c1.53-3.36,5.16-7.09,8.54-8.03c12.58-3.47,25.22-1.23,38.33,1.17c-1.95,6.21-4,11.75-5.32,17.47c-0.43,1.85,1.04,4.13,1.63,6.22
				c1.81-1.4,4.49-2.43,5.29-4.28c3.51-8.07,5.85-16.68,9.75-24.53c13.03-26.19,32.5-44.11,62.94-47.64
				c6.11-0.71,7.33,1.37,7.86,6.95c0.79,8.27,2.48,16.52,4.55,24.58c1.3,5.06,3.6,9.98,6.21,14.52c1.08,1.87,4.15,2.59,6.32,3.83
				c0.12-2.33,0.46-4.69,0.27-7c-0.1-1.22-1.12-2.36-1.68-3.56c-6.4-13.85-9.5-28.32-8.63-43.63c0.51-8.97,4.63-15.2,13.31-17.62
				c18.39-5.11,36.55-2.34,55.72,1.64c-3.86,9.62-7.37,18.38-11.42,28.48c-3.55-4.95-5.69-8.58-8.49-11.59
				c-1.48-1.59-4.12-2.11-6.24-3.12c0.05,2.47-0.93,5.8,0.31,7.26c12.07,14.26,23.16,29.75,37.09,41.97
				c46.19,40.53,102.05,55.8,162.2,58.14c8.56,0.33,17.18-0.17,25.74-0.81c1.65-0.12,3.12-2.67,4.67-4.09
				c-1.68-1-3.26-2.55-5.07-2.88c-2.72-0.49-5.59-0.13-9.57-0.13c3.6-6.77,6.72-12.64,10.26-19.27c2.2,2.79,3.88,4.54,5.1,6.57
				c2.61,4.33,5.36,8.64,7.38,13.26c13.9,31.77-5.51,64.86-40.01,68.36c-13.83,1.4-27.26,0.49-39.76-6.55
				c-1.28-0.72-3.52,0.25-5.32,0.44c0.46,1.93,0.3,4.7,1.52,5.62c2.75,2.07,6.05,3.85,9.38,4.64c8.72,2.06,17.58,3.53,27.05,5.36
				c-0.37,1.71-0.56,3.89-1.33,5.85c-3.65,9.21-6.83,18.67-11.32,27.46c-15.65,30.68-37.86,56.15-63.6,78.78
				c-1.8,1.58-2.04,4.94-3.01,7.47c2.68-0.64,6.05-0.47,7.91-2.06c7.03-6.01,13.78-12.38,20.25-19.01
				c6.99-7.16,13.54-14.75,20.52-22.41c0.79,1.2,1.37,1.87,1.71,2.64c0.8,1.81,1.57,3.64,2.2,5.51
				c10.69,31.45,7.84,63.07,0.58,94.57c-5.02,21.8-12.96,42.54-25.01,61.6c-1.03,1.63-0.09,4.52-0.06,6.82
				c2.15-0.96,4.53-1.62,6.38-2.98c1.31-0.97,1.93-2.9,2.83-4.41c12.61-21.3,20.51-44.36,25.17-68.54
				c2.1-10.89,3.3-21.96,4.91-32.95c0.62-0.25,1.23-0.5,1.85-0.75c2.37,4.96,6.28,9.78,6.79,14.92c1.02,10.4,0.05,20.98,0.26,31.49
				c0.04,2.13,1.69,4.24,2.6,6.35c1.54-1.78,3.96-3.36,4.44-5.39c1.2-5.05,1.52-10.32,2.27-16.11c1.99,1.03,3.86,1.68,5.36,2.82
				c15.78,11.97,32.13,23.29,47.13,36.19c39.56,34.03,53.46,77.48,44.32,128.43c-5.06,28.22-19.24,49.77-47.89,58.64
				c-37.75,11.69-75.58,12.14-112.75-2.49c-15.06-5.93-30.63-8.34-46.52-8.8c-37.09-1.07-74.07,0.3-110.67,7.22
				c-1.64,0.31-4.38-0.12-5.18-1.23c-6.19-8.56-12.54-17.08-17.8-26.21c-4.29-7.44-4.65-15.34,1.29-22.89
				c2.02-2.57,3.31-6.57,3.13-9.82c-0.44-8.08-2.02-16.08-2.92-24.14c-0.27-2.39-0.45-5.16,0.47-7.25
				c6.63-15.13,13.48-30.18,20.41-45.18c10.53-22.79,19.22-46.71,32.17-68.03c35.29-58.1,58.49-120.78,75.5-186.12
				c0.55-2.12,1.23-4.38,1-6.48c-0.14-1.35-1.62-3.06-2.91-3.58c-0.81-0.33-2.95,0.98-3.5,2.05c-1.09,2.11-1.5,4.58-2.17,6.9
				c-5.22,17.97-9.97,36.1-15.74,53.89c-14.75,45.44-34.91,88.28-58.89,129.75c-16.57,28.66-27.85,60.35-42.15,90.38
				c-7.55,15.86-16.58,31.02-24.75,46.6c-1.12,2.13-1.14,4.83-1.67,7.27c2.58-0.92,5.77-1.18,7.6-2.9
				c3.06-2.87,5.25-6.67,8.08-10.43c5.62,17.08,1.97,25.92-13.12,33.09c-1.79,0.85-3.63,1.62-5.51,2.25
				c-25.18,8.35-50.39,8.1-75.2-1.06c-14.42-5.33-27.3-13.42-36.6-26.19c-9.48-13-3.41-31.61,12.44-37.22
				c0.17,1.09,0.42,2.11,0.49,3.14c0.41,5.94,0.4,11.93,1.35,17.78c0.35,2.19,2.82,5.63,4.44,5.7c4.49,0.18,3.91-3.55,3.43-6.75
				c-0.32-2.17-0.66-4.4-0.52-6.58c2.29-34.93,3.82-69.94,7.27-104.77c3.03-30.63,8.16-61.06,12.5-91.56
				c4.97-34.88,10.32-69.72,21.23-103.34c13.03-40.15,29.21-78.61,62.01-107.45c1.12-0.99,0.68-3.75,0.97-5.69
				c-1.79-0.04-4.24-0.86-5.25,0.01c-5.68,4.84-11.54,9.65-16.39,15.28c-24.85,28.83-38.95,63.18-49.92,99.04
				c-10.01,32.76-15.74,66.42-20.1,100.3c-6.73,52.42-13.5,104.86-19.04,157.41c-1.13,10.76-3.81,17.56-12.68,24.16
				c-18.27,13.59-20.2,34.53-4.92,49.79c7.23,7.22,11.02,14.21,9.12,24.17c-0.24,1.27-0.15,2.66,0.04,3.96
				c0.65,4.41-1.4,7-5.32,8.67c-13.77,5.87-27.23,12.62-41.31,17.62c-39.73,14.11-80.6,20.48-122.03,9.63
				c-23.55-6.17-46.52-15.05-69.11-24.28c-43.18-17.66-87.43-24-133.36-15.03c-27.65,5.4-55.3,11.07-82.56,18.12
				c-29.66,7.68-55.18,2.36-77.49-18.91c-16.59-15.81-19.89-36.05-8.38-55.7C970.74,1322.79,985.29,1314.6,1001.67,1311.09z"/>
			<path class="st3" d="M1987.79,1381.73c3.05,2.52,6.6,4.48,9.47,7.17c4.15,3.9,8.43,7.86,11.68,12.48
				c6.04,8.58,3.49,14.84-3.84,17.38c-6.85-5.58-12.46-10.54-18.52-14.88c-1.85-1.33-4.91-0.97-7.41-1.39
				c0.91,2.34,1.33,5.07,2.82,6.96c4.59,5.83,10.23,10.93,14.24,17.1c3.43,5.27,2.16,10.92-2.98,15.32
				c-5.03,4.31-10.19,3.93-15.07,0.31c-3.31-2.46-6.02-5.74-8.94-8.71c-3.73-3.81-7.38-7.68-11.72-12.19
				c11.76-12.89,18.06-29.28,21.4-47.77C1982.35,1376.7,1984.94,1379.37,1987.79,1381.73z"/>
			<path class="st3" d="M1508.63,1400.72c-0.46-4.92-0.08-9.92-0.08-16.01c36.99,19.86,73.4,21.89,111.1,6.29
				c0.48,12.03,7.21,20.6,13.26,29.87c7.13,10.94,13.23,22.73,18.26,34.79c3.33,7.99-0.51,12.38-9.1,10.52
				c-11.47-2.48-22.55-6.8-33.72-10.55c-3.67-1.23-5.24-3.94-5.07-8.16c0.08-1.89-2.21-3.87-3.42-5.81c-1.21,1.8-3.4,3.55-3.47,5.39
				c-0.39,9.87,0.07,19.77-0.39,29.63c-0.35,7.58-0.63,15.42-2.78,22.6c-1.94,6.49-7.73,7.67-12.4,2.78
				c-6.31-6.6-13.18-13.51-16.77-21.62c-4.54-10.26-5.86-21.93-8.98-32.87c-0.63-2.21-3.09-3.89-4.7-5.82
				c-0.9,2.37-3.08,5.12-2.5,7.04c4.15,13.8-3.01,23.92-10.65,33.69c-4.06,5.19-9.63,8.73-16.79,6.39
				c-7.14-2.34-12.1-6.85-13.7-14.62c-1.87-9.03,1.49-16.76,5.2-24.6c1.45-3.06,7.05-6.72,1.5-9.87c-4.57-2.59-5.98,3.12-7.82,5.96
				c-2.59,3.99-5.29,7.36-10.56,5.71c-3.86-1.21-6.45-8.14-4.15-13.08c2.66-5.69,5.94-11.3,9.98-16.07
				C1506.28,1415.92,1509.43,1409.26,1508.63,1400.72z"/>
			<path class="st4" d="M950.68,1344.96c7.13-21.77,23.88-33.09,44.46-39.85c21.75-7.15,44.46-8.55,67.04-10.76
				c32.73-3.2,47.05-14.15,53.88-42.71c8.19-34.25,33.06-54.6,67.91-56.75c27.54-1.7,54.8,2.37,81.19,10.02
				c4.15-14.91,8.35-29.93,12.46-44.98c0.4-1.45,0.15-3.07,0.28-4.61c1.68-19.08,2.19-38.35,5.29-57.19
				c8.42-51.14,30.78-95.5,69.1-130.81c27.21-25.07,59.79-39.33,96.84-42.59c13.47-1.19,26.7,0.43,39.95,6.19
				c3.63-19.43,17.87-20.54,32.63-20.17c7.24,0.18,14.45,1.68,21.7,2.04c2.34,0.12,6.08-0.79,6.96-2.43
				c13.84-25.84,33.56-43.97,62.9-49.13c2.71-18.93,5.36-37.39,8.01-55.89c-0.24-0.1-0.64-0.4-1.05-0.42
				c-2.2-0.09-4.41-0.11-6.61-0.14c-33.74-0.47-66.76-5.22-98.46-17.21c-23-8.7-26.84-15.99-16.41-38.5
				c12.66-27.34,27.3-53.77,41.11-80.57c1.55-3.01,3.31-5.92,5.37-9.59c-4.03-1.63-7-2.96-10.05-4.04
				c-21.16-7.49-42.61-14.25-63.44-22.56c-21.32-8.51-41.76-18.95-58.46-35.38c-2.86-2.82-4.05-5.48-2.4-9.34
				c3.98-9.28,6.83-19.2,11.87-27.85c26.23-45.03,62.67-80.5,105.43-109.69c5.33-3.64,5.84-6.57,3.05-11.75
				c-4.89-9.1-10.06-18.15-13.88-27.71c-16.55-41.41-20.25-85.52-26.14-129.13c-1.3-9.64,3.07-14.6,12.84-15.63
				c49.36-5.2,98.81-8.75,148.49-6.45c4.18,0.19,8.34,0.76,12.52,0.97c4.44,0.22,7.05-1.72,7.36-6.47
				c0.43-6.59,0.26-13.37,1.82-19.71c7.5-30.56,14.96-61.14,23.57-91.39c3.33-11.71,9.16-22.84,14.83-33.73
				c3.83-7.34,8.5-8.19,16.19-4.83c9.08,3.97,18.33,7.67,27.01,12.4c40.08,21.83,83.85,37.82,115.8,72.61
				c2.78,3.02,5.29,2.11,7.87-0.36c4.14-3.96,8-8.33,12.61-11.65c33.09-23.84,66.27-47.55,99.58-71.08
				c8.29-5.86,13.61-5.26,19.58,3.68c11.6,17.36,23.86,34.6,32.76,53.35c10.16,21.39,17,44.37,25.21,66.68
				c3.18,8.66,4.51,10.03,13.93,9.48c11.65-0.68,23.25-2.6,34.9-3.06c21.32-0.83,42.71-1.97,64-1.07
				c14.23,0.6,15.92,3.96,17.12,18.03c0.11,1.32,0.39,2.63,0.44,3.94c0.86,21.79,2.94,43.62,2.18,65.36
				c-0.68,19.49-4.3,38.89-6.94,58.28c-2.22,16.36-2.33,16.09,12.89,21.47c24.72,8.74,49.49,17.44,71.55,32.14
				c8.43,5.62,10.46,11.18,7.16,20.29c-9.07,25.07-21.45,48.24-38.96,68.57c-26.05,30.24-57.43,53.93-90.91,75.18
				c-3.06,1.94-5.84,5.33-7.24,8.67c-6,14.26-14.28,26.89-25.73,37.23c-3.48,3.14-3.95,5.76-2.83,10.19
				c8.59,33.89,10.86,67.42-7.71,99.66l-5.76-3.95c18.19-30.89,14.69-63.17,6.54-96.6c-1.86,1.09-3.22,1.98-4.67,2.72
				c-11.76,5.93-23.58,11.74-35.26,17.82c-1.84,0.96-3.93,2.84-4.44,4.7c-3.24,11.92-11.02,20.09-22.3,23.36
				c-9.99,2.89-20.72,3.38-31.18,4.3c-1.83,0.16-3.93-2.83-5.91-4.37c2.13-1,4.18-2.63,6.39-2.9c6.74-0.82,13.7-0.34,20.28-1.75
				c21.6-4.62,29.69-17.74,25.01-39.38c-3.24-14.98-12.16-23.71-27.46-25.2c-12.25-1.19-24.62-1.36-36.94-1.53
				c-16.85-0.24-22.63-1.22-37.39-7.59c-10.23,21.35-24.85,38.88-45.39,51.1c-44.08,26.23-104.01,18.32-140.3-18.05
				c-24.91-24.95-37.8-54.98-38.52-89.96c-0.48-23.57,5.64-45.77,17.73-66.18c0.88-1.49,1.72-3,2.8-4.88
				c-12.2-9.51-26.15-13.59-40.97-15.31c-3.49-0.41-7.16,0.29-10.54-0.46c-2.25-0.5-4.14-2.65-6.19-4.06
				c2.02-1.22,4.05-3.5,6.06-3.49c14.9,0.06,29.39,2.54,42.89,9.21c4.51,2.23,8.8,4.89,13.52,7.53
				c14.21-18.24,31.78-32.17,54.97-41.1c-3.11-4.59-5.12-9.47-8.71-12.47c-8.4-7.04-17.54-13.21-26.42-19.66
				c-1.41-1.03-3.47-1.36-4.54-2.61c-1.22-1.43-1.66-3.53-2.44-5.33c1.9-0.46,4.33-1.91,5.62-1.22
				c17.41,9.29,34.19,19.4,43.19,38.17c9.7-1.42,19.39-3.62,29.16-4.07c9.81-0.45,19.71,0.84,30.06,1.39
				c1.89-11.06-0.47-21.94-4.11-32.58c-1.84-5.4-4.76-10.43-6.63-15.82c-0.7-2.01,0.21-4.58,0.39-6.89
				c2.01,1.12,4.82,1.74,5.89,3.45c8.98,14.4,13.97,37.04,12.19,54.62c33.35,10.69,56.81,32.87,71.65,65.45
				c19.63-48.69,55.88-70.4,107.45-68.94c2.7-14.42-0.84-27.68-7.93-40.27c-1.49-2.64-4.43-5.62-0.36-7.66
				c1.31-0.65,5.41,1.89,6.68,3.93c8.65,13.97,11.35,29.38,9.83,43.87c14.97,7.99,29.18,15.57,44.42,23.7
				c8.78-7.83,13.12-19.9,16.27-32.55c1.22-4.9,1.61-10.01,2.88-14.88c0.45-1.72,2.42-3.04,3.7-4.54c1.12,1.77,3.36,3.65,3.2,5.28
				c-2.02,19.87-7.24,38.52-21.46,52.87c7.4,12.71,14.46,24.82,21.84,37.5c17.51-5.95,33.42-15.39,44.9-31.54
				c1.39-1.95,4.5-2.68,6.81-3.97c-0.23,2.69,0.47,5.98-0.84,7.96c-10.57,16.09-25.88,26.12-43.55,32.93
				c-1.84,0.71-3.69,1.36-5.97,2.21c7.28,24.39,10.33,49,5.01,75.11c22-13.55,41.82-28.13,60.34-44.51
				c28.88-25.54,51.55-55.41,64.66-92.06c3.18-8.89,2.69-10.86-5.58-16.24c-23.17-15.09-49.36-23.12-75.08-32.24
				c-11.22-3.98-13.08-5.63-11.69-17.7c1.68-14.63,5.66-29.06,6.46-43.7c1.24-22.59,0.84-45.29,0.71-67.94
				c-0.05-8.57-1.79-17.13-1.78-25.69c0-6.45-3.24-9.07-8.63-9.25c-15.38-0.5-30.81-1.24-46.16-0.56
				c-17.8,0.79-35.52,3.39-53.33,4.44c-14.17,0.83-16.97-1.73-21.9-14.84c-9.14-24.29-17.24-49.09-28.15-72.57
				c-7.44-16.02-18.87-30.18-28.58-45.13c-2.62-4.04-5.76-4.72-9.95-1.71c-33.47,24.05-67.07,47.93-100.5,72.04
				c-4.25,3.07-7.67,7.28-11.65,10.75c-5.71,4.97-10.75,5.53-15.85,0.24c-37.31-38.65-86.97-56.74-133.22-80.51
				c-0.39-0.2-0.81-0.35-1.21-0.53c-12.85-5.68-14.13-6.17-19.21,7.24c-8.63,22.79-15.94,46.12-22.92,69.49
				c-6.3,21.09-10.65,42.63-11.99,64.74c-0.52,8.55-4.91,12-13.62,11.88c-9.68-0.14-19.35-1.33-29.03-1.38
				c-16.95-0.1-33.93-0.19-50.85,0.65c-23.76,1.18-47.52,2.8-71.21,5.03c-16.05,1.51-17.97,0.6-15.28,17.28
				c4.58,28.44,8.74,56.98,14.48,85.2c4.22,20.69,10.81,40.87,22.66,58.82c1.2,1.82,2.07,3.9,2.85,5.95
				c2.77,7.32,1.32,11.43-5.12,15.7c-38.52,25.51-70.96,57.33-96.93,95.46c-7.24,10.63-12.02,22.94-17.93,34.47
				c-2.22,4.33-1.38,7.46,2.52,10.8c19.45,16.62,42.35,26.85,65.86,35.8c15.82,6.02,32.04,10.98,48.08,16.41
				c1.46,0.49,2.93,0.95,4.38,1.47c13.1,4.76,13.86,9.49,7.14,21.77c-14.47,26.43-28.64,53.09-41.53,80.31
				c-9.27,19.59-6.76,23.44,13.79,30.74c29.95,10.63,60.92,15.46,92.61,16.06c3.97,0.07,7.95,0.15,11.91-0.04
				c5.45-0.27,6.97,2.03,5.9,7.27c-2.45,12.06-4.71,24.17-6.71,36.32c-0.96,5.82-1.15,11.77-1.91,20.02
				c2.99-1.94,5.65-2.7,5.97-4.03c3.9-16.33,16.65-20.58,30.62-21c15.5-0.47,31.07,1.14,47.64,1.9c1.72-6.71,3.83-14.92,6.25-24.32
				c-13.18,4.67-24.85,2.89-35.07-4.79c-14.59-10.97-25.48-25.01-31.09-42.56c-4.57-14.28-2.57-27.92,6.27-40.22
				c13.09-18.23,37.36-23.73,53.42-12.15c8.32,5.99,13.75,14.26,17.22,23.72c0.65,1.78-1,4.41-1.58,6.64
				c-1.73-1.3-3.96-2.28-5.09-3.98c-2.31-3.46-3.71-7.52-6.05-10.95c-10.91-15.97-27.95-18.68-43.53-7.12
				c-14.27,10.58-19.28,28.39-12.27,45.51c5.26,12.84,13.59,23.62,24.05,32.73c9.99,8.71,21.14,9.92,33.33,5.38
				c2.29-0.85,4.94-0.73,7.43-1.06c0.15,2.71,0.9,5.54,0.37,8.11c-4.63,22.45-10.38,44.54-20.45,65.33
				c-0.87,1.81,0.05,5.55,1.49,7.25c18.74,22,41.73,38.44,67.8,50.65c35.05,16.41,72.19,23.69,110.68,24.73
				c2.19,0.06,5.49-1.07,6.49-2.73c8.24-13.55,16.06-27.36,23.98-41.1c0.3-0.53,0.3-1.23,0.54-2.31
				c-15.12-1.32-28.77-6.51-41.16-14.79c-2.02-1.35-2.79-4.58-4.14-6.95c2.7,0.28,5.86-0.25,8.03,0.97
				c10.92,6.18,22.12,11.34,34.01,13.12c-6.48-12.28-12.93-24.46-19.31-36.67c-0.81-1.55-1.84-3.28-1.79-4.9
				c0.05-1.65,1.31-3.27,2.04-4.9c1.58,0.83,3.91,1.26,4.6,2.56c2.69,5.04,4.18,10.81,7.35,15.48
				c7.63,11.22,14.74,23.19,24.27,32.64c15.47,15.34,40.59,14.73,55.02,1.12l13.98,4.24c-4.47-1.16-7.16,0.55-10.81,2.27
				c-8.26,3.88-16.77,7.9-25.62,9.69c-14.27,2.88-26.74-3.01-38.34-12.18c-3.93,6.26-7.63,12.15-11.4,18.16
				c1.87,2.35,3.54,4.38,5.14,6.47c21.37,27.87,19.08,60.02-1.89,80.58c-1.59,1.56-2.41,4.62-2.42,6.99
				c-0.03,18.08-0.33,36.19,0.5,54.24c1.89,41.17,4.46,82.3,6.56,123.46c0.73,14.43,5.57,25.61,17.23,35.65
				c33.1,28.49,51.7,64.54,48.6,109.31c-0.69,9.94,2.82,16.4,9.55,22.26c2.82,2.46,5.97,4.55,8.76,7.03
				c4.93,4.38,10.29,8.45,14.42,13.51c10.54,12.92,8.24,23.69-6.16,32.01c-0.7,0.41-1.39,0.83-1.86,1.11
				c0.58,11.94-3.07,18.96-11.58,22.87c-7.41,3.41-16.5,1.12-24.01-6.34c-2.49-2.47-4.69-5.27-6.71-8.14
				c-4.89-6.92-11.37-8.23-18.73-3.88c-4.16,2.46-8.37,5.08-12.91,6.59c-41.7,13.88-83.27,14.88-124.9-0.9
				c-9.34-3.54-19.52-6.33-29.41-6.68c-25.3-0.87-50.68-0.82-75.97,0.15c-15.97,0.61-31.86,3.53-48.4,5.49
				c1.73,4.18,3.08,6.95,4.02,9.85c2.46,7.56,5.77,15.57-0.15,22.63c-5.87,7-14.26,5.04-21.64,3.15
				c-10.74-2.76-21.21-6.56-32.15-10.02c0.39,6.32,1.54,13.14,1.02,19.83c-0.57,7.32-1.59,14.97-4.37,21.67
				c-3.59,8.64-12.61,10.53-20.55,5.41c-3.11-2-6.28-4.43-8.36-7.41c-6.47-9.21-12.42-18.78-18.16-27.56
				c-2.88,3.97-6.26,9.44-10.45,14.19c-6.11,6.92-13.88,10.26-23.16,7.18c-9.65-3.2-16.59-9.42-18.11-19.87
				c-0.77-5.28-0.13-10.76-0.13-16.54c-7.79,0.41-13.78-2.81-15.25-9.6c-1.22-5.61-0.64-12.28,1.3-17.71
				c2.12-5.93,6.72-10.97,10.74-17.15c-2.05,0.87-3.38,1.46-4.74,2c-14.93,5.92-29.58,12.7-44.85,17.58
				c-35.53,11.35-71.83,15.54-108.89,8.37c-25.69-4.97-49.89-14.5-73.71-24.88c-45.48-19.81-92.32-25.39-140.89-15.01
				c-27.34,5.84-54.54,12.33-81.91,17.99c-14.48,3-29.64,5.79-43.53-1c-11.56-5.65-22.91-12.59-32.62-20.96
				C949.04,1384.6,943.76,1366.1,950.68,1344.96z M1926.55,473.97c-39.21-35.09-98.35-35.48-140.53-0.03
				c-36.36,30.56-50.1,70.63-40.18,116.81c10.12,47.12,39.71,78.02,86.84,89.8c56.9,14.21,111.33-19.5,127.62-78.56
				c3.65-13.23,4.44-27.24,6.55-40.9C1963.65,526.88,1952.3,497.01,1926.55,473.97z M2133.5,497.32
				c-27.31-51.96-89.71-64.48-135.33-27.45c-16.31,13.24-26.98,30-31.11,50.69c-0.53,2.66-0.45,5.67,0.2,8.31
				c6.82,27.63,6.4,55.04-2.82,82.01c-1.93,5.65-0.02,8.17,4.58,9.14c8.77,1.84,17.65,3.58,26.57,4.28
				c12.94,1.01,26.03,0.28,38.91,1.68c20.79,2.26,32.29,14.47,34.86,35.17c0.24,1.92,0.66,3.81,1.1,6.26
				c42.71-12.95,79.55-48.1,79.61-99.45C2150.1,543.07,2145.07,519.33,2133.5,497.32z M1900.02,1030.41
				c-7.31,2.22-14.23,4.13-20.99,6.53c-1.46,0.52-2.9,2.63-3.35,4.28c-6.19,22.83-17.03,43.34-30.37,62.72
				c-1.22,1.77-1.81,5.16-0.95,6.97c7.41,15.63,10.52,32.16,10.97,49.27c0.11,4.24,1.02,7.31,4.86,9.96
				c7.88,5.46,10.89,13.94,13.05,22.98c0.71,2.97,3.04,6.16,5.56,7.99c9.55,6.94,19.47,13.37,30.5,20.83
				C1900.54,1157.31,1901.02,1093.86,1900.02,1030.41z M1969.25,1433.47c2.91,2.98,5.63,6.26,8.94,8.71
				c4.87,3.62,10.03,4.01,15.07-0.31c5.14-4.41,6.42-10.05,2.98-15.32c-4.02-6.17-9.65-11.27-14.24-17.1
				c-1.49-1.89-1.91-4.62-2.82-6.96c2.5,0.42,5.56,0.06,7.41,1.39c6.05,4.34,11.67,9.3,18.52,14.88c7.34-2.54,9.89-8.8,3.84-17.38
				c-3.25-4.62-7.53-8.58-11.68-12.48c-2.87-2.7-6.42-4.65-9.47-7.17c-2.85-2.36-5.45-5.02-8.86-8.21
				c-3.34,18.49-9.65,34.88-21.4,47.77C1961.86,1425.79,1965.52,1429.66,1969.25,1433.47z M1490.86,1438.39
				c-2.3,4.93,0.29,11.87,4.15,13.08c5.27,1.65,7.97-1.72,10.56-5.71c1.84-2.85,3.25-8.55,7.82-5.96c5.55,3.15-0.05,6.81-1.5,9.87
				c-3.71,7.84-7.07,15.57-5.2,24.6c1.6,7.77,6.57,12.28,13.7,14.62c7.16,2.35,12.73-1.19,16.79-6.39
				c7.65-9.78,14.8-19.89,10.65-33.69c-0.58-1.92,1.6-4.67,2.5-7.04c1.61,1.93,4.07,3.61,4.7,5.82c3.12,10.94,4.44,22.61,8.98,32.87
				c3.59,8.12,10.47,15.03,16.77,21.62c4.67,4.89,10.46,3.71,12.4-2.78c2.15-7.18,2.43-15.02,2.78-22.6
				c0.46-9.86,0-19.76,0.39-29.63c0.07-1.84,2.26-3.6,3.47-5.39c1.21,1.94,3.5,3.92,3.42,5.81c-0.17,4.22,1.4,6.93,5.07,8.16
				c11.17,3.74,22.25,8.06,33.72,10.55c8.59,1.86,12.43-2.53,9.1-10.52c-5.02-12.06-11.12-23.85-18.26-34.79
				c-6.05-9.27-12.78-17.84-13.26-29.87c-37.7,15.59-74.1,13.57-111.1-6.29c0,6.08-0.38,11.08,0.08,16.01
				c0.8,8.54-2.36,15.2-7.79,21.6C1496.8,1427.09,1493.52,1432.7,1490.86,1438.39z M970.11,1393.86
				c22.31,21.27,47.83,26.59,77.49,18.91c27.26-7.06,54.91-12.72,82.56-18.12c45.93-8.97,90.17-2.63,133.36,15.03
				c22.59,9.24,45.56,18.12,69.11,24.28c41.42,10.85,82.29,4.48,122.03-9.63c14.08-5,27.53-11.75,41.31-17.62
				c3.92-1.67,5.96-4.26,5.32-8.67c-0.19-1.3-0.28-2.69-0.04-3.96c1.89-9.96-1.89-16.95-9.12-24.17
				c-15.28-15.27-13.35-36.21,4.92-49.79c8.88-6.6,11.55-13.4,12.68-24.16c5.54-52.56,12.3-104.99,19.04-157.41
				c4.35-33.88,10.08-67.54,20.1-100.3c10.96-35.86,25.07-70.21,49.92-99.04c4.85-5.63,10.71-10.44,16.39-15.28
				c1.02-0.87,3.47-0.05,5.25-0.01c-0.29,1.94,0.15,4.7-0.97,5.69c-32.8,28.85-48.98,67.31-62.01,107.45
				c-10.91,33.62-16.26,68.47-21.23,103.34c-4.35,30.5-9.47,60.93-12.5,91.56c-3.45,34.82-4.98,69.83-7.27,104.77
				c-0.14,2.17,0.19,4.4,0.52,6.58c0.47,3.2,1.06,6.93-3.43,6.75c-1.62-0.07-4.09-3.52-4.44-5.7c-0.95-5.85-0.94-11.84-1.35-17.78
				c-0.07-1.03-0.31-2.05-0.49-3.14c-15.85,5.61-21.92,24.21-12.44,37.22c9.3,12.76,22.18,20.86,36.6,26.19
				c24.81,9.16,50.01,9.41,75.2,1.06c1.88-0.62,3.72-1.4,5.51-2.25c15.09-7.18,18.74-16.01,13.12-33.09
				c-2.82,3.76-5.02,7.56-8.08,10.43c-1.83,1.72-5.02,1.98-7.6,2.9c0.53-2.44,0.55-5.14,1.67-7.27c8.17-15.58,17.2-30.74,24.75-46.6
				c14.3-30.02,25.57-61.71,42.15-90.38c23.98-41.48,44.14-84.31,58.89-129.75c5.77-17.79,10.52-35.92,15.74-53.89
				c0.67-2.32,1.08-4.79,2.17-6.9c0.56-1.08,2.69-2.38,3.5-2.05c1.29,0.52,2.77,2.24,2.91,3.58c0.22,2.1-0.45,4.36-1,6.48
				c-17.01,65.34-40.22,128.02-75.5,186.12c-12.95,21.33-21.64,45.25-32.17,68.03c-6.93,15-13.78,30.04-20.41,45.18
				c-0.92,2.09-0.73,4.86-0.47,7.25c0.9,8.06,2.48,16.07,2.92,24.14c0.18,3.25-1.11,7.26-3.13,9.82
				c-5.93,7.55-5.58,15.44-1.29,22.89c5.26,9.13,11.61,17.65,17.8,26.21c0.8,1.11,3.54,1.54,5.18,1.23
				c36.6-6.91,73.58-8.29,110.67-7.22c15.89,0.46,31.45,2.87,46.52,8.8c37.17,14.63,75,14.17,112.75,2.49
				c28.64-8.87,42.83-30.41,47.89-58.64c9.14-50.96-4.77-94.4-44.32-128.43c-14.99-12.9-31.34-24.22-47.13-36.19
				c-1.5-1.14-3.36-1.79-5.36-2.82c-0.75,5.79-1.07,11.05-2.27,16.11c-0.48,2.03-2.9,3.61-4.44,5.39c-0.91-2.12-2.56-4.22-2.6-6.35
				c-0.21-10.5,0.76-21.09-0.26-31.49c-0.51-5.15-4.42-9.96-6.79-14.92c-0.62,0.25-1.23,0.5-1.85,0.75
				c-1.61,10.99-2.81,22.05-4.91,32.95c-4.66,24.18-12.56,47.24-25.17,68.54c-0.9,1.52-1.52,3.44-2.83,4.41
				c-1.85,1.37-4.23,2.02-6.38,2.98c-0.03-2.3-0.97-5.19,0.06-6.82c12.05-19.05,19.99-39.8,25.01-61.6
				c7.25-31.49,10.11-63.12-0.58-94.57c-0.64-1.87-1.4-3.7-2.2-5.51c-0.34-0.77-0.92-1.44-1.71-2.64
				c-6.98,7.66-13.53,15.25-20.52,22.41c-6.46,6.62-13.21,13-20.25,19.01c-1.87,1.59-5.23,1.42-7.91,2.06
				c0.97-2.53,1.21-5.88,3.01-7.47c25.73-22.63,47.95-48.1,63.6-78.78c4.48-8.79,7.67-18.25,11.32-27.46
				c0.77-1.95,0.96-4.14,1.33-5.85c-9.46-1.83-18.33-3.3-27.05-5.36c-3.34-0.79-6.63-2.57-9.38-4.64c-1.22-0.92-1.06-3.69-1.52-5.62
				c1.8-0.19,4.04-1.17,5.32-0.44c12.5,7.04,25.93,7.95,39.76,6.55c34.5-3.5,53.91-36.59,40.01-68.36
				c-2.02-4.61-4.77-8.92-7.38-13.26c-1.22-2.03-2.91-3.78-5.1-6.57c-3.53,6.64-6.66,12.51-10.26,19.27c3.98,0,6.85-0.36,9.57,0.13
				c1.8,0.33,3.39,1.88,5.07,2.88c-1.55,1.43-3.02,3.97-4.67,4.09c-8.55,0.63-17.17,1.14-25.74,0.81
				c-60.15-2.35-116.01-17.61-162.2-58.14c-13.93-12.22-25.02-27.71-37.09-41.97c-1.24-1.46-0.26-4.8-0.31-7.26
				c2.12,1,4.76,1.52,6.24,3.12c2.8,3.01,4.94,6.64,8.49,11.59c4.05-10.11,7.56-18.86,11.42-28.48
				c-19.17-3.98-37.34-6.75-55.72-1.64c-8.69,2.42-12.81,8.65-13.31,17.62c-0.87,15.31,2.23,29.79,8.63,43.63
				c0.55,1.2,1.58,2.34,1.68,3.56c0.18,2.31-0.15,4.66-0.27,7c-2.17-1.24-5.24-1.96-6.32-3.83c-2.61-4.54-4.92-9.46-6.21-14.52
				c-2.06-8.06-3.76-16.31-4.55-24.58c-0.53-5.58-1.76-7.66-7.86-6.95c-30.45,3.53-49.91,21.46-62.94,47.64
				c-3.91,7.85-6.24,16.46-9.75,24.53c-0.8,1.84-3.48,2.87-5.29,4.28c-0.6-2.09-2.06-4.37-1.63-6.22
				c1.32-5.71,3.37-11.26,5.32-17.47c-13.11-2.4-25.75-4.64-38.33-1.17c-3.39,0.93-7.02,4.67-8.54,8.03
				c-6.11,13.43-11.44,27.22-17.05,40.87c-1.15,2.8-1.94,6.87-5.97,4.88c-1.26-0.62-1.5-5.4-0.69-7.75
				c3.22-9.31,7.05-18.4,11.21-29.01c-7.36-1.59-13.85-3.72-20.47-4.3c-30.28-2.65-57.21,7.75-82.86,22.39
				c-29.1,16.61-48.91,41.94-65.51,70.26c-17.38,29.67-25.66,62.14-29.43,95.94c-3.61,32.3-2.05,64.23,7.66,95.51
				c6.14,19.78,15.35,37.95,27.93,54.41c0.94,1.23,2.44,2.32,2.73,3.67c0.44,2.07,0.04,4.32,0,6.49c-2.06-0.62-5.05-0.57-6.04-1.96
				c-6.78-9.47-13.87-18.83-19.48-28.99c-10.65-19.26-16.62-40.24-20.01-61.95c-0.15-0.99-0.37-1.97-0.56-2.96
				c-0.56-0.06-1.12-0.11-1.68-0.17c-2.1,10.87-4.53,21.69-6.25,32.62c-4.41,28.07-4.36,56.16,0.13,84.25
				c0.3,1.88-1.79,4.14-2.77,6.23c-1.6-1.73-4.23-3.24-4.64-5.21c-4.3-20.85-5.19-41.94-3.37-63.14c0.58-6.8,0.99-13.64,2.06-20.37
				c0.86-5.41-1.53-7.93-6.3-8.84c-11.66-2.22-23.27-5.17-35.04-6.21c-14.65-1.29-29.69-2.85-44.11-0.93
				c-29.77,3.96-48.16,23.35-54.57,51.46c-7.46,32.72-28.57,43.57-58.01,46.99c-21.17,2.46-42.42,5.09-63.23,9.55
				c-16.38,3.51-30.93,11.7-39.94,27.07C950.22,1357.8,953.52,1378.04,970.11,1393.86z"/>
			<path class="st5" d="M1963.29,892.98c-7.93-13.69-7.34-28.84-2.16-42.94c16.2-44.13,41.55-80.52,87.62-98.32
				c21.3-8.23,38.02-8.94,58.61-1.46l5.76,3.95c9.13,7.37,15.47,16.32,16.21,28.4c0.69,11.37-2.24,21.89-7.75,31.66
				c-1.79,3.17-1.52,5.22,0.32,8.26c4.22,6.95,8.4,14.04,11.54,21.51c9.81,23.3,6.03,43.65-10.45,59.56
				c-22.16,21.4-54.65,24.49-83.72,7.65c-4.03-2.33-6.9-2.79-11.22-0.38c-11.03,6.13-23,9.36-35.61,6.09l-13.98-4.24
				C1973.31,906.12,1967.4,900.07,1963.29,892.98z M2119.4,897.15c11.76-11.66,15.26-27.62,9.09-44.39
				c-12.68,30.68-34.26,50.1-64.54,60.03C2085.36,917.72,2103.91,912.51,2119.4,897.15z"/>
		</g>
	</g>
</g>
</svg>
