<?xml version="1.0" encoding="utf-8"?>
<!-- Generator: Adobe Illustrator 24.3.0, SVG Export Plug-In . SVG Version: 6.00 Build 0)  -->
<svg version="1.1" id="Layer_1" xmlns="http://www.w3.org/2000/svg" xmlns:xlink="http://www.w3.org/1999/xlink" x="0px" y="0px"
	 viewBox="0 0 3000 3000" style="enable-background:new 0 0 3000 3000;" xml:space="preserve">
<style type="text/css">
	.st0{fill:#FFED00;}
	.st1{fill:#FFFFFF;}
	.st2{fill:#1D71B8;}
</style>
<g>
	<g>
		<path class="st0" d="M1794.71,1495.95c-2.17,15.33-7.6,39.05-17.38,42.59c-20.86,7.51-45.49,4.39-67.86,5.57
			c13.94,23.48,5.04,183.4-12.79,203.49c-4.11,4.6-10.15,8.37-16.09,10.36c-76.27,26.03-150.8,26.02-230.15-14.86
			c43.64-65.53-17.98-85.1-57.27-117.96c80.01,1.51,149.82,2.97,219.56,4.32c0.96-4.79,1.82-9.61,2.77-14.4
			c-13.18-4.2-26.26-11.59-39.45-11.69c-23.59-0.09-47.51,7.65-70.92,6.29c-122.04-7.36-239.98-31.53-347.03-94.72
			c-0.87-1.49-1.93-3.03-3.02-4.47c19.18-47.1,38.33-94.11,55.07-135.15c38.03,14.48,68.68,26.13,99.34,37.78
			c1.99-4.96,4.01-10.02,6-14.99c-20.14-8.04-45.19-11.05-59.18-25.24c-16.67-16.98-23.98-43.3-35.28-65.6
			c22.87-5.27,45.99-15.29,68.6-14.41c23.5,0.97,47.68,10.2,69.47,20.3c16.89,7.82,35.4,19.6,44.75,34.87
			c41.49,67.37,121.66,94.52,193.94,62.51c73.73-32.69,109.31-114.3,83.06-190.02c-25.73-74-102.09-117.03-177.95-99.22
			c-18.27,4.38-35.99,11.68-52.81,17.19c-62.74-70.84-107.46-85.39-160.57-53.66c-0.46-0.2-0.93-0.31-1.41-0.41l-0.7,0.45
			c-34.25-18.05-2.79-27.33,6.64-39.26c10.28-13.05,26.68-23.94,30.92-38.62c24.87-85.67,47.13-172.22,69.82-258.46
			c5.94-22.41,10.17-45.28,16.66-74.77c16.2,23.68,26.6,38.67,37.65,54.81c15.72-19.15,28.15-34.22,43.18-52.52
			c11.57,25.16,19.86,43.39,30.42,66.33c16.75-21.53,29.83-38.25,45.71-58.57c8.4,25.46,14.72,44.46,22.45,67.97
			c21.53-18.27,38.13-32.32,57.44-48.68c8.86,22.46,16.09,40.96,23.55,59.81c19.38-11.24,35.13-20.48,53.25-31
			c6.01,24.94,10.77,44.69,16.25,67.51c20.45-13.81,36.8-24.91,55.72-37.66c6.86,27.02,12.35,48.44,18.67,73.35
			c19.29-13.06,35.4-24.02,53.41-36.26c2.18,25.09,3.82,44.46,5.82,67.62c23.55-12.42,40.16-21.07,58.36-30.57
			c1.05,23.84,1.95,43.85,2.92,64.88c18.58-3.51,32.68-6.21,47.09-8.94c-53.4,128.01-102.91,252.88-157.5,375.42
			c-27.49,61.68-21.44,140.55-93.47,183.22C1767.51,1450.04,1801.17,1449.35,1794.71,1495.95z"/>
		<path class="st1" d="M1289.54,1084.86c-0.33,0.13-0.68,0.35-1.03,0.57c-0.36-0.18-0.72-0.36-1.08-0.54l0.7-0.45
			C1288.6,1084.56,1289.08,1084.66,1289.54,1084.86z"/>
		<path d="M1381.08,2576.56c50.3,25.09,101.22,36.5,152.46,41.88L1381.08,2576.56z M1811.15,2278.27
			c-5.85-33.41-14.16-66.55-24.23-98.98c-12.29-39.62-35.75-78.91,14.82-110.49c5.59-3.57,3.9-18.15,6.24-27.44
			c6.5-25.88,8.03-50.56,5.89-74.44c-6.61-76.29-49.23-144.01-77.12-214.08c-24.92-62.22,2.28-116.66,5.81-174.51
			c0.28-4.44,15.22-8.25,23.63-11.9c43.71-19.49,59.23-67.7,39.78-109.8c-8.11-17.69-13.11-42.71-7.08-60.09
			c32.64-93.26,67.46-185.95,104.8-277.38c34.75-85.1,73.71-168.46,113.5-258.75c-25.36,7.02-44.2,12.18-64.99,18
			c-0.39-23.7-0.72-43.98-1.07-68.77c-21.26,9.32-38.62,16.81-58.66,25.6c-1.15-22.06-2.08-42.38-3.41-69.49
			c-22.44,13.77-40.81,24.93-62.18,37.93c-5.89-24.61-11.07-46.06-16.92-70.36c-20.17,12.07-38.39,23.06-57.16,34.24
			c-4.91-23.59-9.1-43.62-13.85-66.58c-21.93,13.28-39.37,23.85-57.39,34.79c-8.93-21.68-16.47-40.15-25.33-61.71
			c-21.28,18.03-37.23,31.42-54.93,46.34c-7.81-21.33-15.35-41.6-24.42-66.31c-19.08,20.31-33.74,35.99-49.28,52.48
			c-10.54-19.83-19.53-36.72-29.92-56.31c-17.16,17.93-32.33,33.7-47.81,49.9c-13.58-20.1-25.58-37.85-41.94-62.16
			c-44.04,173.19-61.93,346.24-176.63,483.17c18.67-12.1,37.34-24.19,56.11-36.27c-34.25-18.05-2.79-27.33,6.64-39.26
			c10.28-13.05,26.68-23.94,30.92-38.62c24.87-85.67,47.13-172.22,69.82-258.46c5.94-22.41,10.17-45.28,16.66-74.77
			c16.2,23.68,26.6,38.67,37.65,54.81c15.72-19.15,28.15-34.22,43.18-52.52c11.57,25.16,19.86,43.39,30.42,66.33
			c16.75-21.53,29.83-38.25,45.71-58.57c8.4,25.46,14.72,44.46,22.45,67.97c21.53-18.27,38.13-32.32,57.44-48.68
			c8.86,22.46,16.09,40.96,23.55,59.81c19.38-11.24,35.13-20.48,53.25-31c6.01,24.94,10.77,44.69,16.25,67.51
			c20.45-13.81,36.8-24.91,55.72-37.66c6.86,27.02,12.35,48.44,18.67,73.35c19.29-13.06,35.4-24.02,53.41-36.26
			c2.18,25.09,3.82,44.46,5.82,67.62c23.55-12.42,40.16-21.07,58.36-30.57c1.05,23.84,1.95,43.85,2.92,64.88
			c18.58-3.51,32.68-6.21,47.09-8.94c-53.4,128.01-102.91,252.88-157.5,375.42c-27.49,61.68-21.44,140.55-93.47,183.22
			c35.12-0.47,68.79-1.16,62.33,45.44c-2.17,15.33-7.6,39.05-17.38,42.59c-20.86,7.51-45.49,4.39-67.86,5.57
			c13.94,23.48,5.04,183.4-12.79,203.49c-4.11,4.6-10.15,8.37-16.09,10.36c-76.27,26.03-150.8,26.02-230.15-14.86
			c43.64-65.53-17.98-85.1-57.27-117.96c80.01,1.51,149.82,2.97,219.56,4.32c0.96-4.79,1.82-9.61,2.77-14.4
			c-13.18-4.2-26.26-11.59-39.45-11.69c-23.59-0.09-47.51,7.65-70.92,6.29c-122.04-7.36-239.98-31.53-347.03-94.72
			c25.4,18.7,48.61,42.32,76.75,54.92c62.26,28.02,132.2,33.91,184.23,90.69c27.91,30.46,37.05,51.68,15.21,80.89
			c-30.93,41.41-64.6,80.72-97.83,120.33c-7.43,8.77-14.79,17.65-22.04,26.46c-5.59,6.77-17.07,17.55-15.56,19.78
			c24.77,37.47-5.07,65.72-18.83,92.8c-34.95,68.74-76.37,134.16-113.93,201.63c-7.49,13.56-18.13,36.43-12.44,44.68
			c40.24,58.08,18.96,115.63-0.26,171.13c-17.95,51.98-3.32,83.21,45.2,102.8c6.88,2.82,13.07,6.98,20.41,10.9l162.07,44.59
			c-3.27-1.52-6.4-3.21-9.62-4.92c32.06-57.47-12.65-72.52-51.21-95.02c-71.2-41.49-117.94-101.41-130.15-182.74
			c83.31,25.15,163.27,48.66,242.67,73.85c12.9,4.14,23.39,15.55,35.14,23.54c50.81,34.6,101.6,69.3,161.55,110.11l16.26-73.86
			l106.3,23.41c-8.96,13.43-13.55,25.63-22.31,32.71c-30.92,25.01-48.12,55.44-48.35,96.01c-0.04,25.6-11.73,44.64-40.43,44.12
			c-35.89-0.6-71.71-1.48-107.38-5.33l85.28,23.48c46.33,7.7,73.82-10.36,80.34-63.15c3.33-27.38,20.25-59.27,41.28-77.05
			C1812.2,2440.68,1826.27,2364.54,1811.15,2278.27z M1180.22,2388.26c59.74,52.67,115.46,101.76,172.43,152.02
			c-44.35,7.84-182.21-37.62-188.46-68.31C1158.68,2444.75,1174.74,2413.17,1180.22,2388.26z M1712.99,2160.6
			c-27.49,97.6-66.75,191.81-102.72,292.94c-12.86-4.73-22.07-7.46-30.79-11.48c-97.09-44.79-105.74-63.2-72.68-162.48
			c25.07-75.22,52.65-149.59,76.69-225.14c9.06-28.42,21.91-40,52.33-33.2C1766.96,2050.93,1749.05,2032.77,1712.99,2160.6z
			 M1288.12,1084.45l-0.7,0.45c0.36,0.18,0.72,0.36,1.08,0.54L1288.12,1084.45z M1230.49,1122.19c0.27-0.34,0.55-0.68,0.83-1.02
			c-0.35,0.22-0.7,0.45-1.05,0.67L1230.49,1122.19z"/>
		<path d="M1230.49,1122.19c-0.23,0.15-0.37,0.32-0.6,0.47c0.16-0.26,0.22-0.55,0.38-0.82L1230.49,1122.19z"/>
		<path d="M1288.12,1084.45c0.48,0.11,0.96,0.21,1.41,0.41c-0.33,0.13-0.68,0.35-1.03,0.57L1288.12,1084.45z"/>
		<path d="M1420.51,1190.24c0.02-0.1,0.12-0.07,0.12-0.07c-2.18,4.92-4.37,9.84-6.55,14.77
			C1416.16,1199.99,1418.35,1195.07,1420.51,1190.24z"/>
		<path d="M1597.81,1410.57c-72.28,32.01-152.45,4.85-193.94-62.51c-9.35-15.26-27.86-27.05-44.75-34.87
			c-21.79-10.1-45.97-19.33-69.47-20.3c-22.62-0.88-45.73,9.14-68.6,14.41c11.3,22.3,18.61,48.62,35.28,65.6
			c13.98,14.18,39.03,17.2,59.18,25.24c-1.99,4.96-4.01,10.02-6,14.99c-30.65-11.65-61.3-23.3-99.34-37.78
			c-16.74,41.04-35.9,88.04-55.07,135.15c2.71-20.92-0.1-44.54,8.89-62.18c34.32-67.28,54.46-133.28,30.44-210.51
			c-12.65-40.7-3.28-85.06,35.46-115.15c-12.46,28.5-25.58,56.95-29.14,84.34c-4.14,31.82,17.22,61.41,48.56,68.31l59.43,13.09
			c36.28,7.99,73.18-10.71,88.2-44.7c5.75-13.01,11.29-25.54,16.74-37.85c-1.24,2.93-2.51,5.95-3.78,8.97
			c-26.85,65.13-3.43,138.72,55.35,174.37c58.42,35.48,136.96,20.95,179.62-33.29c41.68-52.95,38.78-128.43-6.97-178.72
			c-46.88-51.54-121-59.36-180.84-19.31c-9.63,6.48-19.91,11.82-29.87,17.53l-0.02,0.1l-0.1-0.02l-0.02,0.1
			c-0.1-0.02-0.12,0.07-0.21,0.05c-0.58,0.37-1.26,0.72-1.84,1.1c-4.41-19.48-3.4-51.37-14.34-56.19
			c-38.22-16.82-80.42-24.61-121.11-35.67c53.11-31.73,97.83-17.18,160.57,53.66c16.82-5.5,34.53-12.8,52.81-17.19
			c75.86-17.81,152.23,25.21,177.95,99.22C1707.12,1296.27,1671.54,1377.88,1597.81,1410.57z"/>
		<path class="st2" d="M1629.46,2501.44c8.14-36.95,11.88-53.95,16.27-73.88c35.07,7.72,67.42,14.85,106.25,23.4
			c-8.9,13.43-13.54,25.63-22.3,32.73c-30.89,25.02-48.14,55.44-48.31,96.01c-0.11,25.59-11.72,44.61-40.49,44.1
			c-90.55-1.6-180.91-4.89-269.44-52.12c32.04-57.51-12.59-72.53-51.2-95.03c-71.17-41.49-117.98-101.39-130.13-182.77
			c83.32,25.17,163.25,48.71,242.67,73.9c12.88,4.09,23.42,15.51,35.09,23.48C1518.67,2425.91,1569.49,2460.55,1629.46,2501.44z
			 M1435.19,2379.39c-40.15,57.86-38.77,106.36-7.08,119.91C1430.46,2459.51,1432.83,2419.45,1435.19,2379.39z"/>
		<path class="st0" d="M1610.28,2453.57c-12.85-4.77-22.08-7.54-30.76-11.53c-97.16-44.73-105.78-63.19-72.72-162.48
			c25.04-75.21,52.66-149.58,76.73-225.09c9.06-28.42,21.84-40.06,52.31-33.18c131.1,29.6,113.22,11.51,77.19,139.29
			C1685.53,2258.16,1646.25,2352.41,1610.28,2453.57z"/>
		<path class="st1" d="M1427.06,1175.48l-0.02,0.1c-2.16,4.83-4.35,9.75-6.53,14.67c-2.16,4.83-4.35,9.75-6.44,14.69
			c-0.16,0.27-0.32,0.53-0.4,0.91c-6.36,14.36-12.84,29.03-19.64,44.4c-13.33,30.16-46.08,46.78-78.28,39.69l-59.87-13.18
			c-37.77-8.32-61.39-45.92-52.59-83.58c5.39-23.08,16.22-46.78,26.6-70.52c0.16-0.26,0.22-0.55,0.38-0.82
			c0.35-0.22,0.7-0.45,1.05-0.67c18.67-12.1,37.34-24.19,56.11-36.27l0.7-0.45c0.48,0.11,0.96,0.21,1.41,0.41
			c40.69,11.06,82.89,18.85,121.11,35.67c10.95,4.81,9.93,36.7,14.34,56.19c0.58-0.37,1.26-0.72,1.84-1.1L1427.06,1175.48z"/>
		<path class="st1" d="M1425.02,1176.69c10.69-6.23,21.74-11.91,32.01-18.78c59.87-40.07,134.03-32.3,180.89,19.26
			c45.72,50.3,48.64,125.76,6.93,178.75c-42.65,54.19-121.16,68.75-179.61,33.3c-58.78-35.65-82.22-109.29-55.37-174.41
			c5.47-13.26,11.51-26.27,17.26-39.38C1427.09,1175.46,1425.02,1176.69,1425.02,1176.69z"/>
		<path d="M1435.19,2379.39c-2.37,40.06-4.73,80.12-7.08,119.91C1396.42,2485.74,1395.04,2437.25,1435.19,2379.39z"/>
	</g>
	<circle cx="1569.23" cy="1289.71" r="26.94"/>
	<circle cx="1352.65" cy="1197.55" r="26.94"/>
</g>
<path d="M2413.29,1899.14c0,675.42-404.1,1029.49-965.99,1029.49c-446.45,0-713.91-194.36-860.17-373.31l311.74-390.62
	c109.69,134.7,275.17,250.15,523.41,250.15c284.8,0,454.14-177.03,454.14-565.74V186.53h536.87V1899.14z"/>
</svg>
