<?xml version="1.0" encoding="utf-8"?>
<!-- Generator: Adobe Illustrator 24.3.0, SVG Export Plug-In . SVG Version: 6.00 Build 0)  -->
<svg version="1.1" id="Layer_1" xmlns="http://www.w3.org/2000/svg" xmlns:xlink="http://www.w3.org/1999/xlink" x="0px" y="0px"
	 viewBox="0 0 3000 3000" style="enable-background:new 0 0 3000 3000;" xml:space="preserve">
<style type="text/css">
	.st0{fill:#FFED00;}
	.st1{fill:#80BF7C;}
	.st2{fill:#FFFFFF;}
	.st3{fill:none;}
	.st4{fill:#1D1D1B;}
	.st5{fill:#312783;}
</style>
<g>
	<path class="st0" d="M1126.97,2534.47c-47.02-57.72-82.45-121.99-109.26-191.34c-7.66-19.83-8.11-39.06-2.73-59.08
		c12.67-47.09,34.48-90.23,57.89-132.57c36.54-66.08,77.36-129.36,124.51-188.48c20.98-26.3,47.58-42.01,81.23-39.9
		c17.33,1.08,35.34,3.28,49.56,18.75c16,17.42,37.18,16.88,58.89,5.54c10.68,12.83,23.36,22.2,41.62,21.81
		c18.3-0.39,31.09-9.27,41.9-24.5c12.23,17.98,28.33,27.09,49.64,23.99c21.06-3.06,33.11-16.62,39.57-37.04
		c14.26,9.04,28.29,15.17,44.9,10.39c15.47-4.45,26.75-13.59,31.83-28.7c2.52-7.47,6.44-11.19,13.63-13.15
		c3.77-1.03,7.82-3.01,10.47-5.78c8.91-9.31,16.77-5.78,23.68,1.78c11.4,12.49,23.47,24.66,32.99,38.52
		c47.04,68.44,93.16,137.5,139.99,206.08c15.63,22.88,32.39,44.99,49.37,68.46c-4.01,4.3-10.21,10.07-15.22,16.74
		c-2.05,2.73-1.56,7.38-2.23,11.15c3.45-0.69,8.12-0.18,10.17-2.25c55.65-56.11,111.41-112.12,166.11-169.15
		c9.34-9.74,14.21-23.87,20.67-36.23c7.98-15.27,13.9-31.9,23.75-45.78c5.71-8.05,16.76-14.48,26.56-16.87
		c10.73-2.62,16.51-7.69,19.37-17.09c3.75-12.32,6.16-25.05,10.22-37.26c3.14-9.46,6.65-19.26,12.24-27.36
		c10.8-15.65,29.14-13.74,37.91,2.96c12.06,22.96,7.84,48.37-10.08,67.31c-2.67,2.82-3.37,9.9-1.81,13.71
		c1.99,4.85,6.56,9.46,11.17,12.28c21.67,13.23,43.49,26.31,70.32,25.99c2.88-0.03,5.8,3.07,8.69,4.73c2.95,1.7,5.7,4.42,8.84,4.98
		c27.87,4.98,53.46-1.82,77.36-16.1c6.9-4.12,12.97-10.56,20.35-12.65c6.42-1.82,14.89-0.52,20.97,2.44
		c2.79,1.36,2.02,10.02,2.45,12.81c-13.31,4.55-24.4,7.47-34.72,12.1c-10.25,4.6-19.68,11.01-29.56,16.46
		c-18.61,10.26-37.84,17.91-59.85,15.49c-2.84-0.31-6.01,2.4-9.02,3.71c2.85,2.16,5.48,5.8,8.58,6.25
		c20.9,3.09,39.7-3.83,57.86-13.29c15-7.81,29.87-15.93,45.25-22.93c4.96-2.26,11.35-1.4,17.08-1.96
		c0.28,6.19,2.06,12.76,0.58,18.49c-5.57,21.48-19.96,36.4-38.44,47.75c-24.9,15.29-52.48,22.37-81.1,25.89
		c-41,5.04-82.04,7.03-122.47-3.72c-13.12-3.49-25.49-9.72-38.37-14.26c-2.85-1-6.37-0.11-9.58-0.09c1.69,3.03,2.62,7.29,5.2,8.86
		c7.14,4.34,14.96,7.57,23.87,11.9c-3.6,6.75-6.44,13.32-10.33,19.19c-29.79,45.02-59.38,90.17-89.83,134.74
		c-26.69,39.07-56.39,75.71-93.37,105.76c-19.94,16.2-41.61,29.61-67.73,32.5c-10.96,1.21-22.85,1.23-33.33-1.71
		c-23.75-6.67-43.63-20.74-60.04-39.05c-12.2-13.61-12.55-24.96-3.71-40.57c20.71-36.58,39.47-73.86,45.98-116.17
		c4.32-28.07,1.02-53.77-18.73-75.7c-18.34-20.36-36.32-41.05-54.93-61.15c-26.29-28.38-53.23-56.17-79.46-84.61
		c-8.71-9.45-15.73-20.46-24.29-30.07c-2.22-2.49-7.35-2.38-11.14-3.46c-0.16,3.65-1.78,8.18-0.21,10.78
		c4.76,7.9,10.25,15.5,16.37,22.41c15.24,17.19,30.98,33.94,46.53,50.86c3.69,4.02,7.39,8.04,12.88,13.99
		c-151.64-3.82-294.63,25.79-437.45,77.53c7.45-7.66,13.35-12.68,17.85-18.74c2.55-3.43,2.84-8.56,4.14-12.92
		c-4.61,0.85-10.92,0.08-13.54,2.83c-11.91,12.52-24.81,24.8-33.66,39.41c-30.68,50.61-59.84,102.15-89.53,153.36
		c-2.58,4.46-4.75,9.16-7.57,14.62c-2.59-3.14-3.94-6.11-6.21-7.24c-3.77-1.88-8.12-2.59-12.23-3.79c0.1,4.74-1.65,10.73,0.58,14.02
		c21.26,31.29,42.89,62.34,65.01,93.04c29.23,40.57,59,80.74,88.48,121.12c2.1,2.87,3.63,6.15,5.43,9.24
		C1252.83,2534.47,1189.9,2534.47,1126.97,2534.47z M2155.76,2002.97c-5.46,2.72-15.32,7.24-24.68,12.63
		c-1.58,0.91-1.04,5.52-1.48,8.42c2.7-0.35,6.29,0.28,7.97-1.22c10.06-9,22.06-11.15,33.8-6.8c20.19,7.47,39.61,16.97,59.53,25.22
		c3.03,1.25,6.95,0.32,10.47,0.4c-1.32-3-1.79-7.42-4.08-8.79C2213.79,2018.74,2189.51,2006.45,2155.76,2002.97z"/>
	<path class="st1" d="M1398.05,2534.47c-44.67-93.43-84.49-188.89-119.64-286.29c-6.15-17.04-11.02-34.53-16.93-51.65
		c-2.91-8.42-0.79-15.03,3.32-22.69c8.7-16.21,21.63-25.61,38.59-32.2c79.19-30.79,161.06-51.15,244.77-64.52
		c60.61-9.69,121.58-14.17,183.02-12c13.32,0.47,23.47,4.2,32.35,14.8c15.25,18.2,31.44,35.68,48.12,52.59
		c24.33,24.66,28.55,53.29,20.95,85.85c-8.64,37.01-25.47,70.22-44.01,102.87c-31.73,55.88-37.63,115.68-25.06,177.66
		c2.5,12.34,9.56,23.75,14.52,35.59C1651.39,2534.47,1524.72,2534.47,1398.05,2534.47z"/>
	<path class="st2" d="M1332.7,2534.47c-19.3-26.76-38.71-53.43-57.86-80.3c-28.78-40.38-57.27-80.97-86.16-121.27
		c-4.76-6.64-5.58-12.2-1.52-19.64c18.72-34.29,36.93-68.86,55.4-103.28c1.67-3.11,3.9-5.9,6.28-9.44
		c11.39,31.89,21.19,63.34,33.73,93.64c32.34,78.11,65.91,155.71,98.95,233.53c0.91,2.15,1.35,4.5,2,6.76
		C1366.59,2534.47,1349.65,2534.47,1332.7,2534.47z"/>
	<path class="st0" d="M1799.94,1560.8c-30.32-21.21-60.9-42.02-93.74-64.63c-6.13,8.87-12.84,19-19.95,28.81
		c-5.4,7.44-10.37,15.58-17.18,21.5c-19.58,17.04-43.02,23.24-68.58,20.02c-5.84-0.75-11.29-4.48-16.94-6.83
		c5.57-1.28,11.22-3.95,16.7-3.66c37.93,1.99,66.6-16.72,74.67-49.39c7.9-32.11-8.41-51.47-41.25-48.88
		c-2.81,0.22-5.57,0.8-8.31,1.43c-24.31,5.45-48.52,11.44-72.97,16.14c-7.85,1.5-11.17,4.75-13.86,12
		c-21.62,58.11-80.34,93.59-141.75,86.25c-9.06-1.09-17.93-3.17-26.51-6.18c-1.55-0.53-3.1-1.11-4.63-1.72
		c-4.6-1.82-9.11-3.88-13.5-6.18c-1.45-0.78-2.91-1.58-4.34-2.4c-2.86-1.65-5.67-3.39-8.41-5.23c-1.36-0.92-2.71-1.87-4.05-2.84
		c-0.68-0.48-1.33-0.97-1.99-1.48c-1.99-1.5-3.93-3.05-5.82-4.63c-3.17-2.67-6.2-5.45-9.11-8.39
		c-16.31-16.38-28.45-36.79-34.15-59.25c-1.89-7.49-3.71-12.43-12.53-14.69c-6.93-1.77-13.01-7.61-18.81-12.46
		c-1.53-1.26-0.53-5.53-0.7-8.41c2.76,0.39,5.99-0.05,8.17,1.28c5.79,3.47,11.12,7.71,15.85,11.1c4.19-20.43,8.29-38.78,11.41-57.29
		c0.46-2.84-2.81-7.92-5.67-9.4c-11.51-6.03-20.77-13.5-22.54-27.02c-8.8,9.57-16.46,19.53-25.76,27.63
		c-9.26,8.02-20.14,14.13-32.69,22.73c4.6,3.51,8.77,6.11,12.26,9.45c18.71,17.93,30.97,38.94,31.14,65.8
		c0.07,11.68,1.04,23.36,1.67,35.02c0.34,6.18,1.82,11.03,9.82,10.54c11.32-0.65,18.3,5.62,21.5,15.85
		c2.86,9.18,6.66,18.66,6.69,28.02c0,15.7,0.85,29.03,20.89,30.08c0.36,0,0.87,0.19,1.09,0.48c1.87,2.62,3.71,5.31,5.55,7.95
		c-3.1,0.53-6.23,1.45-9.35,1.55c-12.19,0.32-25.16-2.25-36.42,1.04c-28.62,8.36-41.56,43.84-28.86,74.16
		c10.49,24.99,35.58,32.43,64.1,18.95c5.48-2.59,10.64-5.89,16.24-8.02c1.94-0.73,4.85,1.07,7.32,1.72
		c-0.9,2.33-1.16,5.33-2.81,6.83c-2.88,2.62-6.59,4.29-8.58,5.5c2.74,17.11,5.57,33.86,8.24,50.48c0.68,4.14,1.36,8.29,1.99,12.43
		c0.65,4.02,1.26,8.05,1.87,12.07c1.26,8.36,2.45,16.72,3.54,25.08c1.91,14.88,2.11,29.13,18.15,36.86
		c2.18,1.07,3.95,3.51,5.67,5.77c0.65,0.82,1.28,1.65,1.91,2.33c1.07,1.16,2.18,2.01,3.39,2.11c18.01,1.53,32.26,8.99,39.72,19.63
		c16.46-1.02,30.05-4.85,41.88-1.77c11.8,3.1,21.81,13.09,32.93,20.26c23.24-27.19,41.78-30.29,70.91-11.88
		c8.8-10.49,17.06-19.92,24.77-29.78c2.13-2.76,2.84-6.74,3.85-10.28c2.96-10.23,4.41-21.18,9.09-30.56
		c3.01-6.06,3.1-10.3,1.77-16.5c-3.59-16.41-6.74-33.03-8.34-49.73c-1.07-11.17,5.26-18.93,16.87-21.74
		c16.33-3.93,24.02-17.42,19.87-34.63c-5.57,0.61-11.2,1.04-16.75,1.87c-58.99,8.89-118.02,9.04-177.03,0.85
		c-7.12-0.99-12.21-1.62-15.9,5.84c-0.99,2.01-5.06,2.52-7.73,3.71c-0.95-2.79-3.13-5.82-2.64-8.34
		c2.69-14.08,30.39-35.16,44.93-34.29c2.23,0.12,4.31,2.67,6.47,4.07c-1.53,1.91-2.67,4.58-4.65,5.57
		c-3.71,1.89-7.9,2.81-15.03,5.16c9.4,1.48,15.22,2.74,21.08,3.27c114.8,10.61,224.44-10.81,330.53-53.61
		c16.26-6.54,28.55-17.93,34.8-34.92C1814.99,1577.81,1813.08,1569.96,1799.94,1560.8z M1299.77,1673.37
		c-2.74-1.67-6.81-2.69-7.92-5.09c-3.59-7.78-6.08-16.09-8.99-24.21c-13.64,4.17-18.56,11.78-17.91,24.06
		c0.19,3.71-3.2,7.59-4.97,11.39c-1.72-3.66-4.39-7.15-5.02-10.98c-1.99-12.17,2.81-21.93,11.8-31.19c-3.3,1.28-6.52,3.03-9.96,3.73
		c-2.64,0.53-5.53-0.24-8.31-0.44c0.97-2.69,1.14-6.3,3.03-7.95c11.37-9.94,28.45-8.58,37.22,4.12c5.77,8.41,9.14,18.56,12.87,28.21
		C1302.48,1667.24,1300.45,1670.56,1299.77,1673.37z"/>
	<path class="st2" d="M1413.46,1561.62c-66.87,0.05-121.13-53.66-121.49-120.26c-0.36-66.74,54.56-121.82,121.48-121.84
		c65.59-0.02,120.81,55.74,120.53,121.69C1533.69,1508.91,1480.98,1561.57,1413.46,1561.62z M1393.7,1434.78
		c-11.85,0.07-21.59,9.81-21.49,21.47c0.1,11.73,9.83,21.09,21.84,21.01c12.37-0.08,21.23-9.04,21.1-21.35
		C1415.01,1443.68,1405.91,1434.71,1393.7,1434.78z"/>
	<path class="st2" d="M1545.07,1465.18c6.34-47.42-6.15-87.12-38.16-119.95c12.85-31.57,60.29-58.06,102.21-57.44
		c48.8,0.73,95.23,33.24,111.99,78.42c16.21,43.69,4.93,97.3-26.35,124.99c-0.52-0.45-1.48-0.87-1.52-1.36
		c-2.92-35.91-30.44-47.85-63.75-43.42c-23.8,3.17-47.03,10.56-70.53,16.02C1555.07,1463.34,1551.12,1463.99,1545.07,1465.18z
		 M1672.97,1402.07c0.2-9.67-7.42-17.48-17.29-17.74c-10.45-0.27-17.72,6.33-18.14,16.47c-0.45,11,6.49,18.3,17.46,18.35
		C1664.92,1419.21,1672.77,1411.74,1672.97,1402.07z"/>
	<path class="st0" d="M1651.05,1280.53c0,0.27,0,0.53-0.02,0.8H1651c-6.62-1.43-13.3-2.25-19.48-4.48
		c-2.62-0.92-5.11-4.53-6.01-7.44c-1.65-5.33-1.33-11.32-3.25-16.53c-1.67-4.48-5.31-8.26-8.07-12.38c-0.68,4.7-2.04,9.4-1.87,14.06
		c0.24,6.25,1.62,12.51,2.08,15.78c-23.14,6.4-44.52,12.53-66.06,17.98c-2.54,0.63-7.15-1.53-8.77-3.8
		c-3.61-5.16-5.65-11.39-8.89-16.82c-1.57-2.59-4.48-4.39-6.79-6.54c-1.07,3.08-3.8,6.79-2.93,9.14c3.37,8.87,7.9,17.33,8.92,21.4
		c-12.41,13.04-24.82,26.08-37.85,39.79c-10.15-4.8-24.36-11.17-38.19-18.27c-2.4-1.24-4.27-5.38-4.58-8.36
		c-0.63-5.96,0.48-12.09-0.12-18.08c-0.27-2.52-3.01-4.8-4.63-7.17c-1.82,2.13-4.75,4-5.28,6.42c-1.57,7.22,0.19,17.16-4,21.28
		c-3.44,3.39-13.74-1.14-20.7-0.15c-20.09,2.88-40.01,6.79-60,10.28c-6.64-6.23-14.86-13.96-23.12-21.76h-0.02
		c0-0.02-0.02-0.05-0.02-0.05h-0.02c0-0.05-0.05-0.07-0.07-0.1l0.07,0.02c5.48-4.14,10.93-8.36,16.41-12.51
		c5.48-4.17,11.03-8.26,16.7-12.12c3.97-2.74,9.77-5.26,14.15-4.51c41.34,6.95,79.2-0.32,113.54-25.08
		c3.22-2.33,9.02-3.22,12.92-2.18c36.16,9.77,70.91,6.66,104.52-9.89c2.33-1.14,5.55-2.45,7.68-1.72
		C1633.86,1233.27,1651.72,1261.24,1651.05,1280.53z"/>
	<path class="st0" d="M1331.32,1295.6c-0.02,0.05-0.02,0.05-0.05,0.07c-0.05-0.07-0.07-0.12-0.07-0.19c0.02,0,0.02,0,0.05,0.02
		S1331.32,1295.55,1331.32,1295.6z"/>
	<path class="st0" d="M1342.1,1324.13c-16.33,17.38-32.93,34.99-50.29,53.46c-15.7-4.9-24.21-13.6-26.15-29.11
		c-0.97-7.63-0.32-16.96,1.87-28.28c12.63-0.97,24.89-3.1,36.35-7.49c1.21-0.46,2.42-0.94,3.64-1.48c1.96-0.85,3.9-1.77,5.82-2.76
		c3.17-1.67,6.28-3.56,9.28-5.69c2.98-2.11,5.86-4.46,8.63-7.08c0-0.02,0.02-0.02,0.02-0.02v0.07c0.92,2.38,1.82,4.77,2.74,7.15
		C1336.82,1310.29,1339.58,1317.53,1342.1,1324.13z"/>
	<path class="st0" d="M2387.64,1979.31c-10.86,18.69-49.46,32.44-76.88,28.09C2326.53,1993.14,2372.9,1975.84,2387.64,1979.31z"/>
	<path d="M2155.76,2002.97c33.75,3.48,58.03,15.77,81.53,29.85c2.29,1.37,2.76,5.79,4.08,8.79c-3.51-0.08-7.44,0.85-10.47-0.4
		c-19.91-8.24-39.34-17.75-59.53-25.22c-11.74-4.34-23.74-2.2-33.8,6.8c-1.68,1.5-5.26,0.87-7.97,1.22c0.44-2.9-0.11-7.51,1.48-8.42
		C2140.44,2010.21,2150.3,2005.68,2155.76,2002.97z"/>
	<path d="M1282.84,1644.07c-13.64,4.16-18.55,11.78-17.89,24.07c0.2,3.7-3.22,7.58-4.98,11.38c-1.73-3.65-4.39-7.14-5.02-10.97
		c-1.99-12.19,2.82-21.94,11.81-31.21c-3.31,1.29-6.53,3.03-9.96,3.73c-2.63,0.54-5.54-0.23-8.32-0.42c0.97-2.7,1.15-6.31,3.04-7.96
		c11.37-9.93,28.45-8.59,37.21,4.13c5.78,8.4,9.14,18.55,12.89,28.19c0.86,2.2-1.16,5.52-1.86,8.33c-2.72-1.65-6.81-2.67-7.91-5.07
		C1288.26,1660.49,1285.76,1652.19,1282.84,1644.07z"/>
	<path d="M1393.7,1434.78c12.21-0.07,21.31,8.9,21.44,21.13c0.13,12.31-8.73,21.27-21.1,21.35c-12,0.08-21.73-9.28-21.84-21.01
		C1372.1,1444.58,1381.85,1434.85,1393.7,1434.78z"/>
	<path d="M1672.97,1402.07c-0.2,9.67-8.05,17.14-17.96,17.09c-10.98-0.06-17.92-7.35-17.46-18.35c0.42-10.14,7.69-16.75,18.14-16.47
		C1665.55,1384.59,1673.16,1392.4,1672.97,1402.07z"/>
	<line class="st3" x1="1110.02" y1="2534.47" x2="1332.7" y2="2534.47"/>
	<path class="st3" d="M1413.45,1319.52c-66.92,0.02-121.85,55.1-121.48,121.84c0.36,66.6,54.62,120.31,121.49,120.26
		c67.52-0.05,120.24-52.71,120.52-120.41C1534.26,1375.26,1479.04,1319.5,1413.45,1319.52z"/>
	<path class="st3" d="M1342.1,1324.13c-16.33,17.38-32.93,34.99-50.29,53.46c-15.7-4.9-24.21-13.6-26.15-29.11
		c-0.97-7.63-0.32-16.96,1.87-28.28c12.63-0.97,24.89-3.1,36.35-7.49c1.21-0.46,2.42-0.94,3.64-1.48c1.96-0.85,3.9-1.77,5.82-2.76
		c3.17-1.67,6.28-3.54,9.28-5.69c2.98-2.08,5.86-4.41,8.65-7.03c0.92,2.38,1.82,4.77,2.74,7.15
		C1336.82,1310.29,1339.58,1317.53,1342.1,1324.13z"/>
	<path class="st3" d="M1651.05,1280.53c0,0.27,0,0.53-0.02,0.8H1651c-6.62-1.43-13.3-2.25-19.48-4.48
		c-2.62-0.92-5.11-4.53-6.01-7.44c-1.65-5.33-1.33-11.32-3.25-16.53c-1.67-4.48-5.31-8.26-8.07-12.38c-0.68,4.7-2.04,9.4-1.87,14.06
		c0.24,6.25,1.62,12.51,2.08,15.78c-23.14,6.4-44.52,12.53-66.06,17.98c-2.54,0.63-7.15-1.53-8.77-3.8
		c-3.61-5.16-5.65-11.39-8.89-16.82c-1.57-2.59-4.48-4.39-6.79-6.54c-1.07,3.08-3.8,6.79-2.93,9.14c3.37,8.87,7.9,17.33,8.92,21.4
		c-12.41,13.04-24.82,26.08-37.85,39.79c-10.15-4.8-24.36-11.17-38.19-18.27c-2.4-1.24-4.27-5.38-4.58-8.36
		c-0.63-5.96,0.48-12.09-0.12-18.08c-0.27-2.52-3.01-4.8-4.63-7.17c-1.82,2.13-4.75,4-5.28,6.42c-1.57,7.22,0.19,17.16-4,21.28
		c-3.44,3.39-13.74-1.14-20.7-0.15c-20.09,2.88-40.01,6.79-60,10.28c-6.64-6.23-14.86-13.96-23.12-21.76
		c5.45-4.19,10.88-8.43,16.33-12.63c5.48-4.17,11.03-8.26,16.7-12.12c3.97-2.74,9.77-5.26,14.15-4.51
		c41.34,6.95,79.2-0.32,113.54-25.08c3.22-2.33,9.02-3.22,12.92-2.18c36.16,9.77,70.91,6.66,104.52-9.89
		c2.33-1.14,5.55-2.45,7.68-1.72C1633.86,1233.27,1651.72,1261.24,1651.05,1280.53z"/>
	<path class="st3" d="M1809.42,1592.98c-6.25,16.99-18.54,28.38-34.8,34.92c-106.1,42.8-215.74,64.22-330.53,53.61
		c-5.86-0.53-11.68-1.79-21.08-3.27c7.12-2.35,11.32-3.27,15.03-5.16c1.99-0.99,3.13-3.66,4.65-5.57c-2.16-1.41-4.24-3.95-6.47-4.07
		c-14.54-0.87-42.24,20.21-44.93,34.29c-0.48,2.52,1.7,5.55,2.64,8.34c2.67-1.19,6.74-1.7,7.73-3.71c3.68-7.46,8.77-6.83,15.9-5.84
		c59.01,8.19,118.05,8.05,177.03-0.85c5.55-0.82,11.17-1.26,16.75-1.87c4.14,17.21-3.54,30.71-19.87,34.63
		c-11.61,2.81-17.93,10.57-16.87,21.74c1.6,16.7,4.75,33.32,8.34,49.73c1.33,6.2,1.24,10.45-1.77,16.5
		c-4.68,9.38-6.13,20.33-9.09,30.56c-1.02,3.54-1.72,7.51-3.85,10.28c-7.71,9.86-15.97,19.29-24.77,29.78
		c-29.13-18.42-47.67-15.32-70.91,11.88c-11.12-7.17-21.13-17.16-32.93-20.26c-11.83-3.08-25.42,0.75-41.88,1.77
		c-7.46-10.64-21.71-18.1-39.72-19.63c-1.21-0.1-2.33-0.95-3.39-2.11c-0.65-0.68-1.28-1.5-1.91-2.33c-1.72-2.25-3.49-4.7-5.67-5.77
		c-16.04-7.73-16.24-21.98-18.15-36.86c-1.09-8.36-2.28-16.72-3.54-25.08c-0.61-4.02-1.21-8.05-1.87-12.07
		c-0.63-4.14-1.31-8.29-1.99-12.43c-2.67-16.62-5.5-33.37-8.24-50.48c1.99-1.21,5.7-2.88,8.58-5.5c1.65-1.5,1.91-4.51,2.81-6.83
		c-2.47-0.65-5.38-2.45-7.32-1.72c-5.6,2.13-10.76,5.43-16.24,8.02c-28.52,13.47-53.61,6.03-64.1-18.95
		c-12.7-30.32,0.24-65.8,28.86-74.16c11.27-3.3,24.23-0.73,36.42-1.04c3.13-0.1,6.25-1.02,9.35-1.55c-1.84-2.64-3.68-5.33-5.55-7.95
		c-0.22-0.29-0.73-0.48-1.09-0.48c-20.04-1.04-20.89-14.37-20.89-30.08c-0.02-9.35-3.83-18.83-6.69-28.02
		c-3.2-10.23-10.18-16.5-21.5-15.85c-8,0.48-9.48-4.36-9.82-10.54c-0.63-11.66-1.6-23.34-1.67-35.02
		c-0.17-26.85-12.43-47.86-31.14-65.8c-3.49-3.34-7.66-5.94-12.26-9.45c12.55-8.6,23.43-14.71,32.69-22.73
		c9.31-8.09,16.96-18.05,25.76-27.63c1.77,13.52,11.03,20.99,22.54,27.02c2.86,1.48,6.13,6.57,5.67,9.4
		c-3.13,18.51-7.22,36.86-11.41,57.29c-4.73-3.39-10.06-7.63-15.85-11.1c-2.18-1.33-5.4-0.9-8.17-1.28c0.17,2.88-0.82,7.15,0.7,8.41
		c5.79,4.85,11.87,10.69,18.81,12.46c8.82,2.25,10.64,7.2,12.53,14.69c5.69,22.47,17.84,42.87,34.15,59.25
		c2.91,2.93,5.94,5.74,9.11,8.39c1.89,1.6,3.83,3.15,5.82,4.63c0.65,0.51,1.31,0.99,1.99,1.48c1.33,0.97,2.69,1.91,4.05,2.84
		c2.74,1.87,5.55,3.61,8.41,5.23c1.43,0.82,2.88,1.62,4.34,2.4c4.39,2.3,8.89,4.36,13.5,6.18c1.53,0.61,3.08,1.19,4.63,1.72
		c8.58,3.01,17.45,5.09,26.51,6.18c61.41,7.34,120.13-28.14,141.75-86.25c2.69-7.25,6.01-10.49,13.86-12
		c24.45-4.7,48.66-10.69,72.97-16.14c2.74-0.63,5.5-1.21,8.31-1.43c32.84-2.59,49.15,16.77,41.25,48.88
		c-8.07,32.67-36.74,51.38-74.67,49.39c-5.48-0.29-11.12,2.37-16.7,3.66c5.65,2.35,11.1,6.08,16.94,6.83
		c25.57,3.22,49-2.98,68.58-20.02c6.81-5.91,11.78-14.06,17.18-21.5c7.1-9.82,13.81-19.94,19.95-28.81
		c32.84,22.61,63.42,43.43,93.74,64.63C1813.08,1569.96,1814.99,1577.81,1809.42,1592.98z"/>
	<path class="st3" d="M2310.75,2007.4c27.42,4.35,66.03-9.4,76.88-28.09C2372.9,1975.84,2326.53,1993.14,2310.75,2007.4z"/>
	<path class="st3" d="M1721.1,1366.21c-16.76-45.18-63.19-77.7-111.99-78.42c-41.92-0.62-89.36,25.87-102.21,57.44
		c32.01,32.83,44.5,72.53,38.16,119.95c6.06-1.19,10-1.83,13.89-2.74c23.5-5.46,46.73-12.86,70.53-16.02
		c33.31-4.43,60.84,7.51,63.75,43.42c0.04,0.5,1,0.92,1.52,1.36C1726.03,1463.51,1737.31,1409.9,1721.1,1366.21z"/>
	<path class="st4" d="M1331.37,1295.65c-0.02,0.02-0.05,0.05-0.1,0.1c0-0.02,0-0.02-0.02-0.05c-0.02-0.07-0.05-0.17-0.07-0.24
		l0.02,0.02c0.05,0.05,0.07,0.07,0.12,0.12C1331.34,1295.63,1331.34,1295.63,1331.37,1295.65z"/>
	<path class="st4" d="M2430.23,1984.49c-6.93-4.53-15.73-6.25-23.85-8.94c-3.01-1.02-7.66-0.39-9.06-2.33
		c-6.83-9.43-16.07-9.23-24.96-5.96c-15.85,5.82-31.02,13.38-46.8,19.36c-11.56,4.36-23.41,8.99-35.53,10.59
		c-16.65,2.21-61.02-18.81-73.43-32.57c21.13-22.61,25.16-58.6,9.48-84.94c-12.94-21.76-39.41-24.48-55.72-5.04
		c-5.31,6.3-9.5,14.13-12.17,21.98c-5.06,14.81-8.17,30.32-13.13,45.17c-1.5,4.51-5.91,10.37-9.98,11.32
		c-17.67,4.05-31.41,13.5-40.08,28.74c-8.31,14.61-14.15,30.61-21.54,45.75c-4.73,9.65-8.65,20.43-15.8,28.02
		c-36.16,38.51-73.33,76.05-109.95,114.1c-9.45,9.84-18.22,20.33-29.71,33.23c-16.6-22.61-31.19-41.22-44.47-60.76
		c-46.43-68.37-91.99-137.31-138.77-205.46c-16.12-23.43-32.72-47.04-58.33-61.53c8.53-48.06-22.76-80.19-77.09-76.99
		c-2.57-14.15-5.67-28.57-7.39-43.16c-0.34-2.98,4-8.6,7.2-9.52c15.7-4.53,24.28-15.44,28.65-30.1c2.4-8.02,3.15-16.55,4.75-25.45
		c2.64-0.8,5.7-1.72,8.75-2.64c45.42-13.69,91.05-26.71,136.15-41.39c24.09-7.85,41.56-24.36,49.78-49.15
		c7.32-22.08,3.3-36.09-15.46-49.61c-18.61-13.43-38.15-25.62-56.93-38.82c-12.12-8.51-23.6-17.88-35.24-26.75
		c27.89-48.03,28.02-94.9,3.71-140.63c6.71-8.26,12.94-15.17,18.13-22.76c1.72-2.52,0.78-6.86,1.04-10.35
		c-2.96,1.45-6.62,2.25-8.75,4.51c-5.65,5.96-10.64,12.55-16.46,19.58c-4.77-5.99-8.19-10.28-11.83-14.83
		c0.12-0.12,0.24-0.27,0.39-0.39c-18.18-24.48-46.92-34-54.77-36.23c0,0.27,0,0.53-0.02,0.8c0,0,34.46,7.92,54.38,35.79
		l-54.38-35.79H1651c-6.62-1.43-13.3-2.25-19.48-4.48c-2.62-0.92-5.11-4.53-6.01-7.44c-1.65-5.33-1.33-11.32-3.25-16.53
		c-1.67-4.48-5.31-8.26-8.07-12.38c-0.68,4.7-2.04,9.4-1.87,14.06c0.24,6.25,1.62,12.51,2.08,15.78
		c-23.14,6.4-44.52,12.53-66.06,17.98c-2.54,0.63-7.15-1.53-8.77-3.8c-3.61-5.16-5.65-11.39-8.89-16.82
		c-1.57-2.59-4.48-4.39-6.79-6.54c-1.07,3.08-3.8,6.79-2.93,9.14c3.37,8.87,7.9,17.33,8.92,21.4
		c-12.41,13.04-24.82,26.08-37.85,39.79c-10.15-4.8-24.36-11.17-38.19-18.27c-2.4-1.24-4.27-5.38-4.58-8.36
		c-0.63-5.96,0.48-12.09-0.12-18.08c-0.27-2.52-3.01-4.8-4.63-7.17c-1.82,2.13-4.75,4-5.28,6.42c-1.57,7.22,0.19,17.16-4,21.28
		c-3.44,3.39-13.74-1.14-20.7-0.15c-20.09,2.88-40.01,6.79-60,10.28c-6.64-6.23-14.86-13.96-23.12-21.76
		c5.45-4.19,10.88-8.43,16.33-12.63c-5.48,4.14-10.93,8.36-16.41,12.51l-0.07-0.02c-0.02-0.02-0.02-0.02-0.05-0.02
		c0.05,0.05,0.07,0.07,0.12,0.12c0.02,0.02,0.02,0.02,0.05,0.05c-0.02,0.02-0.05,0.05-0.1,0.1c0.92,2.38,1.82,4.77,2.74,7.15
		c2.81,7.39,5.57,14.64,8.09,21.23c-16.33,17.38-32.93,34.99-50.29,53.46c-15.7-4.9-24.21-13.6-26.15-29.11l-6.2,9.89
		c1.77,13.52,11.03,20.99,22.54,27.02c2.86,1.48,6.13,6.57,5.67,9.4c-3.13,18.51-7.22,36.86-11.41,57.29
		c-4.73-3.39-10.06-7.63-15.85-11.1c-2.18-1.33-5.4-0.9-8.17-1.28c0.17,2.88-0.82,7.15,0.7,8.41c5.79,4.85,11.87,10.69,18.81,12.46
		c8.82,2.25,10.64,7.2,12.53,14.69c5.69,22.47,17.84,42.87,34.15,59.25c2.91,2.93,5.94,5.74,9.11,8.39
		c1.89,1.58,3.83,3.13,5.82,4.63c0.65,0.51,1.31,0.99,1.99,1.48c1.33,0.97,2.69,1.91,4.05,2.84c2.74,1.87,5.55,3.61,8.41,5.23
		c1.43,0.82,2.88,1.62,4.34,2.4c4.39,2.3,8.89,4.36,13.5,6.18c1.53,0.61,3.08,1.19,4.63,1.72c8.58,3.01,17.45,5.09,26.51,6.18
		c61.41,7.34,120.13-28.14,141.75-86.25c2.69-7.25,6.01-10.49,13.86-12c24.45-4.7,48.66-10.69,72.97-16.14
		c2.74-0.63,5.5-1.21,8.31-1.43c32.84-2.59,49.15,16.77,41.25,48.88c-8.07,32.67-36.74,51.38-74.67,49.39
		c-5.48-0.29-11.12,2.37-16.7,3.66c5.65,2.35,11.1,6.08,16.94,6.83c25.57,3.22,49-2.98,68.58-20.02
		c6.81-5.91,11.78-14.06,17.18-21.5c7.1-9.82,13.81-19.94,19.95-28.81c32.84,22.61,63.42,43.43,93.74,64.63
		c13.13,9.16,15.05,17.01,9.48,32.18c-6.25,16.99-18.54,28.38-34.8,34.92c-106.1,42.8-215.74,64.22-330.53,53.61
		c-5.86-0.53-11.68-1.79-21.08-3.27c7.12-2.35,11.32-3.27,15.03-5.16c1.99-0.99,3.13-3.66,4.65-5.57c-2.16-1.41-4.24-3.95-6.47-4.07
		c-14.54-0.87-42.24,20.21-44.93,34.29c-0.48,2.52,1.7,5.55,2.64,8.34c2.67-1.19,6.74-1.7,7.73-3.71c3.68-7.46,8.77-6.83,15.9-5.84
		c59.01,8.19,118.05,8.05,177.03-0.85c5.55-0.82,11.17-1.26,16.75-1.87c4.14,17.21-3.54,30.71-19.87,34.63
		c-11.61,2.81-17.93,10.57-16.87,21.74c1.6,16.7,4.75,33.32,8.34,49.73c1.33,6.2,1.24,10.45-1.77,16.5
		c-4.68,9.38-6.13,20.33-9.09,30.56c-1.02,3.54-1.72,7.51-3.85,10.28c-7.71,9.86-15.97,19.29-24.77,29.78
		c-29.13-18.42-47.67-15.32-70.91,11.88c-11.12-7.17-21.13-17.16-32.93-20.26c-11.83-3.08-25.42,0.75-41.88,1.77
		c-7.46-10.64-21.71-18.1-39.72-19.63c-1.21-0.1-2.33-0.95-3.39-2.11c-0.65-0.68-1.28-1.5-1.91-2.33c-1.72-2.25-3.49-4.7-5.67-5.77
		c-16.04-7.73-16.24-21.98-18.15-36.86c-1.09-8.36-2.28-16.72-3.54-25.08l-8.75,3.93c1.19,11.97,2.71,27.34,4.34,43.67
		c-20.09-0.1-35.79,5.65-45.97,21.88c-10.35,16.58-8.26,33.64-0.05,50.6c-46.07,5.72-63.35,14.98-91.82,50.87
		c-43.69,55.09-81.86,113.93-116.45,175.07c-25.81,45.63-50.09,92.04-63.76,143.1c-5.28,19.7-8.39,39.7-1.28,59.54
		c25.64,71.47,61.07,137.63,108.45,197.17h16.94c-47.04-57.73-82.47-122-109.27-191.33c-7.66-19.82-8.09-39.07-2.71-59.08
		c12.67-47.09,34.49-90.22,57.9-132.56c36.52-66.09,77.36-129.36,124.52-188.5c20.96-26.29,47.57-42,81.21-39.91
		c17.35,1.09,35.36,3.3,49.56,18.76c16.02,17.42,37.18,16.87,58.89,5.53c10.69,12.84,23.36,22.2,41.63,21.81
		c18.3-0.39,31.09-9.26,41.9-24.5c12.21,17.98,28.33,27.09,49.63,23.99c21.06-3.05,33.1-16.62,39.58-37.03
		c14.25,9.04,28.28,15.17,44.88,10.37c15.46-4.43,26.75-13.57,31.84-28.69c2.52-7.46,6.42-11.17,13.62-13.13
		c3.78-1.04,7.83-3.03,10.49-5.79c8.89-9.31,16.77-5.77,23.68,1.79c11.39,12.48,23.46,24.65,32.98,38.51
		c47.04,68.44,93.16,137.51,140,206.09c15.63,22.88,32.38,44.98,49.37,68.46c-4.02,4.29-10.2,10.08-15.22,16.75
		c-2.06,2.71-1.58,7.37-2.23,11.15c3.44-0.7,8.12-0.19,10.15-2.25c55.67-56.1,111.43-112.13,166.13-169.16
		c9.33-9.74,14.2-23.87,20.67-36.23c7.97-15.27,13.89-31.89,23.75-45.78c5.72-8.05,16.75-14.47,26.56-16.87
		c10.74-2.62,16.5-7.68,19.36-17.09c3.76-12.31,6.18-25.06,10.23-37.25c3.15-9.48,6.64-19.27,12.24-27.36
		c10.81-15.66,29.13-13.74,37.9,2.96c12.07,22.95,7.85,48.37-10.08,67.3c-2.67,2.81-3.37,9.91-1.79,13.72
		c1.99,4.85,6.54,9.45,11.17,12.26c21.67,13.23,43.48,26.32,70.3,26c2.88-0.02,5.82,3.05,8.7,4.73c2.93,1.7,5.7,4.43,8.85,4.99
		c27.87,4.99,53.44-1.82,77.36-16.09c6.88-4.14,12.97-10.57,20.36-12.65c6.4-1.82,14.88-0.53,20.96,2.45
		c2.79,1.36,2.01,10.01,2.45,12.8c-13.3,4.56-24.4,7.46-34.7,12.09c-10.25,4.6-19.7,11-29.57,16.46
		c-18.61,10.28-37.85,17.93-59.86,15.51c-0.32-0.02-0.65-0.02-0.97,0c-0.34,0.05-0.7,0.12-1.04,0.22c-1.07,0.29-2.13,0.85-3.22,1.45
		c-0.53,0.31-1.09,0.63-1.62,0.92c-0.56,0.31-1.09,0.61-1.62,0.87c-0.17,0.07-0.36,0.17-0.53,0.24c2.84,2.16,5.48,5.79,8.58,6.25
		c20.89,3.08,39.7-3.83,57.85-13.3c15-7.8,29.88-15.92,45.25-22.93c4.97-2.25,11.37-1.38,17.09-1.96
		c0.29,6.18,2.06,12.77,0.58,18.49c-5.57,21.47-19.97,36.4-38.44,47.74c-24.89,15.29-52.49,22.37-81.11,25.88
		c-40.98,5.06-82.03,7.05-122.46-3.71c-13.14-3.49-25.49-9.72-38.36-14.25c-2.86-1.02-6.37-0.12-9.6-0.1
		c1.7,3.03,2.64,7.3,5.21,8.85c7.12,4.36,14.95,7.59,23.87,11.9c-3.61,6.76-6.45,13.33-10.32,19.19
		c-29.78,45.03-59.37,90.18-89.84,134.74c-26.68,39.07-56.39,75.71-93.38,105.76c-19.92,16.19-41.61,29.61-67.74,32.5
		c-10.95,1.21-22.83,1.24-33.32-1.72c-23.75-6.66-43.62-20.72-60.03-39.04c-12.21-13.62-12.55-24.96-3.71-40.57
		c20.7-36.59,39.48-73.87,45.97-116.18c4.31-28.06,1.02-53.78-18.73-75.68c-18.35-20.36-36.3-41.05-54.94-61.17
		c-26.29-28.38-53.22-56.15-79.44-84.6c-8.72-9.45-15.73-20.45-24.31-30.08c-2.21-2.5-7.34-2.37-11.12-3.47
		c-0.17,3.66-1.79,8.19-0.22,10.78c4.77,7.9,10.25,15.51,16.38,22.42c15.22,17.18,30.97,33.93,46.51,50.87
		c3.71,4.02,7.42,8.02,12.89,13.98c-151.64-3.83-294.64,25.79-437.46,77.53c7.44-7.66,13.35-12.67,17.84-18.73
		c2.57-3.44,2.86-8.55,4.14-12.92c-4.6,0.85-10.91,0.07-13.52,2.84c-11.92,12.5-24.82,24.79-33.66,39.41
		c-30.68,50.6-59.86,102.15-89.52,153.36c-2.59,4.46-4.77,9.16-7.59,14.61c-2.57-3.13-3.93-6.11-6.2-7.22
		c-3.76-1.89-8.12-2.59-12.21-3.8c0.1,4.75-1.67,10.74,0.58,14.03c21.25,31.29,42.87,62.33,65,93.04
		c29.23,40.57,59.01,80.73,88.48,121.12c2.08,2.86,3.64,6.16,5.43,9.23h16.94c-19.29-26.75-38.7-53.44-57.85-80.29
		c-28.79-40.37-57.29-80.97-86.18-121.27c-4.75-6.64-5.57-12.21-1.5-19.65c18.71-34.27,36.93-68.85,55.4-103.26
		c1.67-3.13,3.9-5.91,6.28-9.45c11.39,31.89,21.18,63.32,33.73,93.64c32.33,78.11,65.92,155.71,98.95,233.52
		c0.9,2.16,1.33,4.51,1.99,6.76h14.54c-8.39-17.52-16.58-35.12-24.62-52.76c-5.36-11.78-10.64-23.58-15.85-35.43
		c-10.42-23.65-20.53-47.45-30.34-71.37c-7.37-17.96-14.56-35.96-21.59-54.04c-9.38-24.11-18.44-48.35-27.24-72.7
		c-6.16-17.01-11.03-34.51-16.94-51.64c-2.91-8.41-0.8-15.03,3.32-22.68c8.7-16.21,21.64-25.62,38.61-32.21
		c79.17-30.8,161.04-51.13,244.77-64.54c60.61-9.67,121.56-14.15,183.02-12c13.3,0.48,23.46,4.22,32.33,14.81
		c15.27,18.2,31.46,35.67,48.13,52.59c24.33,24.67,28.55,53.29,20.96,85.86c-1.09,4.63-2.3,9.21-3.61,13.72
		c-1.33,4.51-2.76,8.97-4.31,13.38c-9.23,26.49-22.17,51.28-36.08,75.76c-31.72,55.88-37.64,115.67-25.06,177.66
		c2.5,12.34,9.55,23.75,14.52,35.6h14.52c-6.47-15.51-15.53-30.49-18.88-46.65c-7.05-34.29-4.77-69.04,2.59-103.26
		c2.11-9.77,5.72-19.17,8.7-28.91c28.26,36.62,59.79,64.05,107.58,62.23c26.71-1.02,49.37-13.86,70.55-29.11
		c35.77-25.74,65.09-58.04,89.81-94.1c40.01-58.43,78.57-117.85,118.24-177.61c46.07,11.61,93.01,10.4,139.95,3.32
		c34.32-5.19,66.96-15.22,93.57-38.82c15.87-14.08,26.71-31.58,27.43-53.36c0.32-9.77-3.49-19.27,2.84-29.03
		C2436.82,1996.24,2433.75,1986.79,2430.23,1984.49z M1413.45,1561.62c-66.86,0.05-121.12-53.66-121.49-120.28
		c-0.36-66.72,54.55-121.8,121.49-121.83c65.58-0.02,120.81,55.74,120.52,121.68C1533.7,1508.91,1480.97,1561.57,1413.45,1561.62z
		 M1694.76,1491.2c-0.53-0.44-1.5-0.87-1.53-1.36c-2.91-35.92-30.44-47.86-63.76-43.43c-23.8,3.17-47.01,10.57-70.52,16.02
		c-3.88,0.92-7.83,1.55-13.89,2.74c6.33-47.43-6.16-87.12-38.17-119.94c12.87-31.58,60.3-58.07,102.22-57.44
		c48.78,0.7,95.22,33.23,111.99,78.42C1737.32,1409.89,1726.03,1463.5,1694.76,1491.2z M2310.76,2007.39
		c15.78-14.25,62.14-31.55,76.87-28.09C2376.77,1997.99,2338.17,2011.75,2310.76,2007.39z M1322.62,1302.78
		c2.98-2.08,5.86-4.41,8.65-7.03c0-0.02,0-0.02-0.02-0.05C1328.48,1298.32,1325.6,1300.67,1322.62,1302.78z M1322.62,1302.78
		c-3.01,2.13-6.11,4.02-9.28,5.69C1316.51,1306.8,1319.61,1304.93,1322.62,1302.78z"/>
	<path class="st5" d="M1705.82,1316.76c-18.18-24.48-46.92-34-54.77-36.23c0.68-19.29-17.18-47.26-33.81-53
		c-2.13-0.73-5.36,0.58-7.68,1.72c-33.61,16.55-68.37,19.65-104.52,9.89c-3.9-1.04-9.69-0.15-12.92,2.18
		c-34.34,24.77-72.19,32.04-113.54,25.08c-4.39-0.75-10.18,1.77-14.15,4.51c-5.67,3.85-11.22,7.95-16.7,12.12
		c-5.48,4.14-10.93,8.36-16.41,12.51l-0.07-0.02c-0.02-0.02-0.02-0.02-0.05-0.02l-0.02-0.02c0.02,0.07,0.05,0.17,0.07,0.24
		c-2.76,2.62-5.65,4.97-8.63,7.08c-3.01,2.13-6.11,4.02-9.28,5.69c-1.91,0.99-3.85,1.91-5.82,2.76c-1.21,0.53-2.42,1.02-3.64,1.48
		c-11.46,4.39-23.73,6.52-36.35,7.49c-2.18,11.32-2.84,20.65-1.87,28.28l-6.2,9.89c-8.8,9.57-16.46,19.53-25.76,27.63
		c-9.26,8.02-20.14,14.13-32.69,22.73c4.6,3.51,8.77,6.11,12.26,9.45c18.71,17.93,30.97,38.94,31.14,65.8
		c0.07,11.68,1.04,23.36,1.67,35.02c0.34,6.18,1.82,11.03,9.82,10.54c11.32-0.65,18.3,5.62,21.5,15.85
		c2.86,9.18,6.66,18.66,6.69,28.02c0,15.7,0.85,29.03,20.89,30.08c0.36,0,0.87,0.19,1.09,0.48c1.87,2.62,3.71,5.31,5.55,7.95
		c-3.1,0.53-6.23,1.45-9.35,1.55c-12.19,0.32-25.16-2.25-36.42,1.04c-28.62,8.36-41.56,43.84-28.86,74.16
		c10.49,24.99,35.58,32.43,64.1,18.95c5.48-2.59,10.64-5.89,16.24-8.02c1.94-0.73,4.85,1.07,7.32,1.72
		c-0.9,2.33-1.16,5.33-2.81,6.83c-2.88,2.62-6.59,4.29-8.58,5.5c2.74,17.11,5.57,33.86,8.24,50.48c0.68,4.14,1.36,8.29,1.99,12.43
		c0.65,4.02,1.26,8.05,1.87,12.07l-8.75,3.93c-16.21,0-30.71,1.65-44.71-0.31c-37.32-5.21-49.32-21.16-45.8-58.28
		c-11.2-2.69-23.02-4.02-33.56-8.48c-14.3-6.06-28.94-12.8-41.05-22.25c-26.68-20.84-31.46-51.69-14.78-81.11
		c2.37-4.17,4.97-8.22,8.02-13.28c-22.68-11.88-42.02-27.31-54.99-49.34c-13.67-23.24-17.55-46.72,0.92-69.77
		c-66.79-23.39-76.44-54.55-35.45-116.54c-4.85-3.22-10.11-6.03-14.52-9.79c-15.27-13.06-31.92-24.99-44.96-40.04
		c-22.2-25.54-25.08-49.87-14.83-87.22c-0.58-0.44-1.24-1.26-1.79-1.21c-32.5,3.08-48.74-8.41-55.64-40.91
		c-2.57-12.12-3.64-24.74-3.73-37.15c-0.07-12.34,1.94-24.67,3.1-37.61c-25.96,0.78-40.35-16.02-52.42-35.26
		c-16.79-26.83-21.86-56.71-20.72-88.46c-11.51,9.62-23.27,7.2-34.39-0.17c-29.13-19.34-49.37-45.34-55.01-80.39
		c-1.87-11.46,0.9-23.7,1.62-37.25c-67.69-0.56-88.24-43.55-85.84-105.4c-28.31,5.94-45.37-8.07-57.51-29.61
		c-13.74-24.36-20.5-50.48-17.26-78.88c0.48-4.14-2.37-9.74-5.45-13.04c-22.27-23.92-37.61-51.55-43.6-83.58
		c-4.82-25.81-3.66-50.53,24.57-64.05c-10.54-31.53-7.32-62.14,1.45-92.31c11.58-39.77,25.08-50.19,65.97-53.49
		c4.48-15.24,7.59-30.78,13.6-45.1c9.79-23.24,25.93-41.22,51.91-46.31c9.09-1.79,20.02-1.89,28.33,1.53
		c16.89,6.93,30.15,0.7,42.89-8.09c8.87-6.13,16.62-13.98,24.36-21.59c31.04-30.49,61.22-35.26,99.68-14.69
		c6.18,3.3,10.64,3.25,16.33-0.48c7.39-4.85,15.34-8.89,23.14-13.06c33.86-18.05,66.57-12.7,97.18,7.12
		c9.86,6.4,16.46,17.84,26.17,28.79c26.05-8.29,54.36-6.71,80.12,12.31c26.59,19.65,29.61,49.29,33.23,80.05
		c25.32-1.33,49.75,1.79,71.81,15.44c23.82,14.78,33.64,35.89,28.11,65.24c35.94-3.05,63.18,10.74,84.31,37.51
		c20.28,25.76,32.86,53.61,22.51,88.82c4.6,0.31,8.41,1.04,12.09,0.75c32.84-2.71,55.79,15.78,58.48,48.95
		c1.21,15.17-0.65,30.56-0.97,45.85c-0.17,7.15-0.05,14.32-0.05,23.14c8.17-2.42,14.83-4.65,21.62-6.42
		c25.35-6.54,40.76,0.46,52.81,23.75c9.89,19.1,10.61,39.41,7.88,60.15c-0.53,3.93-1.24,7.83-2.04,13.04
		c34.7-2.06,57.68,13.43,70.93,44.16c13.06,30.24,1.11,57.53-10.52,86.18c30.73,9.82,57.63,23.94,69.17,56.44
		c12.29,34.56-4.19,59.93-28.02,83.92c26.25,10.18,50.02,21.84,59.01,50.09c9.09,28.55-2.13,51.96-20.72,74.5
		c37.83,11.41,60.08,35.7,63.64,74.35C1744.54,1259.83,1731.41,1290.56,1705.82,1316.76z"/>
	<path class="st4" d="M1706.74,1317.99l-1.31-0.85l-0.02-0.02l-54.38-35.79H1651l-2.01-1.33c0,0,0.73,0.17,2.06,0.53
		c7.85,2.23,36.59,11.75,54.77,36.23C1706.13,1317.17,1706.45,1317.58,1706.74,1317.99z"/>
	<line class="st3" x1="1267.97" y1="1344.85" x2="1265.67" y2="1348.48"/>
</g>
<path d="M2600.21,1731.19c0,612.97-468.13,1070.61-1102.09,1070.61c-631.86,0-1097.91-457.64-1097.91-1070.61
	c0-612.99,466.04-1070.62,1097.91-1070.62C2132.08,660.57,2600.21,1118.21,2600.21,1731.19z M958.61,1731.19
	c0,329.57,230.91,560.49,539.51,560.49s541.61-230.91,541.61-560.49c0-329.59-233.01-560.5-541.61-560.5
	S958.61,1401.6,958.61,1731.19z"/>
</svg>
